SplineFontDB: 3.2
FontName: Gontserrat-SemiBoldItalic
FullName: Gontserrat Semi Bold Italic
FamilyName: Gontserrat
Weight: Demi
Copyright: Gontserrat is a derivative work of Montserrat under the Open Font License, version 1.1. Copyright 2020 Gabriel Classon (gabeclasson.com). Montserrat copyright 2011 The Montserrat Project Authors (https://github.com/JulietaUla/Montserrat). 
Version: 7.222
ItalicAngle: -11.3
UnderlinePosition: -100
UnderlineWidth: 50
Ascent: 800
Descent: 200
InvalidEm: 0
sfntRevision: 0x00010000
LayerCount: 2
Layer: 0 1 "Back" 1
Layer: 1 1 "Fore" 0
XUID: [1021 930 -1503615855 24319]
StyleMap: 0x0001
FSType: 0
OS2Version: 4
OS2_WeightWidthSlopeOnly: 0
OS2_UseTypoMetrics: 1
CreationTime: 1485852814
ModificationTime: 1642923440
PfmFamily: 81
TTFWeight: 600
TTFWidth: 5
LineGap: 0
VLineGap: 0
Panose: 0 0 7 0 0 0 0 0 0 0
OS2TypoAscent: 968
OS2TypoAOffset: 0
OS2TypoDescent: -251
OS2TypoDOffset: 0
OS2TypoLinegap: 0
OS2WinAscent: 1177
OS2WinAOffset: 0
OS2WinDescent: 496
OS2WinDOffset: 0
HheadAscent: 968
HheadAOffset: 0
HheadDescent: -251
HheadDOffset: 0
OS2SubXSize: 650
OS2SubYSize: 600
OS2SubXOff: -15
OS2SubYOff: 75
OS2SupXSize: 650
OS2SupYSize: 600
OS2SupXOff: 70
OS2SupYOff: 350
OS2StrikeYSize: 50
OS2StrikeYPos: 322
OS2CapHeight: 700
OS2XHeight: 538
OS2Vendor: 'ULA '
OS2CodePages: 20000193.00000000
OS2UnicodeRanges: 20000007.00000001.00000000.00000000
Lookup: 1 0 0 "'rtla' Right to Left Alternates lookup 0" { "'rtla' Right to Left Alternates lookup 0 subtable"  } ['rtla' ('DFLT' <'dflt' > ) ]
Lookup: 1 0 0 "<10,2> Inferiors lookup 1" { "<10,2> Inferiors lookup 1 subtable" ("inferior") } [<10,2> ('DFLT' <'dflt' > ) 'subs' ('DFLT' <'dflt' > ) ]
Lookup: 1 0 0 "<10,1> Superiors lookup 2" { "<10,1> Superiors lookup 2 subtable" ("superior") } [<10,1> ('DFLT' <'dflt' > ) 'sups' ('DFLT' <'dflt' > ) ]
Lookup: 1 0 0 "<11,2> Diagonal Fractions lookup 3" { "<11,2> Diagonal Fractions lookup 3 subtable"  } [<11,2> ('DFLT' <'dflt' > ) 'frac' ('DFLT' <'dflt' > ) ]

StartChar: .notdef
Encoding: 65536 -1 0
Width: 587
Flags: W
LayerCount: 2
Fore
SplineSet
40 0 m 1,0,-1
 40 700 l 1,1,-1
 547 700 l 1,2,-1
 547 0 l 1,3,-1
 40 0 l 1,0,-1
120 70 m 1,4,-1
 467 70 l 1,5,-1
 467 630 l 1,6,-1
 120 630 l 1,7,-1
 120 70 l 1,4,-1
EndSplineSet
EndChar

StartChar: exclam
Encoding: 33 33 5
Width: 243
Flags: W
LayerCount: 2
Fore
SplineSet
286 695 m 1,0,-1
 251 518 l 1,1,-1
 169 236 l 1,2,-1
 74 236 l 1,3,-1
 105 518 l 1,4,-1
 140 695 l 1,5,-1
 286 695 l 1,0,-1
150 130.5 m 128,-1,7
 169 111 169 111 169 79 c 0,8,9
 169 41 169 41 145 16 c 128,-1,10
 121 -9 121 -9 85 -9 c 0,11,12
 54 -9 54 -9 34.5 11 c 128,-1,13
 15 31 15 31 15 63 c 0,14,15
 15 101 15 101 39 125.5 c 128,-1,16
 63 150 63 150 99 150 c 0,17,6
 131 150 131 150 150 130.5 c 128,-1,7
EndSplineSet
Substitution2: "<3,3> Small Caps in Latin lookup 11 subtable" exclam.sc
EndChar

StartChar: numbersign
Encoding: 35 35 7
Width: 692
Flags: W
LayerCount: 2
Fore
SplineSet
703 422 m 1,0,-1
 564 422 l 1,1,-1
 532 271 l 1,2,-1
 668 271 l 1,3,-1
 646 160 l 1,4,-1
 509 160 l 1,5,-1
 475 0 l 1,6,-1
 364 0 l 1,7,-1
 398 160 l 1,8,-1
 245 160 l 1,9,-1
 211 0 l 1,10,-1
 101 0 l 1,11,-1
 135 160 l 1,12,-1
 -2 160 l 1,13,-1
 20 271 l 1,14,-1
 158 271 l 1,15,-1
 190 422 l 1,16,-1
 54 422 l 1,17,-1
 75 533 l 1,18,-1
 213 533 l 1,19,-1
 248 700 l 1,20,-1
 360 700 l 1,21,-1
 324 533 l 1,22,-1
 477 533 l 1,23,-1
 512 700 l 1,24,-1
 623 700 l 1,25,-1
 588 533 l 1,26,-1
 724 533 l 1,27,-1
 703 422 l 1,0,-1
421 271 m 1,28,-1
 453 422 l 1,29,-1
 301 422 l 1,30,-1
 269 271 l 1,31,-1
 421 271 l 1,28,-1
EndSplineSet
EndChar

StartChar: dollar
Encoding: 36 36 8
Width: 627
Flags: W
LayerCount: 2
Fore
SplineSet
275 458.5 m 128,-1,1
 306 441 306 441 373 421 c 0,2,3
 439 400 439 400 480.5 381 c 128,-1,4
 522 362 522 362 552 325 c 128,-1,5
 582 288 582 288 582 229 c 0,6,7
 582 159 582 159 546.5 107 c 128,-1,8
 511 55 511 55 449 27 c 128,-1,9
 387 -1 387 -1 309 -5 c 1,10,-1
 281 -150 l 1,11,-1
 166 -150 l 1,12,-1
 196 3 l 1,13,14
 136 15 136 15 82 41.5 c 128,-1,15
 28 68 28 68 -13 106 c 1,16,-1
 63 234 l 1,17,18
 111 187 111 187 177.5 158 c 128,-1,19
 244 129 244 129 300 129 c 0,20,21
 351 129 351 129 381 148.5 c 128,-1,22
 411 168 411 168 411 203 c 0,23,24
 411 237 411 237 379 255 c 128,-1,25
 347 273 347 273 279 292 c 0,26,27
 213 311 213 311 172.5 329 c 128,-1,28
 132 347 132 347 102.5 382.5 c 128,-1,29
 73 418 73 418 73 476 c 0,30,31
 73 541 73 541 106 591.5 c 128,-1,32
 139 642 139 642 198.5 672 c 128,-1,33
 258 702 258 702 336 706 c 1,34,-1
 362 845 l 1,35,-1
 478 845 l 1,36,-1
 450 699 l 1,37,38
 548 683 548 683 624 631 c 1,39,-1
 550 500 l 1,40,41
 499 532 499 532 440.5 551.5 c 128,-1,42
 382 571 382 571 340 571 c 0,43,44
 296 571 296 571 270 555.5 c 128,-1,45
 244 540 244 540 244 509 c 0,46,0
 244 476 244 476 275 458.5 c 128,-1,1
EndSplineSet
EndChar

StartChar: ampersand
Encoding: 38 38 10
Width: 686
Flags: W
LayerCount: 2
Fore
SplineSet
551 -24 m 1,0,-1
 466 73 l 1,1,2
 364 -7 364 -7 254 -7 c 0,3,4
 193 -7 193 -7 144.5 16 c 128,-1,5
 96 39 96 39 68.5 80 c 128,-1,6
 41 121 41 121 41 173 c 0,7,8
 41 247 41 247 86.5 297 c 128,-1,9
 132 347 132 347 212 390 c 1,10,11
 172 460 172 460 172 515 c 0,12,13
 172 572 172 572 198 615.5 c 128,-1,14
 224 659 224 659 272 683 c 128,-1,15
 320 707 320 707 383 707 c 0,16,17
 463 707 463 707 512 668 c 128,-1,18
 561 629 561 629 561 567 c 0,19,20
 561 515 561 515 534.5 476 c 128,-1,21
 508 437 508 437 468 410.5 c 128,-1,22
 428 384 428 384 367 355 c 1,23,24
 409 300 409 300 467 235 c 1,25,26
 507 287 507 287 539 357 c 1,27,-1
 629 276 l 1,28,29
 592 206 592 206 544 148 c 1,30,-1
 594 93 l 1,31,-1
 635 48 l 1,32,-1
 551 -24 l 1,0,-1
312 440 m 1,34,35
 375 471 375 471 407.5 500 c 128,-1,36
 440 529 440 529 440 568 c 0,37,38
 440 591 440 591 425.5 604 c 128,-1,39
 411 617 411 617 385 617 c 0,40,41
 344 617 344 617 317 587.5 c 128,-1,42
 290 558 290 558 290 516 c 0,43,33
 290 486 290 486 312 440 c 1,34,35
391 157 m 1,45,46
 305 259 305 259 268 307 c 1,47,48
 220 281 220 281 193.5 252 c 128,-1,49
 167 223 167 223 167 184 c 0,50,51
 167 149 167 149 193 127 c 128,-1,52
 219 105 219 105 260 105 c 0,53,44
 325 105 325 105 391 157 c 1,45,46
EndSplineSet
Substitution2: "<3,3> Small Caps in Latin lookup 11 subtable" ampersand.sc
EndChar

StartChar: quotesingle
Encoding: 39 39 11
Width: 237
Flags: W
LayerCount: 2
Fore
SplineSet
262 700 m 1,0,-1
 210 434 l 1,1,-1
 94 434 l 1,2,-1
 146 700 l 1,3,-1
 262 700 l 1,0,-1
EndSplineSet
Substitution2: "<3,3> Small Caps in Latin lookup 11 subtable" quotesingle.sc
EndChar

StartChar: parenleft
Encoding: 40 40 12
Width: 338
Flags: W
LayerCount: 2
Fore
SplineSet
296.5 532.5 m 128,-1,1
 242 419 242 419 217 296 c 0,2,3
 200 214 200 214 200 127 c 0,4,5
 200 -19 200 -19 248 -124 c 1,6,-1
 118 -124 l 1,7,8
 60 -2 60 -2 60 152 c 0,9,10
 60 238 60 238 77 322 c 0,11,12
 101 441 101 441 154.5 550.5 c 128,-1,13
 208 660 208 660 286 742 c 1,14,-1
 426 742 l 1,15,0
 351 646 351 646 296.5 532.5 c 128,-1,1
EndSplineSet
Substitution2: "'rtla' Right to Left Alternates lookup 0 subtable" parenright
EndChar

StartChar: parenright
Encoding: 41 41 13
Width: 355
Flags: W
LayerCount: 2
Fore
SplineSet
123.5 84.5 m 128,-1,1
 178 198 178 198 203 321 c 0,2,3
 220 403 220 403 220 490 c 0,4,5
 220 636 220 636 172 741 c 1,6,-1
 302 741 l 1,7,8
 360 619 360 619 360 465 c 0,9,10
 360 379 360 379 343 295 c 0,11,12
 319 176 319 176 265.5 66.5 c 128,-1,13
 212 -43 212 -43 134 -125 c 1,14,-1
 -6 -125 l 1,15,0
 69 -29 69 -29 123.5 84.5 c 128,-1,1
EndSplineSet
Substitution2: "'rtla' Right to Left Alternates lookup 0 subtable" parenleft
EndChar

StartChar: asterisk
Encoding: 42 42 14
Width: 387
Flags: W
LayerCount: 2
Fore
SplineSet
373 437 m 1,0,-1
 288 487 l 1,1,-1
 290 390 l 1,2,-1
 212 390 l 1,3,-1
 214 488 l 1,4,-1
 129 438 l 1,5,-1
 90 507 l 1,6,-1
 176 555 l 1,7,-1
 90 602 l 1,8,-1
 129 673 l 1,9,-1
 213 622 l 1,10,-1
 212 720 l 1,11,-1
 290 720 l 1,12,-1
 289 622 l 1,13,-1
 373 672 l 1,14,-1
 411 602 l 1,15,-1
 325 555 l 1,16,-1
 411 507 l 1,17,-1
 373 437 l 1,0,-1
EndSplineSet
EndChar

StartChar: plus
Encoding: 43 43 15
Width: 506
Flags: W
LayerCount: 2
Fore
SplineSet
494 377 m 1,0,-1
 474 275 l 1,1,-1
 303 275 l 1,2,-1
 270 105 l 1,3,-1
 171 105 l 1,4,-1
 205 275 l 1,5,-1
 35 275 l 1,6,-1
 54 377 l 1,7,-1
 225 377 l 1,8,-1
 259 547 l 1,9,-1
 357 547 l 1,10,-1
 324 377 l 1,11,-1
 494 377 l 1,0,-1
EndSplineSet
EndChar

StartChar: comma
Encoding: 44 44 16
Width: 223
Flags: W
LayerCount: 2
Fore
SplineSet
124 130 m 128,-1,1
 144 111 144 111 144 79 c 0,2,3
 144 60 144 60 137 44.5 c 128,-1,4
 130 29 130 29 117 9 c 2,5,-1
 36 -118 l 1,6,-1
 -39 -118 l 1,7,-1
 19 8 l 1,8,9
 -8 26 -8 26 -8 63 c 0,10,11
 -8 101 -8 101 15.5 125 c 128,-1,12
 39 149 39 149 75 149 c 0,13,0
 104 149 104 149 124 130 c 128,-1,1
EndSplineSet
EndChar

StartChar: hyphen
Encoding: 45 45 17
Width: 373
Flags: W
LayerCount: 2
Fore
SplineSet
333 357 m 1,0,-1
 313 255 l 1,1,-1
 55 255 l 1,2,-1
 75 357 l 1,3,-1
 333 357 l 1,0,-1
EndSplineSet
EndChar

StartChar: period
Encoding: 46 46 18
Width: 238
Flags: W
LayerCount: 2
Fore
SplineSet
137 130.5 m 128,-1,1
 156 111 156 111 156 79 c 0,2,3
 156 41 156 41 132 16 c 128,-1,4
 108 -9 108 -9 72 -9 c 0,5,6
 41 -9 41 -9 21.5 11 c 128,-1,7
 2 31 2 31 2 63 c 0,8,9
 2 101 2 101 26 125.5 c 128,-1,10
 50 150 50 150 86 150 c 0,11,0
 118 150 118 150 137 130.5 c 128,-1,1
EndSplineSet
Substitution2: "<3,3> Small Caps in Latin lookup 11 subtable" period.sc
EndChar

StartChar: slash
Encoding: 47 47 19
Width: 357
Flags: W
LayerCount: 2
Fore
SplineSet
450 812 m 1,0,-1
 68 -112 l 1,1,-1
 -61 -112 l 1,2,-1
 321 812 l 1,3,-1
 450 812 l 1,0,-1
EndSplineSet
Substitution2: "<11,2> Diagonal Fractions lookup 3 subtable" fraction
EndChar

StartChar: zero
Encoding: 48 48 20
Width: 751
Flags: W
LayerCount: 2
Fore
SplineSet
646 637.5 m 128,-1,1
 709 569 709 569 709 441 c 0,2,3
 709 308 709 308 663 206.5 c 128,-1,4
 617 105 617 105 530 49.5 c 128,-1,5
 443 -6 443 -6 323 -6 c 0,6,7
 202 -6 202 -6 138 63 c 128,-1,8
 74 132 74 132 74 260 c 0,9,10
 74 394 74 394 120 494.5 c 128,-1,11
 166 595 166 595 253.5 650.5 c 128,-1,12
 341 706 341 706 462 706 c 256,13,0
 583 706 583 706 646 637.5 c 128,-1,1
287.5 502.5 m 128,-1,15
 235 420 235 420 235 260 c 0,16,17
 235 115 235 115 346 115 c 0,18,19
 444 115 444 115 496 198 c 128,-1,20
 548 281 548 281 548 441 c 0,21,22
 548 514 548 514 521 549.5 c 128,-1,23
 494 585 494 585 439 585 c 0,24,14
 340 585 340 585 287.5 502.5 c 128,-1,15
EndSplineSet
Substitution2: "<21,0> Lower Case Numbers lookup 10 subtable" zero.osf
Substitution2: "<6,0> Monospaced Numbers lookup 9 subtable" zero.tf
Substitution2: "<11,2> Diagonal Fractions lookup 4 subtable" zero.numr
Substitution2: "<10,1> Superiors lookup 2 subtable" uni2070
Substitution2: "<10,2> Inferiors lookup 1 subtable" uni2080
EndChar

StartChar: one
Encoding: 49 49 21
Width: 436
Flags: W
LayerCount: 2
Fore
SplineSet
117 700 m 1,0,-1
 416 700 l 1,1,-1
 280 0 l 1,2,-1
 122 0 l 1,3,-1
 232 566 l 1,4,-1
 92 566 l 1,5,-1
 117 700 l 1,0,-1
EndSplineSet
Substitution2: "<21,0> Lower Case Numbers lookup 10 subtable" one.osf
Substitution2: "<6,0> Monospaced Numbers lookup 9 subtable" one.tf
Substitution2: "<11,2> Diagonal Fractions lookup 4 subtable" one.numr
Substitution2: "<10,1> Superiors lookup 2 subtable" uni00B9
Substitution2: "<10,2> Inferiors lookup 1 subtable" uni2081
EndChar

StartChar: two
Encoding: 50 50 22
Width: 639
Flags: W
LayerCount: 2
Fore
SplineSet
560.5 423 m 128,-1,1
 514 364 514 364 432 294 c 2,2,-1
 239 132 l 1,3,-1
 559 132 l 1,4,-1
 534 0 l 1,5,-1
 8 0 l 1,6,-1
 28 109 l 1,7,-1
 340 376 l 2,8,9
 383 412 383 412 410.5 446.5 c 128,-1,10
 438 481 438 481 442 506 c 0,11,12
 443 510 443 510 443 518 c 0,13,14
 443 544 443 544 421 558.5 c 128,-1,15
 399 573 399 573 359 573 c 0,16,17
 315 573 315 573 259 550 c 128,-1,18
 203 527 203 527 148 486 c 1,19,-1
 108 604 l 1,20,21
 267 707 267 707 407 707 c 0,22,23
 502 707 502 707 558 666.5 c 128,-1,24
 614 626 614 626 614 558 c 0,25,26
 614 544 614 544 613 537 c 0,27,0
 607 482 607 482 560.5 423 c 128,-1,1
EndSplineSet
Substitution2: "<21,0> Lower Case Numbers lookup 10 subtable" two.osf
Substitution2: "<6,0> Monospaced Numbers lookup 9 subtable" two.tf
Substitution2: "<11,2> Diagonal Fractions lookup 4 subtable" two.numr
Substitution2: "<10,1> Superiors lookup 2 subtable" uni00B2
Substitution2: "<10,2> Inferiors lookup 1 subtable" uni2082
EndChar

StartChar: three
Encoding: 51 51 23
Width: 640
Flags: W
LayerCount: 2
Fore
SplineSet
618 606 m 1,0,-1
 379 416 l 1,1,-1
 414 411 l 2,2,3
 491 401 491 401 536 359 c 128,-1,4
 581 317 581 317 581 251 c 0,5,6
 581 178 581 178 539 119 c 128,-1,7
 497 60 497 60 422 26.5 c 128,-1,8
 347 -7 347 -7 252 -7 c 0,9,10
 179 -7 179 -7 111 15.5 c 128,-1,11
 43 38 43 38 0 75 c 1,12,-1
 82 192 l 1,13,14
 119 156 119 156 165 137 c 128,-1,15
 211 118 211 118 263 118 c 0,16,17
 338 118 338 118 381 150 c 128,-1,18
 424 182 424 182 424 234 c 0,19,20
 424 273 424 273 392.5 293.5 c 128,-1,21
 361 314 361 314 302 314 c 2,22,-1
 190 314 l 1,23,-1
 206 404 l 1,24,-1
 414 573 l 1,25,-1
 134 573 l 1,26,-1
 157 701 l 1,27,-1
 636 701 l 1,28,-1
 618 606 l 1,0,-1
EndSplineSet
Substitution2: "<21,0> Lower Case Numbers lookup 10 subtable" three.osf
Substitution2: "<6,0> Monospaced Numbers lookup 9 subtable" three.tf
Substitution2: "<11,2> Diagonal Fractions lookup 4 subtable" three.numr
Substitution2: "<10,1> Superiors lookup 2 subtable" uni00B3
Substitution2: "<10,2> Inferiors lookup 1 subtable" uni2083
EndChar

StartChar: four
Encoding: 52 52 24
Width: 647
Flags: W
LayerCount: 2
Fore
SplineSet
613 285 m 1,0,-1
 589 158 l 1,1,-1
 493 158 l 1,2,-1
 462 0 l 1,3,-1
 316 0 l 1,4,-1
 347 158 l 1,5,-1
 21 158 l 1,6,-1
 42 269 l 1,7,-1
 340 700 l 1,8,-1
 491 700 l 1,9,-1
 210 285 l 1,10,-1
 372 285 l 1,11,-1
 402 440 l 1,12,-1
 548 440 l 1,13,-1
 518 285 l 1,14,-1
 613 285 l 1,0,-1
EndSplineSet
Substitution2: "<21,0> Lower Case Numbers lookup 10 subtable" four.osf
Substitution2: "<6,0> Monospaced Numbers lookup 9 subtable" four.tf
Substitution2: "<11,2> Diagonal Fractions lookup 4 subtable" four.numr
Substitution2: "<10,1> Superiors lookup 2 subtable" uni2074
Substitution2: "<10,2> Inferiors lookup 1 subtable" uni2084
EndChar

StartChar: five
Encoding: 53 53 25
Width: 658
Flags: W
LayerCount: 2
Fore
SplineSet
312 568 m 1,0,-1
 288 445 l 1,1,-1
 365 445 l 2,2,3
 472 445 472 445 534 395.5 c 128,-1,4
 596 346 596 346 596 265 c 0,5,6
 596 188 596 188 553.5 126 c 128,-1,7
 511 64 511 64 435.5 28.5 c 128,-1,8
 360 -7 360 -7 265 -7 c 0,9,10
 197 -7 197 -7 128.5 16.5 c 128,-1,11
 60 40 60 40 12 78 c 1,12,-1
 94 196 l 1,13,14
 131 160 131 160 177 140 c 128,-1,15
 223 120 223 120 272 120 c 0,16,17
 340 120 340 120 381 153 c 128,-1,18
 422 186 422 186 422 239 c 0,19,20
 422 276 422 276 393 296.5 c 128,-1,21
 364 317 364 317 306 317 c 0,22,23
 269 317 269 317 208 315.5 c 128,-1,24
 147 314 147 314 116 311 c 1,25,-1
 191 700 l 1,26,-1
 651 700 l 1,27,-1
 627 568 l 1,28,-1
 312 568 l 1,0,-1
EndSplineSet
Substitution2: "<21,0> Lower Case Numbers lookup 10 subtable" five.osf
Substitution2: "<6,0> Monospaced Numbers lookup 9 subtable" five.tf
Substitution2: "<11,2> Diagonal Fractions lookup 4 subtable" five.numr
Substitution2: "<10,1> Superiors lookup 2 subtable" uni2075
Substitution2: "<10,2> Inferiors lookup 1 subtable" uni2085
EndChar

StartChar: six
Encoding: 54 54 26
Width: 673
Flags: W
LayerCount: 2
Fore
SplineSet
132 63 m 128,-1,1
 70 133 70 133 70 256 c 0,2,3
 70 384 70 384 121.5 487 c 128,-1,4
 173 590 173 590 263 648.5 c 128,-1,5
 353 707 353 707 464 707 c 0,6,7
 521 707 521 707 577.5 692 c 128,-1,8
 634 677 634 677 672 651 c 1,9,-1
 591 539 l 1,10,11
 565 560 565 560 528 571.5 c 128,-1,12
 491 583 491 583 451 583 c 0,13,14
 363 583 363 583 307.5 527.5 c 128,-1,15
 252 472 252 472 236 374 c 1,16,17
 270 415 270 415 318.5 436.5 c 128,-1,18
 367 458 367 458 427 458 c 0,19,20
 514 458 514 458 563 409 c 128,-1,21
 612 360 612 360 612 277 c 256,22,23
 612 194 612 194 572.5 129.5 c 128,-1,24
 533 65 533 65 463.5 29 c 128,-1,25
 394 -7 394 -7 307 -7 c 0,26,0
 194 -7 194 -7 132 63 c 128,-1,1
426.5 158.5 m 128,-1,28
 466 195 466 195 466 255 c 0,29,30
 466 295 466 295 441.5 318 c 128,-1,31
 417 341 417 341 372 341 c 0,32,33
 312 341 312 341 272.5 307 c 128,-1,34
 233 273 233 273 227 223 c 0,35,36
 225 211 225 211 225 205 c 0,37,38
 225 169 225 169 250 145.5 c 128,-1,39
 275 122 275 122 324 122 c 0,40,27
 387 122 387 122 426.5 158.5 c 128,-1,28
EndSplineSet
Substitution2: "<21,0> Lower Case Numbers lookup 10 subtable" six.osf
Substitution2: "<6,0> Monospaced Numbers lookup 9 subtable" six.tf
Substitution2: "<11,2> Diagonal Fractions lookup 4 subtable" six.numr
Substitution2: "<10,1> Superiors lookup 2 subtable" uni2076
Substitution2: "<10,2> Inferiors lookup 1 subtable" uni2086
EndChar

StartChar: seven
Encoding: 55 55 27
Width: 630
Flags: W
LayerCount: 2
Fore
SplineSet
131 700 m 1,0,-1
 680 700 l 1,1,-1
 659 587 l 1,2,-1
 268 0 l 1,3,-1
 101 0 l 1,4,-1
 478 568 l 1,5,-1
 247 568 l 1,6,-1
 227 470 l 1,7,-1
 87 470 l 1,8,-1
 131 700 l 1,0,-1
EndSplineSet
Substitution2: "<21,0> Lower Case Numbers lookup 10 subtable" seven.osf
Substitution2: "<6,0> Monospaced Numbers lookup 9 subtable" seven.tf
Substitution2: "<11,2> Diagonal Fractions lookup 4 subtable" seven.numr
Substitution2: "<10,1> Superiors lookup 2 subtable" uni2077
Substitution2: "<10,2> Inferiors lookup 1 subtable" uni2087
EndChar

StartChar: eight
Encoding: 56 56 28
Width: 668
Flags: W
LayerCount: 2
Fore
SplineSet
572.5 665 m 128,-1,1
 628 623 628 623 628 550 c 0,2,3
 628 494 628 494 594.5 447.5 c 128,-1,4
 561 401 561 401 505 374 c 1,5,6
 549 355 549 355 574.5 315.5 c 128,-1,7
 600 276 600 276 600 227 c 0,8,9
 600 158 600 158 559.5 105 c 128,-1,10
 519 52 519 52 446.5 22.5 c 128,-1,11
 374 -7 374 -7 280 -7 c 0,12,13
 167 -7 167 -7 103.5 39 c 128,-1,14
 40 85 40 85 40 164 c 0,15,16
 40 234 40 234 87 290.5 c 128,-1,17
 134 347 134 347 212 374 c 1,18,19
 178 394 178 394 159 428 c 128,-1,20
 140 462 140 462 140 501 c 0,21,22
 140 561 140 561 175 608 c 128,-1,23
 210 655 210 655 273.5 681 c 128,-1,24
 337 707 337 707 418 707 c 0,25,0
 517 707 517 707 572.5 665 c 128,-1,1
304.5 570.5 m 128,-1,27
 270 543 270 543 270 496 c 0,28,29
 270 463 270 463 294.5 445 c 128,-1,30
 319 427 319 427 364 427 c 0,31,32
 424 427 424 427 458 454 c 128,-1,33
 492 481 492 481 492 528 c 0,34,35
 492 562 492 562 468 580 c 128,-1,36
 444 598 444 598 398 598 c 0,37,26
 339 598 339 598 304.5 570.5 c 128,-1,27
232 277 m 128,-1,39
 192 246 192 246 192 193 c 0,40,41
 192 154 192 154 220.5 133 c 128,-1,42
 249 112 249 112 303 112 c 0,43,44
 373 112 373 112 413 143 c 128,-1,45
 453 174 453 174 453 228 c 0,46,47
 453 266 453 266 424.5 287 c 128,-1,48
 396 308 396 308 342 308 c 0,49,38
 272 308 272 308 232 277 c 128,-1,39
EndSplineSet
Substitution2: "<21,0> Lower Case Numbers lookup 10 subtable" eight.osf
Substitution2: "<6,0> Monospaced Numbers lookup 9 subtable" eight.tf
Substitution2: "<11,2> Diagonal Fractions lookup 4 subtable" eight.numr
Substitution2: "<10,1> Superiors lookup 2 subtable" uni2078
Substitution2: "<10,2> Inferiors lookup 1 subtable" uni2088
EndChar

StartChar: nine
Encoding: 57 57 29
Width: 671
Flags: W
LayerCount: 2
Fore
SplineSet
176.5 128.5 m 128,-1,1
 213 117 213 117 253 117 c 0,2,3
 340 117 340 117 395 173 c 128,-1,4
 450 229 450 229 468 327 c 1,5,6
 434 286 434 286 385.5 264 c 128,-1,7
 337 242 337 242 278 242 c 0,8,9
 191 242 191 242 142.5 291 c 128,-1,10
 94 340 94 340 94 424 c 0,11,12
 94 507 94 507 133.5 571 c 128,-1,13
 173 635 173 635 242 671 c 128,-1,14
 311 707 311 707 398 707 c 0,15,16
 510 707 510 707 571.5 637.5 c 128,-1,17
 633 568 633 568 633 445 c 0,18,19
 633 317 633 317 582 213.5 c 128,-1,20
 531 110 531 110 441 51.5 c 128,-1,21
 351 -7 351 -7 239 -7 c 0,22,23
 184 -7 184 -7 128 8.5 c 128,-1,24
 72 24 72 24 33 50 c 1,25,-1
 114 162 l 1,26,0
 140 140 140 140 176.5 128.5 c 128,-1,1
278 542 m 128,-1,28
 239 505 239 505 239 445 c 0,29,30
 239 405 239 405 263.5 382.5 c 128,-1,31
 288 360 288 360 332 360 c 0,32,33
 392 360 392 360 431.5 394 c 128,-1,34
 471 428 471 428 477 478 c 0,35,36
 478 484 478 484 478 495 c 0,37,38
 478 531 478 531 453.5 555 c 128,-1,39
 429 579 429 579 380 579 c 0,40,27
 317 579 317 579 278 542 c 128,-1,28
EndSplineSet
Substitution2: "<21,0> Lower Case Numbers lookup 10 subtable" nine.osf
Substitution2: "<6,0> Monospaced Numbers lookup 9 subtable" nine.tf
Substitution2: "<11,2> Diagonal Fractions lookup 4 subtable" nine.numr
Substitution2: "<10,1> Superiors lookup 2 subtable" uni2079
Substitution2: "<10,2> Inferiors lookup 1 subtable" uni2089
EndChar

StartChar: less
Encoding: 60 60 32
Width: 508
Flags: W
LayerCount: 2
Fore
SplineSet
534 575 m 1,0,-1
 512 454 l 1,1,-1
 146 320 l 1,2,-1
 456 181 l 1,3,-1
 436 74 l 1,4,-1
 35 260 l 1,5,-1
 58 390 l 1,6,-1
 534 575 l 1,0,-1
EndSplineSet
Substitution2: "'rtla' Right to Left Alternates lookup 0 subtable" greater
EndChar

StartChar: equal
Encoding: 61 61 33
Width: 506
Flags: W
LayerCount: 2
Fore
SplineSet
516 484 m 1,0,-1
 496 382 l 1,1,-1
 57 382 l 1,2,-1
 76 484 l 1,3,-1
 516 484 l 1,0,-1
473 270 m 1,4,-1
 453 168 l 1,5,-1
 14 168 l 1,6,-1
 34 270 l 1,7,-1
 473 270 l 1,4,-1
EndSplineSet
EndChar

StartChar: greater
Encoding: 62 62 34
Width: 508
Flags: W
LayerCount: 2
Fore
SplineSet
-1 81 m 1,0,-1
 21 202 l 1,1,-1
 387 336 l 1,2,-1
 77 475 l 1,3,-1
 97 582 l 1,4,-1
 498 396 l 1,5,-1
 475 266 l 1,6,-1
 -1 81 l 1,0,-1
EndSplineSet
Substitution2: "'rtla' Right to Left Alternates lookup 0 subtable" less
EndChar

StartChar: question
Encoding: 63 63 35
Width: 462
Flags: W
LayerCount: 2
Fore
SplineSet
125.5 643 m 128,-1,1
 190 701 190 701 292 701 c 0,2,3
 382 701 382 701 433.5 658.5 c 128,-1,4
 485 616 485 616 485 542 c 0,5,6
 485 502 485 502 470.5 469.5 c 128,-1,7
 456 437 456 437 435.5 413.5 c 128,-1,8
 415 390 415 390 381 358 c 0,9,10
 341 321 341 321 321 295 c 128,-1,11
 301 269 301 269 297 236 c 1,12,-1
 181 236 l 1,13,14
 188 293 188 293 212 329.5 c 128,-1,15
 236 366 236 366 276 404 c 0,16,17
 309 436 309 436 324.5 459 c 128,-1,18
 340 482 340 482 340 513 c 0,19,20
 340 574 340 574 268 574 c 0,21,22
 181 574 181 574 166 480 c 1,23,-1
 47 481 l 1,24,0
 61 585 61 585 125.5 643 c 128,-1,1
286 130.5 m 128,-1,26
 305 111 305 111 305 79 c 0,27,28
 305 41 305 41 281 16 c 128,-1,29
 257 -9 257 -9 221 -9 c 0,30,31
 190 -9 190 -9 170.5 11 c 128,-1,32
 151 31 151 31 151 63 c 0,33,34
 151 101 151 101 175 125.5 c 128,-1,35
 199 150 199 150 235 150 c 0,36,25
 267 150 267 150 286 130.5 c 128,-1,26
EndSplineSet
Substitution2: "<3,3> Small Caps in Latin lookup 11 subtable" question.sc
EndChar

StartChar: at
Encoding: 64 64 36
Width: 941
Flags: W
LayerCount: 2
Fore
SplineSet
735.5 652.5 m 128,-1,1
 822 605 822 605 869.5 520 c 128,-1,2
 917 435 917 435 917 328 c 0,3,4
 917 239 917 239 886 170.5 c 128,-1,5
 855 102 855 102 802.5 64.5 c 128,-1,6
 750 27 750 27 686 27 c 0,7,8
 639 27 639 27 611.5 46.5 c 128,-1,9
 584 66 584 66 580 105 c 1,10,-1
 580 120 l 1,11,12
 546 79 546 79 502.5 58.5 c 128,-1,13
 459 38 459 38 411 38 c 0,14,15
 358 38 358 38 314 63.5 c 128,-1,16
 270 89 270 89 244 135 c 128,-1,17
 218 181 218 181 218 240 c 0,18,19
 218 310 218 310 250 371 c 128,-1,20
 282 432 282 432 338.5 469 c 128,-1,21
 395 506 395 506 464 506 c 0,22,23
 502 506 502 506 531 493 c 128,-1,24
 560 480 560 480 577 464 c 128,-1,25
 594 448 594 448 598 439 c 1,26,-1
 606 495 l 1,27,-1
 723 495 l 1,28,-1
 675 155 l 2,29,30
 674 150 674 150 674 142 c 0,31,32
 674 105 674 105 708 105 c 0,33,34
 735 105 735 105 761.5 132.5 c 128,-1,35
 788 160 788 160 805.5 209 c 128,-1,36
 823 258 823 258 823 318 c 0,37,38
 823 403 823 403 788 470 c 128,-1,39
 753 537 753 537 685.5 575 c 128,-1,40
 618 613 618 613 525 613 c 0,41,42
 420 613 420 613 326.5 560.5 c 128,-1,43
 233 508 233 508 176.5 419 c 128,-1,44
 120 330 120 330 120 227 c 0,45,46
 120 144 120 144 158 78.5 c 128,-1,47
 196 13 196 13 263.5 -24 c 128,-1,48
 331 -61 331 -61 418 -61 c 0,49,50
 464 -61 464 -61 518 -45.5 c 128,-1,51
 572 -30 572 -30 616 -1 c 1,52,-1
 650 -78 l 1,53,54
 602 -110 602 -110 533 -130 c 128,-1,55
 464 -150 464 -150 405 -150 c 0,56,57
 294 -150 294 -150 208 -102.5 c 128,-1,58
 122 -55 122 -55 74 28.5 c 128,-1,59
 26 112 26 112 26 217 c 0,60,61
 26 348 26 348 96.5 459 c 128,-1,62
 167 570 167 570 285 635 c 128,-1,63
 403 700 403 700 537 700 c 0,64,0
 649 700 649 700 735.5 652.5 c 128,-1,1
409.5 377.5 m 128,-1,66
 381 358 381 358 364.5 325 c 128,-1,67
 348 292 348 292 348 254 c 0,68,69
 348 207 348 207 372 176 c 128,-1,70
 396 145 396 145 438 145 c 0,71,72
 476 145 476 145 505.5 165.5 c 128,-1,73
 535 186 535 186 551.5 220 c 128,-1,74
 568 254 568 254 568 293 c 0,75,76
 568 338 568 338 542 367.5 c 128,-1,77
 516 397 516 397 472 397 c 0,78,65
 438 397 438 397 409.5 377.5 c 128,-1,66
EndSplineSet
EndChar

StartChar: A
Encoding: 65 65 37
Width: 759
Flags: W
LayerCount: 2
Fore
SplineSet
539 0 m 1,0,-1
 507 136 l 1,1,-1
 183 136 l 1,2,-1
 106 0 l 1,3,-1
 -57 0 l 1,4,-1
 363 700 l 1,5,-1
 525 700 l 1,6,-1
 709 0 l 1,7,-1
 539 0 l 1,0,-1
256 263 m 1,8,-1
 478 263 l 1,9,-1
 413 540 l 1,10,-1
 256 263 l 1,8,-1
EndSplineSet
Substitution2: "<11,2> Diagonal Fractions lookup 7 nested-substitutions 0 subtable" ordfeminine
Substitution2: "<11,2> Diagonal Fractions lookup 5 nested-substitutions 0 subtable" ordfeminine
EndChar

StartChar: B
Encoding: 66 66 38
Width: 714
Flags: W
LayerCount: 2
Fore
SplineSet
633.5 321.5 m 128,-1,1
 664 283 664 283 664 227 c 0,2,3
 664 159 664 159 625.5 107.5 c 128,-1,4
 587 56 587 56 517 28 c 128,-1,5
 447 0 447 0 356 0 c 2,6,-1
 23 0 l 1,7,-1
 163 700 l 1,8,-1
 485 700 l 2,9,10
 588 700 588 700 646 660.5 c 128,-1,11
 704 621 704 621 704 552 c 0,12,13
 704 487 704 487 661 437.5 c 128,-1,14
 618 388 618 388 548 371 c 1,15,0
 603 360 603 360 633.5 321.5 c 128,-1,1
503 443 m 128,-1,17
 534 468 534 468 534 510 c 0,18,19
 534 539 534 539 513 555 c 128,-1,20
 492 571 492 571 452 571 c 2,21,-1
 295 571 l 1,22,-1
 264 418 l 1,23,-1
 420 418 l 2,24,16
 472 418 472 418 503 443 c 128,-1,17
463.5 155.5 m 128,-1,26
 501 182 501 182 501 227 c 0,27,28
 501 259 501 259 473.5 277 c 128,-1,29
 446 295 446 295 397 295 c 2,30,-1
 240 295 l 1,31,-1
 207 129 l 1,32,-1
 362 129 l 2,33,25
 426 129 426 129 463.5 155.5 c 128,-1,26
EndSplineSet
EndChar

StartChar: C
Encoding: 67 67 39
Width: 720
Flags: W
LayerCount: 2
Fore
SplineSet
603.5 679.5 m 128,-1,1
 674 648 674 648 721 594 c 1,2,-1
 618 481 l 1,3,4
 586 524 586 524 540 548.5 c 128,-1,5
 494 573 494 573 445 573 c 0,6,7
 382 573 382 573 327.5 541 c 128,-1,8
 273 509 273 509 241 454 c 128,-1,9
 209 399 209 399 209 333 c 0,10,11
 209 277 209 277 233.5 231.5 c 128,-1,12
 258 186 258 186 301.5 159.5 c 128,-1,13
 345 133 345 133 400 133 c 0,14,15
 447 133 447 133 498 155.5 c 128,-1,16
 549 178 549 178 591 216 c 1,17,-1
 674 115 l 1,18,19
 612 57 612 57 533 23 c 128,-1,20
 454 -11 454 -11 378 -11 c 0,21,22
 282 -11 282 -11 206.5 32 c 128,-1,23
 131 75 131 75 88.5 150.5 c 128,-1,24
 46 226 46 226 46 320 c 0,25,26
 46 428 46 428 101.5 518 c 128,-1,27
 157 608 157 608 251 659.5 c 128,-1,28
 345 711 345 711 457 711 c 0,29,0
 533 711 533 711 603.5 679.5 c 128,-1,1
EndSplineSet
EndChar

StartChar: D
Encoding: 68 68 40
Width: 771
Flags: W
LayerCount: 2
Fore
SplineSet
618 660 m 128,-1,1
 692 620 692 620 730 548.5 c 128,-1,2
 768 477 768 477 763 384 c 0,3,4
 757 273 757 273 699 185.5 c 128,-1,5
 641 98 641 98 544.5 49 c 128,-1,6
 448 0 448 0 332 0 c 2,7,-1
 24 0 l 1,8,-1
 163 700 l 1,9,-1
 444 700 l 2,10,0
 544 700 544 700 618 660 c 128,-1,1
551.5 516.5 m 128,-1,12
 502 567 502 567 421 567 c 2,13,-1
 296 567 l 1,14,-1
 209 133 l 1,15,-1
 361 133 l 2,16,17
 426 133 426 133 481 165.5 c 128,-1,18
 536 198 536 198 568.5 255.5 c 128,-1,19
 601 313 601 313 601 384 c 0,20,11
 601 466 601 466 551.5 516.5 c 128,-1,12
EndSplineSet
EndChar

StartChar: E
Encoding: 69 69 41
Width: 668
Flags: W
LayerCount: 2
Fore
SplineSet
670 569 m 1,0,-1
 295 569 l 1,1,-1
 264 417 l 1,2,-1
 602 417 l 1,3,-1
 576 286 l 1,4,-1
 238 286 l 1,5,-1
 207 132 l 1,6,-1
 592 132 l 1,7,-1
 567 0 l 1,8,-1
 23 0 l 1,9,-1
 163 700 l 1,10,-1
 696 700 l 1,11,-1
 670 569 l 1,0,-1
EndSplineSet
EndChar

StartChar: F
Encoding: 70 70 42
Width: 594
Flags: W
LayerCount: 2
Fore
SplineSet
640 569 m 1,0,-1
 295 569 l 1,1,-1
 261 396 l 1,2,-1
 576 396 l 1,3,-1
 551 265 l 1,4,-1
 235 265 l 1,5,-1
 182 0 l 1,6,-1
 23 0 l 1,7,-1
 163 700 l 1,8,-1
 666 700 l 1,9,-1
 640 569 l 1,0,-1
EndSplineSet
EndChar

StartChar: G
Encoding: 71 71 43
Width: 756
Flags: W
LayerCount: 2
Fore
SplineSet
453 402 m 1,0,-1
 734 402 l 1,1,-1
 670 81 l 1,2,3
 609 39 609 39 532 14 c 128,-1,4
 455 -11 455 -11 384 -11 c 0,5,6
 287 -11 287 -11 209.5 32 c 128,-1,7
 132 75 132 75 89 150 c 128,-1,8
 46 225 46 225 46 319 c 0,9,10
 46 427 46 427 102.5 517 c 128,-1,11
 159 607 159 607 255.5 659 c 128,-1,12
 352 711 352 711 466 711 c 0,13,14
 544 711 544 711 613 683 c 128,-1,15
 682 655 682 655 731 607 c 1,16,-1
 630 494 l 1,17,18
 596 531 596 531 549.5 552 c 128,-1,19
 503 573 503 573 452 573 c 0,20,21
 387 573 387 573 331 540.5 c 128,-1,22
 275 508 275 508 241.5 452.5 c 128,-1,23
 208 397 208 397 208 330 c 0,24,25
 208 273 208 273 234 226.5 c 128,-1,26
 260 180 260 180 305.5 153.5 c 128,-1,27
 351 127 351 127 408 127 c 0,28,29
 470 127 470 127 544 164 c 1,30,-1
 563 258 l 1,31,-1
 424 258 l 1,32,-1
 453 402 l 1,0,-1
EndSplineSet
EndChar

StartChar: H
Encoding: 72 72 44
Width: 851
Flags: W
LayerCount: 2
Fore
SplineSet
670 700 m 1,0,-1
 828 700 l 1,1,-1
 688 0 l 1,2,-1
 530 0 l 1,3,-1
 585 277 l 1,4,-1
 268 277 l 1,5,-1
 213 0 l 1,6,-1
 55 0 l 1,7,-1
 195 700 l 1,8,-1
 353 700 l 1,9,-1
 295 408 l 1,10,-1
 612 408 l 1,11,-1
 670 700 l 1,0,-1
EndSplineSet
EndChar

StartChar: I
Encoding: 73 73 45
Width: 313
Flags: W
LayerCount: 2
Fore
SplineSet
322 700 m 1,0,-1
 182 0 l 1,1,-1
 23 0 l 1,2,-1
 163 700 l 1,3,-1
 322 700 l 1,0,-1
EndSplineSet
EndChar

StartChar: J
Encoding: 74 74 46
Width: 524
Flags: W
LayerCount: 2
Fore
SplineSet
546 700 m 1,0,-1
 451 224 l 2,1,2
 429 115 429 115 354.5 54 c 128,-1,3
 280 -7 280 -7 171 -7 c 0,4,5
 102 -7 102 -7 49.5 21 c 128,-1,6
 -3 49 -3 49 -37 102 c 1,7,-1
 57 214 l 1,8,9
 85 176 85 176 121 156 c 128,-1,10
 157 136 157 136 190 136 c 0,11,12
 229 136 229 136 256 159.5 c 128,-1,13
 283 183 283 183 293 228 c 2,14,-1
 361 566 l 1,15,-1
 121 566 l 1,16,-1
 147 700 l 1,17,-1
 546 700 l 1,0,-1
EndSplineSet
EndChar

StartChar: K
Encoding: 75 75 47
Width: 736
Flags: W
LayerCount: 2
Fore
SplineSet
800 700 m 1,0,-1
 476 400 l 1,1,-1
 671 0 l 1,2,-1
 486 0 l 1,3,-1
 346 280 l 1,4,-1
 213 157 l 1,5,-1
 182 0 l 1,6,-1
 23 0 l 1,7,-1
 163 700 l 1,8,-1
 322 700 l 1,9,-1
 258 379 l 1,10,-1
 607 700 l 1,11,-1
 800 700 l 1,0,-1
EndSplineSet
EndChar

StartChar: L
Encoding: 76 76 48
Width: 552
Flags: W
LayerCount: 2
Fore
SplineSet
209 139 m 1,0,-1
 507 139 l 1,1,-1
 481 0 l 1,2,-1
 23 0 l 1,3,-1
 163 700 l 1,4,-1
 322 700 l 1,5,-1
 209 139 l 1,0,-1
EndSplineSet
EndChar

StartChar: M
Encoding: 77 77 49
Width: 941
Flags: W
LayerCount: 2
Fore
SplineSet
774 700 m 1,0,-1
 946 700 l 1,1,-1
 810 0 l 1,2,-1
 671 0 l 1,3,-1
 765 480 l 1,4,-1
 482 71 l 1,5,-1
 383 71 l 1,6,-1
 262 483 l 1,7,-1
 167 0 l 1,8,-1
 27 0 l 1,9,-1
 163 700 l 1,10,-1
 336 700 l 1,11,-1
 470 263 l 1,12,-1
 774 700 l 1,0,-1
EndSplineSet
EndChar

StartChar: N
Encoding: 78 78 50
Width: 788
Flags: W
LayerCount: 2
Fore
SplineSet
647 700 m 1,0,-1
 797 700 l 1,1,-1
 657 0 l 1,2,-1
 513 0 l 1,3,-1
 265 453 l 1,4,-1
 174 0 l 1,5,-1
 23 0 l 1,6,-1
 163 700 l 1,7,-1
 307 700 l 1,8,-1
 556 247 l 1,9,-1
 647 700 l 1,0,-1
EndSplineSet
EndChar

StartChar: O
Encoding: 79 79 51
Width: 813
Flags: W
LayerCount: 2
Fore
SplineSet
636 668.5 m 128,-1,1
 714 626 714 626 758 551 c 128,-1,2
 802 476 802 476 802 382 c 0,3,4
 802 274 802 274 746 183.5 c 128,-1,5
 690 93 690 93 595 41 c 128,-1,6
 500 -11 500 -11 388 -11 c 0,7,8
 289 -11 289 -11 211 32 c 128,-1,9
 133 75 133 75 89.5 150.5 c 128,-1,10
 46 226 46 226 46 320 c 0,11,12
 46 429 46 429 102 518.5 c 128,-1,13
 158 608 158 608 253 659.5 c 128,-1,14
 348 711 348 711 460 711 c 0,15,0
 558 711 558 711 636 668.5 c 128,-1,1
330.5 540.5 m 128,-1,17
 275 508 275 508 241.5 452.5 c 128,-1,18
 208 397 208 397 208 331 c 0,19,20
 208 274 208 274 234 227.5 c 128,-1,21
 260 181 260 181 304.5 154 c 128,-1,22
 349 127 349 127 403 127 c 0,23,24
 465 127 465 127 519.5 159.5 c 128,-1,25
 574 192 574 192 606.5 248.5 c 128,-1,26
 639 305 639 305 639 371 c 0,27,28
 639 428 639 428 614 474 c 128,-1,29
 589 520 589 520 545.5 546.5 c 128,-1,30
 502 573 502 573 448 573 c 0,31,16
 386 573 386 573 330.5 540.5 c 128,-1,17
EndSplineSet
Substitution2: "<11,2> Diagonal Fractions lookup 7 nested-substitutions 0 subtable" ordmasculine
Substitution2: "<11,2> Diagonal Fractions lookup 5 nested-substitutions 0 subtable" ordmasculine
EndChar

StartChar: P
Encoding: 80 80 52
Width: 691
Flags: W
LayerCount: 2
Fore
SplineSet
636.5 649 m 128,-1,1
 698 598 698 598 698 505 c 0,2,3
 698 414 698 414 657 345 c 128,-1,4
 616 276 616 276 540 238 c 128,-1,5
 464 200 464 200 361 200 c 2,6,-1
 222 200 l 1,7,-1
 182 0 l 1,8,-1
 23 0 l 1,9,-1
 163 700 l 1,10,-1
 460 700 l 2,11,0
 575 700 575 700 636.5 649 c 128,-1,1
500.5 370 m 128,-1,13
 544 408 544 408 544 477 c 0,14,15
 544 522 544 522 513.5 545.5 c 128,-1,16
 483 569 483 569 427 569 c 2,17,-1
 295 569 l 1,18,-1
 248 332 l 1,19,-1
 379 332 l 2,20,12
 457 332 457 332 500.5 370 c 128,-1,13
EndSplineSet
EndChar

StartChar: Q
Encoding: 81 81 53
Width: 816
Flags: W
LayerCount: 2
Fore
SplineSet
810 -85 m 1,0,1
 767 -121 767 -121 712 -141.5 c 128,-1,2
 657 -162 657 -162 606 -162 c 0,3,4
 536 -162 536 -162 481 -122 c 128,-1,5
 426 -82 426 -82 394 -11 c 1,6,-1
 388 -11 l 2,7,8
 289 -11 289 -11 211 32 c 128,-1,9
 133 75 133 75 89.5 150.5 c 128,-1,10
 46 226 46 226 46 320 c 0,11,12
 46 429 46 429 102 518.5 c 128,-1,13
 158 608 158 608 253 659.5 c 128,-1,14
 348 711 348 711 460 711 c 0,15,16
 558 711 558 711 636 668.5 c 128,-1,17
 714 626 714 626 758 551 c 128,-1,18
 802 476 802 476 802 382 c 0,19,20
 802 299 802 299 769 226 c 128,-1,21
 736 153 736 153 676.5 99 c 128,-1,22
 617 45 617 45 541 16 c 1,23,24
 560 -9 560 -9 583.5 -23 c 128,-1,25
 607 -37 607 -37 631 -37 c 0,26,27
 683 -37 683 -37 761 18 c 1,28,-1
 810 -85 l 1,0,1
234 227.5 m 128,-1,30
 260 181 260 181 304.5 154 c 128,-1,31
 349 127 349 127 403 127 c 0,32,33
 465 127 465 127 519.5 159.5 c 128,-1,34
 574 192 574 192 606.5 248.5 c 128,-1,35
 639 305 639 305 639 371 c 0,36,37
 639 428 639 428 614 474 c 128,-1,38
 589 520 589 520 545.5 546.5 c 128,-1,39
 502 573 502 573 448 573 c 0,40,41
 386 573 386 573 330.5 540.5 c 128,-1,42
 275 508 275 508 241.5 452.5 c 128,-1,43
 208 397 208 397 208 331 c 0,44,29
 208 274 208 274 234 227.5 c 128,-1,30
EndSplineSet
EndChar

StartChar: R
Encoding: 82 82 54
Width: 724
Flags: W
LayerCount: 2
Fore
SplineSet
664.5 334.5 m 128,-1,1
 617 263 617 263 530 228 c 1,2,-1
 632 0 l 1,3,-1
 453 0 l 1,4,-1
 382 200 l 1,5,-1
 367 200 l 1,6,-1
 222 200 l 1,7,-1
 182 0 l 1,8,-1
 23 0 l 1,9,-1
 163 700 l 1,10,-1
 467 700 l 2,11,12
 585 700 585 700 648.5 649 c 128,-1,13
 712 598 712 598 712 504 c 0,14,0
 712 406 712 406 664.5 334.5 c 128,-1,1
248 332 m 1,15,-1
 393 332 l 2,16,17
 471 332 471 332 514.5 370 c 128,-1,18
 558 408 558 408 558 477 c 0,19,20
 558 522 558 522 528 545.5 c 128,-1,21
 498 569 498 569 442 569 c 2,22,-1
 295 569 l 1,23,-1
 248 332 l 1,15,-1
EndSplineSet
EndChar

StartChar: S
Encoding: 83 83 55
Width: 627
Flags: W
LayerCount: 2
Fore
SplineSet
507 692 m 128,-1,1
 575 671 575 671 625 636 c 1,2,-1
 551 505 l 1,3,4
 500 538 500 538 442 557.5 c 128,-1,5
 384 577 384 577 341 577 c 256,6,7
 298 577 298 577 272 560 c 128,-1,8
 246 543 246 543 246 513 c 0,9,10
 246 479 246 479 277.5 460.5 c 128,-1,11
 309 442 309 442 376 421 c 0,12,13
 440 401 440 401 481.5 382 c 128,-1,14
 523 363 523 363 552.5 325.5 c 128,-1,15
 582 288 582 288 582 229 c 0,16,17
 582 154 582 154 542.5 100 c 128,-1,18
 503 46 503 46 435.5 18 c 128,-1,19
 368 -10 368 -10 285 -10 c 0,20,21
 200 -10 200 -10 121 20.5 c 128,-1,22
 42 51 42 51 -13 103 c 1,23,-1
 63 232 l 1,24,25
 111 184 111 184 177 155 c 128,-1,26
 243 126 243 126 300 126 c 0,27,28
 352 126 352 126 381.5 146 c 128,-1,29
 411 166 411 166 411 202 c 0,30,31
 411 226 411 226 394 242.5 c 128,-1,32
 377 259 377 259 351 269 c 128,-1,33
 325 279 325 279 279 293 c 0,34,35
 212 313 212 313 169.5 332.5 c 128,-1,36
 127 352 127 352 98.5 392 c 128,-1,37
 70 432 70 432 75 496 c 0,38,39
 78 561 78 561 116 610 c 128,-1,40
 154 659 154 659 219 686 c 128,-1,41
 284 713 284 713 367 713 c 0,42,0
 439 713 439 713 507 692 c 128,-1,1
EndSplineSet
EndChar

StartChar: T
Encoding: 84 84 56
Width: 601
Flags: W
LayerCount: 2
Fore
SplineSet
680 700 m 1,0,-1
 654 566 l 1,1,-1
 440 566 l 1,2,-1
 325 0 l 1,3,-1
 167 0 l 1,4,-1
 281 566 l 1,5,-1
 68 566 l 1,6,-1
 94 700 l 1,7,-1
 680 700 l 1,0,-1
EndSplineSet
EndChar

StartChar: U
Encoding: 85 85 57
Width: 760
Flags: W
LayerCount: 2
Fore
SplineSet
701 293 m 2,0,1
 673 154 673 154 577 73.5 c 128,-1,2
 481 -7 481 -7 337 -7 c 0,3,4
 210 -7 210 -7 136.5 55 c 128,-1,5
 63 117 63 117 63 225 c 0,6,7
 63 259 63 259 70 293 c 2,8,-1
 151 700 l 1,9,-1
 309 700 l 1,10,-1
 228 293 l 2,11,12
 223 268 223 268 223 251 c 0,13,14
 223 195 223 195 258 163 c 128,-1,15
 293 131 293 131 354 131 c 0,16,17
 425 131 425 131 476 174.5 c 128,-1,18
 527 218 527 218 543 293 c 2,19,-1
 625 700 l 1,20,-1
 783 700 l 1,21,-1
 701 293 l 2,0,1
EndSplineSet
EndChar

StartChar: V
Encoding: 86 86 58
Width: 716
Flags: W
LayerCount: 2
Fore
SplineSet
639 700 m 1,0,-1
 802 700 l 1,1,-1
 409 0 l 1,2,-1
 245 0 l 1,3,-1
 86 700 l 1,4,-1
 256 700 l 1,5,-1
 358 167 l 1,6,-1
 639 700 l 1,0,-1
EndSplineSet
EndChar

StartChar: W
Encoding: 87 87 59
Width: 1066
Flags: W
LayerCount: 2
Fore
SplineSet
998 700 m 1,0,-1
 1160 700 l 1,1,-1
 813 0 l 1,2,-1
 650 0 l 1,3,-1
 592 505 l 1,4,-1
 364 0 l 1,5,-1
 201 0 l 1,6,-1
 86 700 l 1,7,-1
 256 700 l 1,8,-1
 315 166 l 1,9,-1
 550 699 l 1,10,-1
 704 700 l 1,11,-1
 763 168 l 1,12,-1
 998 700 l 1,0,-1
EndSplineSet
EndChar

StartChar: X
Encoding: 88 88 60
Width: 729
Flags: W
LayerCount: 2
Fore
SplineSet
758 700 m 1,0,-1
 470 365 l 1,1,-1
 663 0 l 1,2,-1
 473 0 l 1,3,-1
 349 234 l 1,4,-1
 147 0 l 1,5,-1
 -37 0 l 1,6,-1
 273 358 l 1,7,-1
 94 700 l 1,8,-1
 279 700 l 1,9,-1
 389 486 l 1,10,-1
 572 700 l 1,11,-1
 758 700 l 1,0,-1
EndSplineSet
EndChar

StartChar: Y
Encoding: 89 89 61
Width: 666
Flags: W
LayerCount: 2
Fore
SplineSet
755 700 m 1,0,-1
 422 228 l 1,1,-1
 385 0 l 1,2,-1
 227 0 l 1,3,-1
 264 228 l 1,4,-1
 83 700 l 1,5,-1
 243 700 l 1,6,-1
 368 381 l 1,7,-1
 596 700 l 1,8,-1
 755 700 l 1,0,-1
EndSplineSet
EndChar

StartChar: Z
Encoding: 90 90 62
Width: 684
Flags: W
LayerCount: 2
Fore
SplineSet
708 700 m 1,0,-1
 691 594 l 1,1,-1
 225 133 l 1,2,-1
 620 133 l 1,3,-1
 599 0 l 1,4,-1
 -11 0 l 1,5,-1
 6 107 l 1,6,-1
 474 568 l 1,7,-1
 97 568 l 1,8,-1
 117 700 l 1,9,-1
 708 700 l 1,0,-1
EndSplineSet
EndChar

StartChar: bracketleft
Encoding: 91 91 63
Width: 348
Flags: W
LayerCount: 2
Fore
SplineSet
426 742 m 1,0,-1
 403 623 l 1,1,-1
 281 623 l 1,2,-1
 154 -5 l 1,3,-1
 276 -5 l 1,4,-1
 252 -124 l 1,5,-1
 -7 -124 l 1,6,-1
 167 742 l 1,7,-1
 426 742 l 1,0,-1
EndSplineSet
Substitution2: "'rtla' Right to Left Alternates lookup 0 subtable" bracketright
EndChar

StartChar: backslash
Encoding: 92 92 64
Width: 680
Flags: W
LayerCount: 2
Fore
SplineSet
82 812 m 1,0,-1
 211 812 l 1,1,-1
 593 -112 l 1,2,-1
 464 -112 l 1,3,-1
 82 812 l 1,0,-1
EndSplineSet
EndChar

StartChar: bracketright
Encoding: 93 93 65
Width: 395
Flags: W
LayerCount: 2
Fore
SplineSet
9 -124 m 1,0,-1
 32 -5 l 1,1,-1
 154 -5 l 1,2,-1
 281 623 l 1,3,-1
 159 623 l 1,4,-1
 183 742 l 1,5,-1
 442 742 l 1,6,-1
 268 -124 l 1,7,-1
 9 -124 l 1,0,-1
EndSplineSet
Substitution2: "'rtla' Right to Left Alternates lookup 0 subtable" bracketleft
EndChar

StartChar: asciicircum
Encoding: 94 94 66
Width: 563
Flags: W
LayerCount: 2
Fore
SplineSet
503 137 m 1,0,-1
 397 137 l 1,1,-1
 320 435 l 1,2,-1
 120 137 l 1,3,-1
 8 137 l 1,4,-1
 271 525 l 1,5,-1
 396 525 l 1,6,-1
 503 137 l 1,0,-1
EndSplineSet
EndChar

StartChar: underscore
Encoding: 95 95 67
Width: 578
Flags: W
LayerCount: 2
Fore
SplineSet
501 -116 m 1,0,-1
 483 -204 l 1,1,-1
 -94 -204 l 1,2,-1
 -77 -116 l 1,3,-1
 501 -116 l 1,0,-1
EndSplineSet
EndChar

StartChar: a
Encoding: 97 97 69
Width: 684
Flags: W
LayerCount: 2
Fore
SplineSet
130.5 24 m 128,-1,1
 82 54 82 54 55 108 c 128,-1,2
 28 162 28 162 28 232 c 0,3,4
 28 319 28 319 65.5 390.5 c 128,-1,5
 103 462 103 462 169 503 c 128,-1,6
 235 544 235 544 315 544 c 0,7,8
 379 544 379 544 423 517.5 c 128,-1,9
 467 491 467 491 490 440 c 1,10,-1
 509 538 l 1,11,-1
 662 538 l 1,12,-1
 555 0 l 1,13,-1
 402 0 l 1,14,-1
 417 68 l 1,15,16
 343 -6 343 -6 242 -6 c 0,17,0
 179 -6 179 -6 130.5 24 c 128,-1,1
378 138 m 128,-1,19
 414 161 414 161 435 200.5 c 128,-1,20
 456 240 456 240 456 287 c 0,21,22
 456 344 456 344 424 378 c 128,-1,23
 392 412 392 412 339 412 c 0,24,25
 297 412 297 412 261 389 c 128,-1,26
 225 366 225 366 204 326.5 c 128,-1,27
 183 287 183 287 183 241 c 0,28,29
 183 183 183 183 215 149 c 128,-1,30
 247 115 247 115 300 115 c 0,31,18
 342 115 342 115 378 138 c 128,-1,19
EndSplineSet
Substitution2: "<3,3> Small Caps in Latin lookup 11 subtable" a.sc
Substitution2: "<11,2> Diagonal Fractions lookup 7 nested-substitutions 0 subtable" ordfeminine
Substitution2: "<11,2> Diagonal Fractions lookup 5 nested-substitutions 0 subtable" ordfeminine
EndChar

StartChar: b
Encoding: 98 98 70
Width: 690
Flags: W
LayerCount: 2
Fore
SplineSet
558.5 513 m 128,-1,1
 607 483 607 483 634 428.5 c 128,-1,2
 661 374 661 374 661 304 c 0,3,4
 661 218 661 218 623.5 146.5 c 128,-1,5
 586 75 586 75 520 34 c 128,-1,6
 454 -7 454 -7 374 -7 c 0,7,8
 310 -7 310 -7 265.5 19.5 c 128,-1,9
 221 46 221 46 199 96 c 1,10,-1
 180 0 l 1,11,-1
 26 0 l 1,12,-1
 174 742 l 1,13,-1
 327 742 l 1,14,-1
 272 468 l 1,15,16
 308 504 308 504 352.5 523.5 c 128,-1,17
 397 543 397 543 447 543 c 0,18,0
 510 543 510 543 558.5 513 c 128,-1,1
311 398 m 128,-1,20
 275 375 275 375 254 335.5 c 128,-1,21
 233 296 233 296 233 250 c 0,22,23
 233 193 233 193 265 158.5 c 128,-1,24
 297 124 297 124 350 124 c 0,25,26
 392 124 392 124 428 147 c 128,-1,27
 464 170 464 170 485 209.5 c 128,-1,28
 506 249 506 249 506 295 c 0,29,30
 506 353 506 353 474 387 c 128,-1,31
 442 421 442 421 389 421 c 0,32,19
 347 421 347 421 311 398 c 128,-1,20
EndSplineSet
Substitution2: "<3,3> Small Caps in Latin lookup 11 subtable" b.sc
EndChar

StartChar: c
Encoding: 99 99 71
Width: 582
Flags: W
LayerCount: 2
Fore
SplineSet
146.5 24.5 m 128,-1,1
 90 55 90 55 59.5 111 c 128,-1,2
 29 167 29 167 29 240 c 0,3,4
 29 328 29 328 68 397 c 128,-1,5
 107 466 107 466 176.5 504.5 c 128,-1,6
 246 543 246 543 334 543 c 0,7,8
 411 543 411 543 468 513.5 c 128,-1,9
 525 484 525 484 556 430 c 1,10,-1
 445 355 l 1,11,12
 426 383 426 383 396 398 c 128,-1,13
 366 413 366 413 328 413 c 0,14,15
 287 413 287 413 254.5 392.5 c 128,-1,16
 222 372 222 372 203 335 c 128,-1,17
 184 298 184 298 184 251 c 0,18,19
 184 193 184 193 215 157.5 c 128,-1,20
 246 122 246 122 298 122 c 0,21,22
 382 122 382 122 429 185 c 1,23,-1
 528 113 l 1,24,25
 489 56 489 56 424.5 25 c 128,-1,26
 360 -6 360 -6 278 -6 c 0,27,0
 203 -6 203 -6 146.5 24.5 c 128,-1,1
EndSplineSet
Substitution2: "<3,3> Small Caps in Latin lookup 11 subtable" c.sc
EndChar

StartChar: d
Encoding: 100 100 72
Width: 689
Flags: W
LayerCount: 2
Fore
SplineSet
130.5 24 m 128,-1,1
 82 54 82 54 55 108 c 128,-1,2
 28 162 28 162 28 232 c 0,3,4
 28 319 28 319 65.5 390.5 c 128,-1,5
 103 462 103 462 169 503 c 128,-1,6
 235 544 235 544 315 544 c 0,7,8
 379 544 379 544 423 517.5 c 128,-1,9
 467 491 467 491 490 440 c 1,10,-1
 550 742 l 1,11,-1
 703 742 l 1,12,-1
 555 0 l 1,13,-1
 402 0 l 1,14,-1
 417 68 l 1,15,16
 343 -6 343 -6 242 -6 c 0,17,0
 179 -6 179 -6 130.5 24 c 128,-1,1
378 138 m 128,-1,19
 414 161 414 161 435 200.5 c 128,-1,20
 456 240 456 240 456 287 c 0,21,22
 456 344 456 344 424 378 c 128,-1,23
 392 412 392 412 339 412 c 0,24,25
 297 412 297 412 261 389 c 128,-1,26
 225 366 225 366 204 326.5 c 128,-1,27
 183 287 183 287 183 241 c 0,28,29
 183 183 183 183 215 149 c 128,-1,30
 247 115 247 115 300 115 c 0,31,18
 342 115 342 115 378 138 c 128,-1,19
EndSplineSet
Substitution2: "<3,3> Small Caps in Latin lookup 11 subtable" d.sc
EndChar

StartChar: e
Encoding: 101 101 73
Width: 611
Flags: W
LayerCount: 2
Fore
SplineSet
467.5 513.5 m 128,-1,1
 524 484 524 484 554.5 430.5 c 128,-1,2
 585 377 585 377 585 306 c 0,3,4
 585 265 585 265 575 222 c 1,5,-1
 180 222 l 1,6,7
 185 170 185 170 219 141.5 c 128,-1,8
 253 113 253 113 311 113 c 0,9,10
 346 113 346 113 380.5 125 c 128,-1,11
 415 137 415 137 443 159 c 1,12,-1
 518 71 l 1,13,14
 432 -6 432 -6 306 -6 c 0,15,16
 222 -6 222 -6 159.5 24 c 128,-1,17
 97 54 97 54 63 109.5 c 128,-1,18
 29 165 29 165 29 238 c 0,19,20
 29 324 29 324 68.5 394 c 128,-1,21
 108 464 108 464 177.5 503.5 c 128,-1,22
 247 543 247 543 334 543 c 0,23,0
 411 543 411 543 467.5 513.5 c 128,-1,1
419 397 m 128,-1,25
 392 428 392 428 340 428 c 0,26,27
 290 428 290 428 250 396.5 c 128,-1,28
 210 365 210 365 192 313 c 1,29,-1
 442 313 l 1,30,24
 446 366 446 366 419 397 c 128,-1,25
EndSplineSet
Substitution2: "<3,3> Small Caps in Latin lookup 11 subtable" e.sc
EndChar

StartChar: f
Encoding: 102 102 74
Width: 370
Flags: W
LayerCount: 2
Fore
SplineSet
345 603 m 128,-1,1
 320 584 320 584 313 553 c 2,2,-1
 305 514 l 1,3,-1
 432 514 l 1,4,-1
 412 407 l 1,5,-1
 284 407 l 1,6,-1
 202 0 l 1,7,-1
 49 0 l 1,8,-1
 131 407 l 1,9,-1
 60 407 l 1,10,-1
 80 514 l 1,11,-1
 153 514 l 1,12,-1
 164 571 l 2,13,14
 181 658 181 658 243.5 703.5 c 128,-1,15
 306 749 306 749 388 749 c 0,16,17
 448 749 448 749 498 725 c 1,18,-1
 457 608 l 1,19,20
 445 614 445 614 428.5 618 c 128,-1,21
 412 622 412 622 401 622 c 0,22,0
 370 622 370 622 345 603 c 128,-1,1
EndSplineSet
Substitution2: "<3,3> Small Caps in Latin lookup 11 subtable" f.sc
EndChar

StartChar: g
Encoding: 103 103 75
Width: 649
Flags: W
LayerCount: 2
Fore
SplineSet
-15 -126 m 1,1,-1
 51 -24 l 1,2,3
 84 -49 84 -49 126.5 -62 c 128,-1,4
 169 -75 169 -75 213 -75 c 0,5,6
 282 -75 282 -75 325 -46 c 128,-1,7
 368 -17 368 -17 381 38 c 2,8,-1
 394 93 l 1,9,10
 324 28 324 28 232 28 c 0,11,12
 173 28 173 28 127 56 c 128,-1,13
 81 84 81 84 56 134 c 128,-1,14
 31 184 31 184 31 249 c 0,15,16
 31 331 31 331 66.5 398.5 c 128,-1,17
 102 466 102 466 164 505 c 128,-1,18
 226 544 226 544 301 544 c 0,19,20
 360 544 360 544 401.5 520 c 128,-1,21
 443 496 443 496 464 450 c 1,22,-1
 482 538 l 1,23,-1
 635 538 l 1,24,-1
 531 24 l 2,25,26
 509 -84 509 -84 427 -142 c 128,-1,27
 345 -200 345 -200 217 -200 c 0,28,0
 90 -200 90 -200 -15 -126 c 1,1,-1
361.5 170 m 128,-1,30
 394 190 394 190 413 224.5 c 128,-1,31
 432 259 432 259 432 300 c 0,32,33
 432 351 432 351 403 381.5 c 128,-1,34
 374 412 374 412 326 412 c 0,35,36
 288 412 288 412 256 391.5 c 128,-1,37
 224 371 224 371 205 335.5 c 128,-1,38
 186 300 186 300 186 258 c 0,39,40
 186 208 186 208 214.5 179 c 128,-1,41
 243 150 243 150 291 150 c 0,42,29
 329 150 329 150 361.5 170 c 128,-1,30
EndSplineSet
Substitution2: "<3,3> Small Caps in Latin lookup 11 subtable" g.sc
EndChar

StartChar: h
Encoding: 104 104 76
Width: 678
Flags: W
LayerCount: 2
Fore
SplineSet
583 497.5 m 128,-1,1
 634 450 634 450 634 370 c 0,2,3
 634 340 634 340 629 317 c 2,4,-1
 565 0 l 1,5,-1
 411 0 l 1,6,-1
 470 295 l 2,7,8
 473 310 473 310 473 324 c 0,9,10
 473 364 473 364 448 387.5 c 128,-1,11
 423 411 423 411 380 411 c 0,12,13
 329 411 329 411 289.5 374.5 c 128,-1,14
 250 338 250 338 238 279 c 2,15,-1
 181 0 l 1,16,-1
 28 0 l 1,17,-1
 174 742 l 1,18,-1
 328 742 l 1,19,-1
 274 464 l 1,20,21
 338 545 338 545 445 545 c 0,22,0
 532 545 532 545 583 497.5 c 128,-1,1
EndSplineSet
Substitution2: "<3,3> Small Caps in Latin lookup 11 subtable" h.sc
EndChar

StartChar: k
Encoding: 107 107 79
Width: 638
Flags: W
LayerCount: 2
Fore
SplineSet
678 538 m 1,0,-1
 424 319 l 1,1,-1
 569 0 l 1,2,-1
 387 0 l 1,3,-1
 303 214 l 1,4,-1
 206 131 l 1,5,-1
 180 0 l 1,6,-1
 26 0 l 1,7,-1
 174 742 l 1,8,-1
 328 742 l 1,9,-1
 247 338 l 1,10,-1
 482 538 l 1,11,-1
 678 538 l 1,0,-1
EndSplineSet
Substitution2: "<3,3> Small Caps in Latin lookup 11 subtable" k.sc
EndChar

StartChar: l
Encoding: 108 108 80
Width: 313
Flags: W
LayerCount: 2
Fore
SplineSet
328 742 m 1,0,-1
 180 0 l 1,1,-1
 26 0 l 1,2,-1
 174 742 l 1,3,-1
 328 742 l 1,0,-1
EndSplineSet
Substitution2: "<3,3> Small Caps in Latin lookup 11 subtable" l.sc
EndChar

StartChar: m
Encoding: 109 109 81
Width: 1056
Flags: W
LayerCount: 2
Fore
SplineSet
961 497.5 m 128,-1,1
 1012 450 1012 450 1012 371 c 0,2,3
 1012 346 1012 346 1006 317 c 2,4,-1
 943 0 l 1,5,-1
 789 0 l 1,6,-1
 848 295 l 2,7,8
 851 310 851 310 851 324 c 0,9,10
 851 364 851 364 826 387.5 c 128,-1,11
 801 411 801 411 758 411 c 0,12,13
 707 411 707 411 667.5 374.5 c 128,-1,14
 628 338 628 338 616 279 c 2,15,-1
 559 0 l 1,16,-1
 406 0 l 1,17,-1
 464 295 l 2,18,19
 467 310 467 310 467 324 c 0,20,21
 467 364 467 364 442.5 387.5 c 128,-1,22
 418 411 418 411 374 411 c 0,23,24
 323 411 323 411 283.5 374.5 c 128,-1,25
 244 338 244 338 232 279 c 2,26,-1
 176 0 l 1,27,-1
 22 0 l 1,28,-1
 128 538 l 1,29,-1
 283 538 l 1,30,-1
 268 464 l 1,31,32
 334 545 334 545 439 545 c 0,33,34
 510 545 510 545 557.5 513.5 c 128,-1,35
 605 482 605 482 621 426 c 1,36,37
 699 545 699 545 822 545 c 0,38,0
 910 545 910 545 961 497.5 c 128,-1,1
EndSplineSet
Substitution2: "<3,3> Small Caps in Latin lookup 11 subtable" m.sc
EndChar

StartChar: n
Encoding: 110 110 82
Width: 672
Flags: W
LayerCount: 2
Fore
SplineSet
578 497.5 m 128,-1,1
 629 450 629 450 629 370 c 0,2,3
 629 346 629 346 623 317 c 2,4,-1
 559 0 l 1,5,-1
 406 0 l 1,6,-1
 464 295 l 2,7,8
 467 310 467 310 467 324 c 0,9,10
 467 364 467 364 442.5 387.5 c 128,-1,11
 418 411 418 411 374 411 c 0,12,13
 323 411 323 411 283.5 374.5 c 128,-1,14
 244 338 244 338 232 279 c 2,15,-1
 176 0 l 1,16,-1
 22 0 l 1,17,-1
 128 538 l 1,18,-1
 283 538 l 1,19,-1
 268 464 l 1,20,21
 334 545 334 545 439 545 c 0,22,0
 527 545 527 545 578 497.5 c 128,-1,1
EndSplineSet
Substitution2: "<3,3> Small Caps in Latin lookup 11 subtable" n.sc
EndChar

StartChar: o
Encoding: 111 111 83
Width: 639
Flags: W
LayerCount: 2
Fore
SplineSet
486.5 512 m 128,-1,1
 546 481 546 481 578 425.5 c 128,-1,2
 610 370 610 370 610 296 c 0,3,4
 610 208 610 208 569 139 c 128,-1,5
 528 70 528 70 456 32 c 128,-1,6
 384 -6 384 -6 292 -6 c 0,7,8
 213 -6 213 -6 153 25 c 128,-1,9
 93 56 93 56 61 112 c 128,-1,10
 29 168 29 168 29 242 c 0,11,12
 29 330 29 330 70 398.5 c 128,-1,13
 111 467 111 467 183 505 c 128,-1,14
 255 543 255 543 347 543 c 0,15,0
 427 543 427 543 486.5 512 c 128,-1,1
258 394 m 128,-1,17
 224 373 224 373 204.5 335.5 c 128,-1,18
 185 298 185 298 185 250 c 0,19,20
 185 191 185 191 217 155 c 128,-1,21
 249 119 249 119 304 119 c 0,22,23
 347 119 347 119 381 140 c 128,-1,24
 415 161 415 161 434.5 198.5 c 128,-1,25
 454 236 454 236 454 284 c 0,26,27
 454 343 454 343 421.5 379 c 128,-1,28
 389 415 389 415 335 415 c 0,29,16
 292 415 292 415 258 394 c 128,-1,17
EndSplineSet
Substitution2: "<3,3> Small Caps in Latin lookup 11 subtable" o.sc
Substitution2: "<11,2> Diagonal Fractions lookup 7 nested-substitutions 0 subtable" ordmasculine
Substitution2: "<11,2> Diagonal Fractions lookup 5 nested-substitutions 0 subtable" ordmasculine
EndChar

StartChar: p
Encoding: 112 112 84
Width: 689
Flags: W
LayerCount: 2
Fore
SplineSet
558.5 514 m 128,-1,1
 607 484 607 484 634 430 c 128,-1,2
 661 376 661 376 661 306 c 0,3,4
 661 219 661 219 623 147.5 c 128,-1,5
 585 76 585 76 519.5 35 c 128,-1,6
 454 -6 454 -6 374 -6 c 0,7,8
 310 -6 310 -6 265.5 20.5 c 128,-1,9
 221 47 221 47 199 97 c 1,10,-1
 140 -194 l 1,11,-1
 -13 -194 l 1,12,-1
 133 538 l 1,13,-1
 286 538 l 1,14,-1
 272 469 l 1,15,16
 307 505 307 505 352 524.5 c 128,-1,17
 397 544 397 544 447 544 c 0,18,0
 510 544 510 544 558.5 514 c 128,-1,1
310.5 399 m 128,-1,20
 275 376 275 376 254 337 c 128,-1,21
 233 298 233 298 233 251 c 0,22,23
 233 194 233 194 265 159.5 c 128,-1,24
 297 125 297 125 350 125 c 0,25,26
 392 125 392 125 428 148 c 128,-1,27
 464 171 464 171 485 210.5 c 128,-1,28
 506 250 506 250 506 297 c 0,29,30
 506 354 506 354 474 388 c 128,-1,31
 442 422 442 422 389 422 c 0,32,19
 346 422 346 422 310.5 399 c 128,-1,20
EndSplineSet
Substitution2: "<3,3> Small Caps in Latin lookup 11 subtable" p.sc
EndChar

StartChar: q
Encoding: 113 113 85
Width: 688
Flags: W
LayerCount: 2
Fore
SplineSet
130.5 24 m 128,-1,1
 82 54 82 54 55 108 c 128,-1,2
 28 162 28 162 28 232 c 0,3,4
 28 319 28 319 65.5 390.5 c 128,-1,5
 103 462 103 462 169 503 c 128,-1,6
 235 544 235 544 315 544 c 0,7,8
 379 544 379 544 423 517.5 c 128,-1,9
 467 491 467 491 490 440 c 1,10,-1
 509 538 l 1,11,-1
 662 538 l 1,12,-1
 516 -194 l 1,13,-1
 363 -194 l 1,14,-1
 417 68 l 1,15,16
 343 -6 343 -6 242 -6 c 0,17,0
 179 -6 179 -6 130.5 24 c 128,-1,1
378 138 m 128,-1,19
 414 161 414 161 435 200.5 c 128,-1,20
 456 240 456 240 456 287 c 0,21,22
 456 344 456 344 424 378 c 128,-1,23
 392 412 392 412 339 412 c 0,24,25
 297 412 297 412 261 389 c 128,-1,26
 225 366 225 366 204 326.5 c 128,-1,27
 183 287 183 287 183 241 c 0,28,29
 183 183 183 183 215 149 c 128,-1,30
 247 115 247 115 300 115 c 0,31,18
 342 115 342 115 378 138 c 128,-1,19
EndSplineSet
Substitution2: "<3,3> Small Caps in Latin lookup 11 subtable" q.sc
EndChar

StartChar: r
Encoding: 114 114 86
Width: 421
Flags: W
LayerCount: 2
Fore
SplineSet
349 519 m 128,-1,1
 398 543 398 543 456 544 c 1,2,-1
 438 400 l 1,3,4
 431 401 431 401 418 401 c 0,5,6
 347 401 347 401 294 360.5 c 128,-1,7
 241 320 241 320 226 258 c 2,8,-1
 175 0 l 1,9,-1
 21 0 l 1,10,-1
 128 538 l 1,11,-1
 282 538 l 1,12,-1
 264 448 l 1,13,0
 300 495 300 495 349 519 c 128,-1,1
EndSplineSet
Substitution2: "<3,3> Small Caps in Latin lookup 11 subtable" r.sc
EndChar

StartChar: s
Encoding: 115 115 87
Width: 507
Flags: W
LayerCount: 2
Fore
SplineSet
97.5 21 m 128,-1,1
 27 49 27 49 -17 96 c 1,2,-1
 48 191 l 1,3,4
 86 154 86 154 138 130.5 c 128,-1,5
 190 107 190 107 234 107 c 0,6,7
 266 107 266 107 285 120 c 128,-1,8
 304 133 304 133 304 155 c 0,9,10
 304 175 304 175 283 188 c 128,-1,11
 262 201 262 201 219 218 c 0,12,13
 172 237 172 237 141.5 253.5 c 128,-1,14
 111 270 111 270 89 299.5 c 128,-1,15
 67 329 67 329 67 373 c 0,16,17
 67 423 67 423 93 462 c 128,-1,18
 119 501 119 501 166 522.5 c 128,-1,19
 213 544 213 544 274 544 c 0,20,21
 337 544 337 544 401 521.5 c 128,-1,22
 465 499 465 499 511 460 c 1,23,-1
 441 364 l 1,24,25
 399 395 399 395 354.5 413 c 128,-1,26
 310 431 310 431 276 431 c 0,27,28
 250 431 250 431 232 418 c 128,-1,29
 214 405 214 405 214 386 c 256,30,31
 214 367 214 367 235 354 c 128,-1,32
 256 341 256 341 299 324 c 0,33,34
 347 304 347 304 378 287 c 128,-1,35
 409 270 409 270 432 239.5 c 128,-1,36
 455 209 455 209 455 165 c 0,37,38
 455 115 455 115 428 76 c 128,-1,39
 401 37 401 37 352.5 15 c 128,-1,40
 304 -7 304 -7 242 -7 c 0,41,0
 168 -7 168 -7 97.5 21 c 128,-1,1
EndSplineSet
Substitution2: "<3,3> Small Caps in Latin lookup 11 subtable" s.sc
EndChar

StartChar: t
Encoding: 116 116 88
Width: 429
Flags: W
LayerCount: 2
Fore
SplineSet
232 179 m 2,0,1
 229 164 229 164 229 154 c 0,2,3
 229 137 229 137 237 130 c 128,-1,4
 245 123 245 123 261 123 c 0,5,6
 297 123 297 123 344 145 c 1,7,-1
 363 28 l 1,8,9
 330 11 330 11 293 2 c 128,-1,10
 256 -7 256 -7 221 -7 c 0,11,12
 154 -7 154 -7 113.5 28 c 128,-1,13
 73 63 73 63 73 125 c 0,14,15
 73 147 73 147 77 166 c 2,16,-1
 126 407 l 1,17,-1
 52 407 l 1,18,-1
 72 514 l 1,19,-1
 147 514 l 1,20,-1
 177 662 l 1,21,-1
 329 662 l 1,22,-1
 299 514 l 1,23,-1
 446 514 l 1,24,-1
 426 407 l 1,25,-1
 278 407 l 1,26,-1
 232 179 l 2,0,1
EndSplineSet
Substitution2: "<3,3> Small Caps in Latin lookup 11 subtable" t.sc
EndChar

StartChar: u
Encoding: 117 117 89
Width: 672
Flags: W
LayerCount: 2
Fore
SplineSet
94 40.5 m 128,-1,1
 43 88 43 88 43 168 c 0,2,3
 43 193 43 193 49 221 c 2,4,-1
 113 538 l 1,5,-1
 266 538 l 1,6,-1
 208 243 l 2,7,8
 205 228 205 228 205 214 c 0,9,10
 205 174 205 174 229.5 150.5 c 128,-1,11
 254 127 254 127 298 127 c 0,12,13
 349 127 349 127 388.5 163.5 c 128,-1,14
 428 200 428 200 440 259 c 2,15,-1
 496 538 l 1,16,-1
 650 538 l 1,17,-1
 544 0 l 1,18,-1
 389 0 l 1,19,-1
 404 74 l 1,20,21
 338 -7 338 -7 233 -7 c 0,22,0
 145 -7 145 -7 94 40.5 c 128,-1,1
EndSplineSet
Substitution2: "<3,3> Small Caps in Latin lookup 11 subtable" u.sc
EndChar

StartChar: v
Encoding: 118 118 90
Width: 556
Flags: W
LayerCount: 2
Fore
SplineSet
616 538 m 1,0,-1
 306 0 l 1,1,-1
 148 0 l 1,2,-1
 51 538 l 1,3,-1
 208 538 l 1,4,-1
 254 146 l 1,5,-1
 460 538 l 1,6,-1
 616 538 l 1,0,-1
EndSplineSet
Substitution2: "<3,3> Small Caps in Latin lookup 11 subtable" v.sc
EndChar

StartChar: w
Encoding: 119 119 91
Width: 923
Flags: W
LayerCount: 2
Fore
SplineSet
983 538 m 1,0,-1
 680 0 l 1,1,-1
 525 0 l 1,2,-1
 484 355 l 1,3,-1
 294 0 l 1,4,-1
 140 0 l 1,5,-1
 51 538 l 1,6,-1
 205 538 l 1,7,-1
 246 153 l 1,8,-1
 441 538 l 1,9,-1
 592 538 l 1,10,-1
 631 153 l 1,11,-1
 828 538 l 1,12,-1
 983 538 l 1,0,-1
EndSplineSet
Substitution2: "<3,3> Small Caps in Latin lookup 11 subtable" w.sc
EndChar

StartChar: x
Encoding: 120 120 92
Width: 589
Flags: W
LayerCount: 2
Fore
SplineSet
250 538 m 1,0,-1
 314 375 l 1,1,-1
 453 538 l 1,2,-1
 625 538 l 1,3,-1
 400 276 l 1,4,-1
 526 0 l 1,5,-1
 353 0 l 1,6,-1
 283 176 l 1,7,-1
 127 0 l 1,8,-1
 -46 0 l 1,9,-1
 196 275 l 1,10,-1
 76 538 l 1,11,-1
 250 538 l 1,0,-1
EndSplineSet
Substitution2: "<3,3> Small Caps in Latin lookup 11 subtable" x.sc
EndChar

StartChar: y
Encoding: 121 121 93
Width: 563
Flags: W
LayerCount: 2
Fore
SplineSet
624 538 m 1,0,-1
 267 -65 l 2,1,2
 227 -136 227 -136 173.5 -168.5 c 128,-1,3
 120 -201 120 -201 51 -201 c 0,4,5
 7 -201 7 -201 -26 -187 c 128,-1,6
 -59 -173 -59 -173 -91 -145 c 1,7,-1
 -12 -42 l 1,8,9
 14 -67 14 -67 48 -67 c 0,10,11
 97 -67 97 -67 138 -17 c 2,12,-1
 159 11 l 1,13,-1
 43 538 l 1,14,-1
 199 538 l 1,15,-1
 264 163 l 1,16,-1
 467 538 l 1,17,-1
 624 538 l 1,0,-1
EndSplineSet
Substitution2: "<3,3> Small Caps in Latin lookup 11 subtable" y.sc
EndChar

StartChar: z
Encoding: 122 122 94
Width: 549
Flags: W
LayerCount: 2
Fore
SplineSet
562 537 m 1,0,-1
 545 440 l 1,1,-1
 202 121 l 1,2,-1
 488 121 l 1,3,-1
 464 -1 l 1,4,-1
 -14 0 l 1,5,-1
 3 97 l 1,6,-1
 346 416 l 1,7,-1
 80 417 l 1,8,-1
 102 538 l 1,9,-1
 562 537 l 1,0,-1
EndSplineSet
Substitution2: "<3,3> Small Caps in Latin lookup 11 subtable" z.sc
EndChar

StartChar: braceleft
Encoding: 123 123 95
Width: 357
Flags: W
LayerCount: 2
Fore
SplineSet
243.5 344.5 m 128,-1,1
 220 317 220 317 176 308 c 1,2,3
 208 299 208 299 222 282 c 128,-1,4
 236 265 236 265 236 235 c 0,5,6
 236 219 236 219 231 191 c 2,7,-1
 204 59 l 2,8,9
 202 51 202 51 202 38 c 0,10,11
 202 13 202 13 220.5 3 c 128,-1,12
 239 -7 239 -7 281 -7 c 1,13,-1
 258 -126 l 1,14,-1
 199 -126 l 2,15,16
 120 -126 120 -126 86 -105 c 128,-1,17
 52 -84 52 -84 52 -33 c 0,18,19
 52 -16 52 -16 57 11 c 2,20,-1
 96 201 l 2,21,22
 98 208 98 208 98 220 c 0,23,24
 98 248 98 248 66 248 c 2,25,-1
 30 248 l 1,26,-1
 54 370 l 1,27,-1
 90 370 l 2,28,29
 111 370 111 370 122.5 380.5 c 128,-1,30
 134 391 134 391 139 416 c 2,31,-1
 177 606 l 2,32,33
 192 682 192 682 236 712.5 c 128,-1,34
 280 743 280 743 373 743 c 2,35,-1
 432 743 l 1,36,-1
 408 624 l 1,37,38
 358 624 358 624 335 609.5 c 128,-1,39
 312 595 312 595 305 558 c 2,40,-1
 278 426 l 2,41,0
 267 372 267 372 243.5 344.5 c 128,-1,1
EndSplineSet
Substitution2: "'rtla' Right to Left Alternates lookup 0 subtable" braceright
EndChar

StartChar: bar
Encoding: 124 124 96
Width: 290
Flags: W
LayerCount: 2
Fore
SplineSet
310 805 m 1,0,-1
 126 -111 l 1,1,-1
 11 -111 l 1,2,-1
 195 805 l 1,3,-1
 310 805 l 1,0,-1
EndSplineSet
EndChar

StartChar: braceright
Encoding: 125 125 97
Width: 447
Flags: W
LayerCount: 2
Fore
SplineSet
220.5 273.5 m 128,-1,1
 244 301 244 301 288 310 c 1,2,3
 256 319 256 319 242 336 c 128,-1,4
 228 353 228 353 228 383 c 0,5,6
 228 399 228 399 233 427 c 2,7,-1
 260 559 l 2,8,9
 262 567 262 567 262 580 c 0,10,11
 262 605 262 605 243.5 615 c 128,-1,12
 225 625 225 625 183 625 c 1,13,-1
 206 744 l 1,14,-1
 265 744 l 2,15,16
 344 744 344 744 378 723 c 128,-1,17
 412 702 412 702 412 651 c 0,18,19
 412 634 412 634 407 607 c 2,20,-1
 368 417 l 2,21,22
 366 410 366 410 366 398 c 0,23,24
 366 370 366 370 398 370 c 2,25,-1
 434 370 l 1,26,-1
 410 248 l 1,27,-1
 374 248 l 2,28,29
 353 248 353 248 341.5 237.5 c 128,-1,30
 330 227 330 227 325 202 c 2,31,-1
 287 12 l 2,32,33
 272 -64 272 -64 228 -94.5 c 128,-1,34
 184 -125 184 -125 91 -125 c 2,35,-1
 32 -125 l 1,36,-1
 56 -6 l 1,37,38
 106 -6 106 -6 129 8.5 c 128,-1,39
 152 23 152 23 159 60 c 2,40,-1
 186 192 l 2,41,0
 197 246 197 246 220.5 273.5 c 128,-1,1
EndSplineSet
Substitution2: "'rtla' Right to Left Alternates lookup 0 subtable" braceleft
EndChar

StartChar: asciitilde
Encoding: 126 126 98
Width: 506
Flags: W
LayerCount: 2
Fore
SplineSet
234 402 m 128,-1,1
 252 394 252 394 277 378 c 0,2,3
 293 367 293 367 302.5 362 c 128,-1,4
 312 357 312 357 322 357 c 0,5,6
 340 357 340 357 353 369 c 128,-1,7
 366 381 366 381 370 404 c 1,8,-1
 474 404 l 1,9,10
 457 322 457 322 423 282 c 128,-1,11
 389 242 389 242 335 242 c 0,12,13
 309 242 309 242 290.5 250 c 128,-1,14
 272 258 272 258 247 274 c 0,15,16
 233 284 233 284 223.5 289 c 128,-1,17
 214 294 214 294 204 294 c 0,18,19
 169 294 169 294 160 247 c 1,20,-1
 55 247 l 1,21,22
 72 330 72 330 105 370 c 128,-1,23
 138 410 138 410 191 410 c 0,24,0
 216 410 216 410 234 402 c 128,-1,1
EndSplineSet
EndChar

StartChar: exclamdown
Encoding: 161 161 100
Width: 243
Flags: W
LayerCount: 2
Fore
SplineSet
111 406.5 m 128,-1,1
 92 426 92 426 92 458 c 0,2,3
 92 496 92 496 116 521 c 128,-1,4
 140 546 140 546 176 546 c 0,5,6
 207 546 207 546 226.5 526 c 128,-1,7
 246 506 246 506 246 474 c 0,8,9
 246 436 246 436 222 411.5 c 128,-1,10
 198 387 198 387 162 387 c 0,11,0
 130 387 130 387 111 406.5 c 128,-1,1
-25 -158 m 1,12,-1
 10 19 l 1,13,-1
 92 301 l 1,14,-1
 187 301 l 1,15,-1
 156 19 l 1,16,-1
 121 -158 l 1,17,-1
 -25 -158 l 1,12,-1
EndSplineSet
Substitution2: "<3,3> Small Caps in Latin lookup 11 subtable" exclamdown.sc
EndChar

StartChar: cent
Encoding: 162 162 101
Width: 582
Flags: W
LayerCount: 2
Fore
SplineSet
429 185 m 1,1,-1
 528 113 l 1,2,3
 492 61 492 61 435.5 30.5 c 128,-1,4
 379 0 379 0 307 -5 c 1,5,-1
 279 -150 l 1,6,-1
 164 -150 l 1,7,-1
 194 5 l 1,8,9
 116 28 116 28 72.5 89.5 c 128,-1,10
 29 151 29 151 29 240 c 0,11,12
 29 322 29 322 63.5 388 c 128,-1,13
 98 454 98 454 159.5 494 c 128,-1,14
 221 534 221 534 300 541 c 1,15,-1
 330 695 l 1,16,-1
 446 695 l 1,17,-1
 415 534 l 1,18,19
 462 522 462 522 498 495.5 c 128,-1,20
 534 469 534 469 556 430 c 1,21,-1
 445 355 l 1,22,23
 426 383 426 383 396 398 c 128,-1,24
 366 413 366 413 328 413 c 0,25,26
 287 413 287 413 254.5 392.5 c 128,-1,27
 222 372 222 372 203 335 c 128,-1,28
 184 298 184 298 184 251 c 0,29,30
 184 193 184 193 215 157.5 c 128,-1,31
 246 122 246 122 298 122 c 0,32,0
 382 122 382 122 429 185 c 1,1,-1
EndSplineSet
EndChar

StartChar: sterling
Encoding: 163 163 102
Width: 554
Flags: W
LayerCount: 2
Fore
SplineSet
535.5 684.5 m 128,-1,1
 585 662 585 662 617 620 c 1,2,-1
 534 500 l 1,3,4
 482 569 482 569 417 569 c 0,5,6
 374 569 374 569 346.5 545 c 128,-1,7
 319 521 319 521 309 473 c 2,8,-1
 290 378 l 1,9,-1
 460 378 l 1,10,-1
 447 314 l 1,11,-1
 277 314 l 1,12,-1
 239 125 l 1,13,-1
 503 125 l 1,14,-1
 479 0 l 1,15,-1
 -23 0 l 1,16,-1
 1 125 l 1,17,-1
 80 125 l 1,18,-1
 118 314 l 1,19,-1
 40 314 l 1,20,-1
 53 378 l 1,21,-1
 131 378 l 1,22,-1
 151 476 l 2,23,24
 173 586 173 586 245 646.5 c 128,-1,25
 317 707 317 707 427 707 c 0,26,0
 486 707 486 707 535.5 684.5 c 128,-1,1
EndSplineSet
EndChar

StartChar: currency
Encoding: 164 164 103
Width: 800
Flags: W
LayerCount: 2
Fore
SplineSet
633 183 m 1,1,-1
 734 82 l 1,2,-1
 647 -8 l 1,3,-1
 542 97 l 1,4,5
 480 62 480 62 409 62 c 256,6,7
 338 62 338 62 276 97 c 1,8,-1
 171 -8 l 1,9,-1
 85 82 l 1,10,-1
 186 183 l 1,11,12
 146 247 146 247 146 321 c 0,13,14
 146 391 146 391 183 455 c 1,15,-1
 85 553 l 1,16,-1
 171 643 l 1,17,-1
 272 542 l 1,18,19
 334 581 334 581 409 581 c 0,20,21
 485 581 485 581 547 542 c 1,22,-1
 647 643 l 1,23,-1
 734 553 l 1,24,-1
 635 454 l 1,25,26
 673 392 673 392 673 321 c 0,27,0
 673 247 673 247 633 183 c 1,1,-1
481 205 m 128,-1,29
 514 223 514 223 533.5 254 c 128,-1,30
 553 285 553 285 553 321 c 256,31,32
 553 357 553 357 533.5 388 c 128,-1,33
 514 419 514 419 481 437.5 c 128,-1,34
 448 456 448 456 409 456 c 0,35,36
 371 456 371 456 338 437.5 c 128,-1,37
 305 419 305 419 286 388 c 128,-1,38
 267 357 267 357 267 321 c 256,39,40
 267 285 267 285 286 254 c 128,-1,41
 305 223 305 223 338 205 c 128,-1,42
 371 187 371 187 409 187 c 0,43,28
 448 187 448 187 481 205 c 128,-1,29
EndSplineSet
EndChar

StartChar: yen
Encoding: 165 165 104
Width: 653
Flags: W
LayerCount: 2
Fore
SplineSet
755 700 m 1,0,-1
 487 317 l 1,1,-1
 628 317 l 1,2,-1
 616 253 l 1,3,-1
 442 253 l 1,4,-1
 422 225 l 1,5,-1
 418 199 l 1,6,-1
 606 199 l 1,7,-1
 593 135 l 1,8,-1
 408 135 l 1,9,-1
 386 0 l 1,10,-1
 228 0 l 1,11,-1
 250 135 l 1,12,-1
 60 135 l 1,13,-1
 73 199 l 1,14,-1
 260 199 l 1,15,-1
 266 236 l 1,16,-1
 259 253 l 1,17,-1
 83 253 l 1,18,-1
 96 317 l 1,19,-1
 235 317 l 1,20,-1
 90 700 l 1,21,-1
 248 700 l 1,22,-1
 373 387 l 1,23,-1
 596 700 l 1,24,-1
 755 700 l 1,0,-1
EndSplineSet
EndChar

StartChar: brokenbar
Encoding: 166 166 105
Width: 290
Flags: W
LayerCount: 2
Fore
SplineSet
310 805 m 1,0,-1
 242 462 l 1,1,-1
 126 462 l 1,2,-1
 195 805 l 1,3,-1
 310 805 l 1,0,-1
196 232 m 1,4,-1
 126 -111 l 1,5,-1
 11 -111 l 1,6,-1
 80 232 l 1,7,-1
 196 232 l 1,4,-1
EndSplineSet
EndChar

StartChar: section
Encoding: 167 167 106
Width: 537
Flags: W
LayerCount: 2
Fore
SplineSet
85.5 -56.5 m 128,-1,1
 16 -29 16 -29 -33 18 c 1,2,-1
 30 110 l 1,3,4
 76 69 76 69 125.5 46 c 128,-1,5
 175 23 175 23 221 23 c 0,6,7
 254 23 254 23 275 36 c 128,-1,8
 296 49 296 49 296 69 c 0,9,10
 296 90 296 90 273.5 105 c 128,-1,11
 251 120 251 120 201 143 c 0,12,13
 151 165 151 165 120 183 c 128,-1,14
 89 201 89 201 66.5 229.5 c 128,-1,15
 44 258 44 258 44 298 c 0,16,17
 44 353 44 353 80 390 c 128,-1,18
 116 427 116 427 182 442 c 1,19,20
 150 464 150 464 135 486.5 c 128,-1,21
 120 509 120 509 120 535 c 0,22,23
 120 578 120 578 146.5 613 c 128,-1,24
 173 648 173 648 219.5 668 c 128,-1,25
 266 688 266 688 325 688 c 0,26,27
 387 688 387 688 448 667 c 128,-1,28
 509 646 509 646 561 607 c 1,29,-1
 496 516 l 1,30,31
 451 548 451 548 406.5 565.5 c 128,-1,32
 362 583 362 583 327 583 c 0,33,34
 296 583 296 583 277.5 571 c 128,-1,35
 259 559 259 559 259 539 c 0,36,37
 259 517 259 517 283 501.5 c 128,-1,38
 307 486 307 486 356 465 c 0,39,40
 406 443 406 443 438 424.5 c 128,-1,41
 470 406 470 406 493 377 c 128,-1,42
 516 348 516 348 516 308 c 0,43,44
 516 257 516 257 480 217 c 128,-1,45
 444 177 444 177 385 162 c 1,46,47
 439 123 439 123 439 72 c 0,48,49
 439 28 439 28 411.5 -7.5 c 128,-1,50
 384 -43 384 -43 335.5 -63.5 c 128,-1,51
 287 -84 287 -84 227 -84 c 0,52,0
 155 -84 155 -84 85.5 -56.5 c 128,-1,1
353 260 m 128,-1,54
 372 273 372 273 372 296 c 0,55,56
 372 322 372 322 338 340.5 c 128,-1,57
 304 359 304 359 255 359 c 0,58,59
 221 359 221 359 202.5 346.5 c 128,-1,60
 184 334 184 334 184 312 c 0,61,62
 184 285 184 285 218 266 c 128,-1,63
 252 247 252 247 300 247 c 0,64,53
 334 247 334 247 353 260 c 128,-1,54
EndSplineSet
EndChar

StartChar: copyright
Encoding: 169 169 108
Width: 745
Flags: W
LayerCount: 2
Fore
SplineSet
559.5 643.5 m 128,-1,1
 637 598 637 598 682 520 c 128,-1,2
 727 442 727 442 727 350 c 0,3,4
 727 259 727 259 682 180.5 c 128,-1,5
 637 102 637 102 559 55.5 c 128,-1,6
 481 9 481 9 387 9 c 0,7,8
 294 9 294 9 216.5 55 c 128,-1,9
 139 101 139 101 94.5 179 c 128,-1,10
 50 257 50 257 50 348 c 256,11,12
 50 439 50 439 95 517.5 c 128,-1,13
 140 596 140 596 217.5 642.5 c 128,-1,14
 295 689 295 689 389 689 c 0,15,0
 482 689 482 689 559.5 643.5 c 128,-1,1
254 578 m 128,-1,17
 193 542 193 542 157.5 481 c 128,-1,18
 122 420 122 420 122 348 c 256,19,20
 122 276 122 276 157 215.5 c 128,-1,21
 192 155 192 155 252.5 119.5 c 128,-1,22
 313 84 313 84 387 84 c 256,23,24
 461 84 461 84 522.5 120 c 128,-1,25
 584 156 584 156 619.5 217 c 128,-1,26
 655 278 655 278 655 350 c 256,27,28
 655 422 655 422 620 482.5 c 128,-1,29
 585 543 585 543 524 578.5 c 128,-1,30
 463 614 463 614 389 614 c 256,31,16
 315 614 315 614 254 578 c 128,-1,17
466 501.5 m 128,-1,33
 501 487 501 487 526 461 c 1,34,-1
 483 408 l 1,35,36
 465 428 465 428 442 439.5 c 128,-1,37
 419 451 419 451 396 451 c 0,38,39
 353 451 353 451 323.5 422 c 128,-1,40
 294 393 294 393 294 350 c 256,41,42
 294 307 294 307 323.5 277.5 c 128,-1,43
 353 248 353 248 396 248 c 0,44,45
 418 248 418 248 441 258.5 c 128,-1,46
 464 269 464 269 483 287 c 1,47,-1
 526 239 l 1,48,49
 499 212 499 212 463.5 196 c 128,-1,50
 428 180 428 180 392 180 c 0,51,52
 343 180 343 180 303.5 202 c 128,-1,53
 264 224 264 224 241 263 c 128,-1,54
 218 302 218 302 218 349 c 256,55,56
 218 396 218 396 241 434 c 128,-1,57
 264 472 264 472 304.5 494 c 128,-1,58
 345 516 345 516 395 516 c 0,59,32
 431 516 431 516 466 501.5 c 128,-1,33
EndSplineSet
EndChar

StartChar: ordfeminine
Encoding: 170 170 109
Width: 391
Flags: W
LayerCount: 2
Fore
SplineSet
394.5 759 m 128,-1,1
 430 735 430 735 430 691 c 0,2,3
 430 675 430 675 428 667 c 2,4,-1
 387 458 l 1,5,-1
 282 458 l 1,6,-1
 290 500 l 1,7,8
 249 453 249 453 187 453 c 0,9,10
 140 453 140 453 110.5 477 c 128,-1,11
 81 501 81 501 81 538 c 0,12,13
 81 552 81 552 83 559 c 0,14,15
 92 603 92 603 128.5 624.5 c 128,-1,16
 165 646 165 646 230 647 c 2,17,-1
 320 647 l 1,18,-1
 321 654 l 2,19,20
 322 658 322 658 322 665 c 0,21,22
 322 704 322 704 255 704 c 0,23,24
 216 704 216 704 153 678 c 1,25,-1
 142 749 l 1,26,27
 226 783 226 783 291 783 c 0,28,0
 359 783 359 783 394.5 759 c 128,-1,1
302 559 m 1,30,-1
 309 596 l 1,31,-1
 242 596 l 2,32,33
 214 596 214 596 198.5 584.5 c 128,-1,34
 183 573 183 573 183 552 c 0,35,36
 183 538 183 538 194 530 c 128,-1,37
 205 522 205 522 224 522 c 0,38,29
 271 522 271 522 302 559 c 1,30,-1
EndSplineSet
EndChar

StartChar: logicalnot
Encoding: 172 172 111
Width: 580
Flags: W
LayerCount: 2
Fore
SplineSet
535 421 m 1,0,-1
 516 319 l 1,1,-1
 515 319 l 1,2,-1
 480 139 l 1,3,-1
 368 139 l 1,4,-1
 404 319 l 1,5,-1
 44 319 l 1,6,-1
 64 421 l 1,7,-1
 535 421 l 1,0,-1
EndSplineSet
EndChar

StartChar: registered
Encoding: 174 174 113
Width: 745
Flags: W
LayerCount: 2
Fore
SplineSet
559.5 643.5 m 128,-1,1
 637 598 637 598 682 520 c 128,-1,2
 727 442 727 442 727 350 c 0,3,4
 727 259 727 259 682 180.5 c 128,-1,5
 637 102 637 102 559 55.5 c 128,-1,6
 481 9 481 9 387 9 c 0,7,8
 294 9 294 9 216.5 55 c 128,-1,9
 139 101 139 101 94.5 179 c 128,-1,10
 50 257 50 257 50 348 c 256,11,12
 50 439 50 439 95 517.5 c 128,-1,13
 140 596 140 596 217.5 642.5 c 128,-1,14
 295 689 295 689 389 689 c 0,15,0
 482 689 482 689 559.5 643.5 c 128,-1,1
522.5 120 m 128,-1,17
 584 156 584 156 619.5 217 c 128,-1,18
 655 278 655 278 655 350 c 256,19,20
 655 422 655 422 620 482.5 c 128,-1,21
 585 543 585 543 524 578.5 c 128,-1,22
 463 614 463 614 389 614 c 256,23,24
 315 614 315 614 254 578 c 128,-1,25
 193 542 193 542 157.5 481 c 128,-1,26
 122 420 122 420 122 348 c 256,27,28
 122 276 122 276 157 215.5 c 128,-1,29
 192 155 192 155 252.5 119.5 c 128,-1,30
 313 84 313 84 387 84 c 256,31,16
 461 84 461 84 522.5 120 c 128,-1,17
516 345 m 128,-1,33
 500 318 500 318 469 305 c 1,34,-1
 540 197 l 1,35,-1
 458 197 l 1,36,-1
 405 291 l 1,37,-1
 397 291 l 1,38,-1
 332 291 l 1,39,-1
 332 197 l 1,40,-1
 260 197 l 1,41,-1
 260 522 l 1,42,-1
 397 522 l 2,43,44
 461 522 461 522 496.5 492.5 c 128,-1,45
 532 463 532 463 532 410 c 0,46,32
 532 372 532 372 516 345 c 128,-1,33
332 349 m 1,47,-1
 397 349 l 2,48,49
 429 349 429 349 446 364 c 128,-1,50
 463 379 463 379 463 407 c 256,51,52
 463 435 463 435 446 449.5 c 128,-1,53
 429 464 429 464 397 464 c 2,54,-1
 332 464 l 1,55,-1
 332 349 l 1,47,-1
EndSplineSet
EndChar

StartChar: degree
Encoding: 176 176 115
Width: 371
Flags: W
LayerCount: 2
Fore
SplineSet
372.5 780.5 m 128,-1,1
 407 746 407 746 407 698 c 256,2,3
 407 650 407 650 372.5 615.5 c 128,-1,4
 338 581 338 581 289 581 c 256,5,6
 240 581 240 581 205.5 615.5 c 128,-1,7
 171 650 171 650 171 698 c 256,8,9
 171 746 171 746 205.5 780.5 c 128,-1,10
 240 815 240 815 289 815 c 256,11,0
 338 815 338 815 372.5 780.5 c 128,-1,1
248.5 736.5 m 128,-1,13
 232 721 232 721 232 698 c 256,14,15
 232 675 232 675 248.5 659.5 c 128,-1,16
 265 644 265 644 289 644 c 0,17,18
 312 644 312 644 329 660 c 128,-1,19
 346 676 346 676 346 698 c 256,20,21
 346 720 346 720 329 736 c 128,-1,22
 312 752 312 752 289 752 c 0,23,12
 265 752 265 752 248.5 736.5 c 128,-1,13
EndSplineSet
EndChar

StartChar: plusminus
Encoding: 177 177 116
Width: 575
Flags: W
LayerCount: 2
Fore
SplineSet
185 185 m 1,0,-1
 219 349 l 1,1,-1
 49 349 l 1,2,-1
 68 448 l 1,3,-1
 239 448 l 1,4,-1
 273 612 l 1,5,-1
 371 612 l 1,6,-1
 338 448 l 1,7,-1
 508 448 l 1,8,-1
 488 349 l 1,9,-1
 317 349 l 1,10,-1
 284 185 l 1,11,-1
 185 185 l 1,0,-1
49 6 m 1,12,-1
 69 108 l 1,13,-1
 508 108 l 1,14,-1
 489 6 l 1,15,-1
 49 6 l 1,12,-1
EndSplineSet
EndChar

StartChar: uni00B5
Encoding: 181 181 120
Width: 693
Flags: W
LayerCount: 2
Fore
SplineSet
671 538 m 1,0,-1
 565 0 l 1,1,-1
 411 0 l 1,2,-1
 425 73 l 1,3,4
 360 -7 360 -7 254 -7 c 0,5,6
 218 -7 218 -7 181 3 c 1,7,-1
 142 -194 l 1,8,-1
 -12 -194 l 1,9,-1
 67 201 l 1,10,-1
 70 220 l 1,11,-1
 134 538 l 1,12,-1
 288 538 l 1,13,-1
 229 242 l 2,14,15
 226 227 226 227 226 213 c 0,16,17
 226 173 226 173 250.5 150 c 128,-1,18
 275 127 275 127 319 127 c 0,19,20
 370 127 370 127 409.5 163.5 c 128,-1,21
 449 200 449 200 461 258 c 2,22,-1
 517 538 l 1,23,-1
 671 538 l 1,0,-1
EndSplineSet
EndChar

StartChar: paragraph
Encoding: 182 182 121
Width: 639
Flags: W
LayerCount: 2
Fore
SplineSet
486 -107 m 1,0,-1
 371 -107 l 1,1,-1
 523 651 l 1,2,-1
 412 651 l 1,3,-1
 260 -107 l 1,4,-1
 146 -107 l 1,5,-1
 235 333 l 1,6,-1
 207 333 l 2,7,8
 119 333 119 333 81.5 377.5 c 128,-1,9
 44 422 44 422 44 486 c 0,10,11
 44 508 44 508 49 533 c 0,12,13
 60 589 60 589 94 636.5 c 128,-1,14
 128 684 128 684 187 713 c 128,-1,15
 246 742 246 742 327 742 c 2,16,-1
 656 742 l 1,17,-1
 486 -107 l 1,0,-1
EndSplineSet
EndChar

StartChar: ordmasculine
Encoding: 186 186 125
Width: 415
Flags: W
LayerCount: 2
Fore
SplineSet
415.5 742 m 128,-1,1
 461 702 461 702 461 634 c 0,2,3
 461 581 461 581 435.5 540.5 c 128,-1,4
 410 500 410 500 364.5 477.5 c 128,-1,5
 319 455 319 455 261 455 c 0,6,7
 185 455 185 455 140 495.5 c 128,-1,8
 95 536 95 536 95 603 c 0,9,10
 95 656 95 656 120 696.5 c 128,-1,11
 145 737 145 737 190 759.5 c 128,-1,12
 235 782 235 782 293 782 c 0,13,0
 370 782 370 782 415.5 742 c 128,-1,1
225.5 672.5 m 128,-1,15
 202 647 202 647 202 608 c 0,16,17
 202 576 202 576 220 556.5 c 128,-1,18
 238 537 238 537 269 537 c 0,19,20
 305 537 305 537 328.5 562 c 128,-1,21
 352 587 352 587 352 627 c 0,22,23
 352 660 352 660 334 679 c 128,-1,24
 316 698 316 698 285 698 c 0,25,14
 249 698 249 698 225.5 672.5 c 128,-1,15
EndSplineSet
EndChar

StartChar: questiondown
Encoding: 191 191 130
Width: 461
Flags: W
LayerCount: 2
Fore
SplineSet
175 406.5 m 128,-1,1
 156 426 156 426 156 458 c 0,2,3
 156 496 156 496 180 521 c 128,-1,4
 204 546 204 546 240 546 c 0,5,6
 271 546 271 546 290.5 526 c 128,-1,7
 310 506 310 506 310 474 c 0,8,9
 310 436 310 436 286 411.5 c 128,-1,10
 262 387 262 387 226 387 c 0,11,0
 194 387 194 387 175 406.5 c 128,-1,1
335.5 -106 m 128,-1,13
 271 -164 271 -164 169 -164 c 0,14,15
 79 -164 79 -164 27.5 -121.5 c 128,-1,16
 -24 -79 -24 -79 -24 -5 c 0,17,18
 -24 35 -24 35 -9.5 67.5 c 128,-1,19
 5 100 5 100 25.5 123.5 c 128,-1,20
 46 147 46 147 80 179 c 0,21,22
 120 216 120 216 140 242 c 128,-1,23
 160 268 160 268 164 301 c 1,24,-1
 280 301 l 1,25,26
 273 244 273 244 249 207.5 c 128,-1,27
 225 171 225 171 185 133 c 0,28,29
 152 101 152 101 136.5 78 c 128,-1,30
 121 55 121 55 121 24 c 0,31,32
 121 -37 121 -37 193 -37 c 0,33,34
 280 -37 280 -37 295 57 c 1,35,-1
 414 56 l 1,36,12
 400 -48 400 -48 335.5 -106 c 128,-1,13
EndSplineSet
Substitution2: "<3,3> Small Caps in Latin lookup 11 subtable" questiondown.sc
EndChar

StartChar: AE
Encoding: 198 198 137
Width: 1086
Flags: W
LayerCount: 2
Fore
SplineSet
1089 569 m 1,0,-1
 714 569 l 1,1,-1
 682 417 l 1,2,-1
 1020 417 l 1,3,-1
 995 286 l 1,4,-1
 657 286 l 1,5,-1
 625 132 l 1,6,-1
 1010 132 l 1,7,-1
 985 0 l 1,8,-1
 442 0 l 1,9,-1
 473 154 l 1,10,-1
 225 154 l 1,11,-1
 110 0 l 1,12,-1
 -57 0 l 1,13,-1
 484 700 l 1,14,-1
 1114 700 l 1,15,-1
 1089 569 l 1,0,-1
314 274 m 1,16,-1
 497 274 l 1,17,-1
 557 574 l 1,18,-1
 538 574 l 1,19,-1
 314 274 l 1,16,-1
EndSplineSet
EndChar

StartChar: Ccedilla
Encoding: 199 199 138
Width: 720
Flags: W
LayerCount: 2
Fore
SplineSet
547.5 29 m 128,-1,1
 477 -4 477 -4 407 -10 c 1,2,-1
 383 -52 l 1,3,4
 418 -60 418 -60 434.5 -78.5 c 128,-1,5
 451 -97 451 -97 451 -122 c 0,6,7
 451 -174 451 -174 409 -201.5 c 128,-1,8
 367 -229 367 -229 306 -229 c 0,9,10
 251 -229 251 -229 203 -208 c 1,11,-1
 245 -128 l 1,12,13
 269 -139 269 -139 297 -139 c 0,14,15
 316 -139 316 -139 329 -131.5 c 128,-1,16
 342 -124 342 -124 342 -113 c 0,17,18
 342 -103 342 -103 329 -97 c 128,-1,19
 316 -91 316 -91 294 -91 c 2,20,-1
 268 -91 l 1,21,-1
 312 -5 l 1,22,23
 233 9 233 9 173 54 c 128,-1,24
 113 99 113 99 79.5 168 c 128,-1,25
 46 237 46 237 46 320 c 0,26,27
 46 428 46 428 101.5 518 c 128,-1,28
 157 608 157 608 251 659.5 c 128,-1,29
 345 711 345 711 457 711 c 0,30,31
 533 711 533 711 603.5 679.5 c 128,-1,32
 674 648 674 648 721 594 c 1,33,-1
 618 481 l 1,34,35
 586 524 586 524 540 548.5 c 128,-1,36
 494 573 494 573 445 573 c 0,37,38
 382 573 382 573 327.5 541 c 128,-1,39
 273 509 273 509 241 454 c 128,-1,40
 209 399 209 399 209 333 c 0,41,42
 209 277 209 277 233.5 231.5 c 128,-1,43
 258 186 258 186 301.5 159.5 c 128,-1,44
 345 133 345 133 400 133 c 0,45,46
 447 133 447 133 498 155.5 c 128,-1,47
 549 178 549 178 591 216 c 1,48,-1
 674 115 l 1,49,0
 618 62 618 62 547.5 29 c 128,-1,1
EndSplineSet
EndChar

StartChar: multiply
Encoding: 215 215 154
Width: 554
Flags: W
LayerCount: 2
Fore
SplineSet
478 446 m 1,0,-1
 359 327 l 1,1,-1
 478 207 l 1,2,-1
 409 135 l 1,3,-1
 289 256 l 1,4,-1
 168 135 l 1,5,-1
 99 207 l 1,6,-1
 218 327 l 1,7,-1
 99 446 l 1,8,-1
 168 518 l 1,9,-1
 289 397 l 1,10,-1
 409 518 l 1,11,-1
 478 446 l 1,0,-1
EndSplineSet
EndChar

StartChar: Oslash
Encoding: 216 216 155
Width: 813
Flags: W
LayerCount: 2
Fore
SplineSet
771 526.5 m 128,-1,1
 802 461 802 461 802 382 c 0,2,3
 802 274 802 274 746 183.5 c 128,-1,4
 690 93 690 93 595 41 c 128,-1,5
 500 -11 500 -11 388 -11 c 0,6,7
 296 -11 296 -11 222 26 c 1,8,-1
 160 -55 l 1,9,-1
 51 -55 l 1,10,-1
 150 76 l 1,11,12
 100 121 100 121 73 183.5 c 128,-1,13
 46 246 46 246 46 320 c 0,14,15
 46 429 46 429 102 518.5 c 128,-1,16
 158 608 158 608 253 659.5 c 128,-1,17
 348 711 348 711 460 711 c 0,18,19
 541 711 541 711 608 682 c 1,20,-1
 663 755 l 1,21,-1
 773 755 l 1,22,-1
 684 637 l 1,23,0
 740 592 740 592 771 526.5 c 128,-1,1
248 206 m 1,25,-1
 516 561 l 1,26,27
 485 573 485 573 448 573 c 0,28,29
 386 573 386 573 330.5 540.5 c 128,-1,30
 275 508 275 508 241.5 452.5 c 128,-1,31
 208 397 208 397 208 331 c 0,32,24
 208 260 208 260 248 206 c 1,25,-1
519.5 159.5 m 128,-1,34
 574 192 574 192 606.5 248.5 c 128,-1,35
 639 305 639 305 639 371 c 0,36,37
 639 412 639 412 625.5 448 c 128,-1,38
 612 484 612 484 588 511 c 1,39,-1
 314 149 l 1,40,41
 356 127 356 127 403 127 c 0,42,33
 465 127 465 127 519.5 159.5 c 128,-1,34
EndSplineSet
EndChar

StartChar: Thorn
Encoding: 222 222 161
Width: 699
Flags: W
LayerCount: 2
Fore
SplineSet
621 554.5 m 128,-1,1
 687 503 687 503 687 411 c 0,2,3
 687 323 687 323 644 256 c 128,-1,4
 601 189 601 189 521.5 152 c 128,-1,5
 442 115 442 115 335 115 c 2,6,-1
 205 115 l 1,7,-1
 182 0 l 1,8,-1
 23 0 l 1,9,-1
 163 700 l 1,10,-1
 322 700 l 1,11,-1
 303 606 l 1,12,-1
 433 606 l 2,13,0
 555 606 555 606 621 554.5 c 128,-1,1
478 280 m 128,-1,15
 522 319 522 319 522 387 c 0,16,17
 522 432 522 432 491.5 456 c 128,-1,18
 461 480 461 480 402 480 c 2,19,-1
 278 480 l 1,20,-1
 230 241 l 1,21,-1
 353 241 l 2,22,14
 434 241 434 241 478 280 c 128,-1,15
EndSplineSet
EndChar

StartChar: germandbls
Encoding: 223 223 162
Width: 663
Flags: W
LayerCount: 2
Fore
SplineSet
533 727 m 128,-1,1
 584 705 584 705 612.5 665.5 c 128,-1,2
 641 626 641 626 641 575 c 0,3,4
 641 516 641 516 602.5 463.5 c 128,-1,5
 564 411 564 411 500 383 c 1,6,7
 553 368 553 368 583.5 328.5 c 128,-1,8
 614 289 614 289 614 235 c 0,9,10
 614 167 614 167 573 113.5 c 128,-1,11
 532 60 532 60 459.5 30 c 128,-1,12
 387 0 387 0 295 0 c 2,13,-1
 245 0 l 1,14,-1
 268 114 l 1,15,-1
 315 114 l 2,16,17
 382 114 382 114 422.5 146 c 128,-1,18
 463 178 463 178 463 230 c 0,19,20
 463 268 463 268 430.5 289 c 128,-1,21
 398 310 398 310 339 310 c 2,22,-1
 322 310 l 1,23,-1
 344 423 l 1,24,25
 409 423 409 423 448 457.5 c 128,-1,26
 487 492 487 492 487 551 c 0,27,28
 487 588 487 588 464.5 608.5 c 128,-1,29
 442 629 442 629 403 629 c 0,30,31
 350 629 350 629 313.5 595.5 c 128,-1,32
 277 562 277 562 264 502 c 2,33,-1
 164 0 l 1,34,-1
 11 0 l 1,35,-1
 109 491 l 2,36,37
 133 612 133 612 214.5 680.5 c 128,-1,38
 296 749 296 749 416 749 c 0,39,0
 482 749 482 749 533 727 c 128,-1,1
EndSplineSet
Substitution2: "<3,3> Small Caps in Latin lookup 11 subtable" germandbls.sc
EndChar

StartChar: ae
Encoding: 230 230 169
Width: 960
Flags: W
LayerCount: 2
Fore
SplineSet
60 34.5 m 128,-1,1
 11 76 11 76 11 147 c 0,2,3
 11 227 11 227 67 270.5 c 128,-1,4
 123 314 123 314 229 314 c 2,5,-1
 381 314 l 1,6,-1
 383 340 l 2,7,8
 386 381 386 381 360 402 c 128,-1,9
 334 423 334 423 281 423 c 0,10,11
 242 423 242 423 195.5 410.5 c 128,-1,12
 149 398 149 398 102 375 c 1,13,-1
 71 485 l 1,14,15
 204 544 204 544 318 544 c 0,16,17
 379 544 379 544 424.5 526.5 c 128,-1,18
 470 509 470 509 496 478 c 1,19,20
 568 543 568 543 677 543 c 0,21,22
 755 543 755 543 812 511.5 c 128,-1,23
 869 480 869 480 900 423 c 128,-1,24
 931 366 931 366 931 289 c 0,25,26
 931 260 931 260 927 235 c 1,27,-1
 530 235 l 1,28,-1
 529 220 l 2,29,30
 526 175 526 175 564 144.5 c 128,-1,31
 602 114 602 114 656 114 c 0,32,33
 695 114 695 114 732 129.5 c 128,-1,34
 769 145 769 145 799 173 c 1,35,-1
 877 87 l 1,36,37
 782 -6 782 -6 641 -6 c 0,38,39
 564 -6 564 -6 508 25 c 128,-1,40
 452 56 452 56 425 111 c 1,41,42
 352 -7 352 -7 194 -7 c 0,43,0
 109 -7 109 -7 60 34.5 c 128,-1,1
781 314 m 1,44,45
 785 370 785 370 756.5 402.5 c 128,-1,46
 728 435 728 435 677 435 c 256,47,48
 626 435 626 435 587 401 c 128,-1,49
 548 367 548 367 535 314 c 1,50,-1
 781 314 l 1,44,45
309 116.5 m 128,-1,52
 344 136 344 136 368 174 c 1,53,-1
 374 235 l 1,54,-1
 257 235 l 2,55,56
 210 237 210 237 183 216 c 128,-1,57
 156 195 156 195 156 157 c 0,58,59
 156 129 156 129 176 113 c 128,-1,60
 196 97 196 97 231 97 c 0,61,51
 274 97 274 97 309 116.5 c 128,-1,52
EndSplineSet
Substitution2: "<3,3> Small Caps in Latin lookup 11 subtable" ae.sc
EndChar

StartChar: ccedilla
Encoding: 231 231 170
Width: 582
Flags: W
LayerCount: 2
Fore
SplineSet
429 185 m 1,1,-1
 528 113 l 1,2,3
 491 60 491 60 432 29.5 c 128,-1,4
 373 -1 373 -1 299 -5 c 1,5,-1
 273 -52 l 1,6,7
 308 -60 308 -60 324.5 -78.5 c 128,-1,8
 341 -97 341 -97 341 -122 c 0,9,10
 341 -174 341 -174 299 -201.5 c 128,-1,11
 257 -229 257 -229 196 -229 c 0,12,13
 141 -229 141 -229 93 -208 c 1,14,-1
 135 -128 l 1,15,16
 159 -139 159 -139 187 -139 c 0,17,18
 206 -139 206 -139 219 -131.5 c 128,-1,19
 232 -124 232 -124 232 -113 c 0,20,21
 232 -103 232 -103 219 -97 c 128,-1,22
 206 -91 206 -91 184 -91 c 2,23,-1
 158 -91 l 1,24,-1
 206 2 l 1,25,26
 123 22 123 22 76 85 c 128,-1,27
 29 148 29 148 29 240 c 0,28,29
 29 328 29 328 68 397 c 128,-1,30
 107 466 107 466 176.5 504.5 c 128,-1,31
 246 543 246 543 334 543 c 0,32,33
 411 543 411 543 468 513.5 c 128,-1,34
 525 484 525 484 556 430 c 1,35,-1
 445 355 l 1,36,37
 426 383 426 383 396 398 c 128,-1,38
 366 413 366 413 328 413 c 0,39,40
 287 413 287 413 254.5 392.5 c 128,-1,41
 222 372 222 372 203 335 c 128,-1,42
 184 298 184 298 184 251 c 0,43,44
 184 193 184 193 215 157.5 c 128,-1,45
 246 122 246 122 298 122 c 0,46,0
 382 122 382 122 429 185 c 1,1,-1
EndSplineSet
Substitution2: "<3,3> Small Caps in Latin lookup 11 subtable" ccedilla.sc
EndChar

StartChar: eth
Encoding: 240 240 179
Width: 602
Flags: W
LayerCount: 2
Fore
SplineSet
460 613 m 1,0,1
 517 550 517 550 547 474.5 c 128,-1,2
 577 399 577 399 577 319 c 0,3,4
 577 223 577 223 538 149.5 c 128,-1,5
 499 76 499 76 428 35 c 128,-1,6
 357 -6 357 -6 265 -6 c 0,7,8
 190 -6 190 -6 134.5 20 c 128,-1,9
 79 46 79 46 49 93 c 128,-1,10
 19 140 19 140 19 204 c 0,11,12
 19 275 19 275 49.5 330 c 128,-1,13
 80 385 80 385 135.5 415.5 c 128,-1,14
 191 446 191 446 262 446 c 0,15,16
 318 446 318 446 365 426.5 c 128,-1,17
 412 407 412 407 434 376 c 1,18,19
 417 469 417 469 336 560 c 1,20,-1
 153 483 l 1,21,-1
 127 546 l 1,22,-1
 282 612 l 1,23,24
 231 655 231 655 167 689 c 1,25,-1
 274 750 l 1,26,27
 349 714 349 714 407 665 c 1,28,-1
 563 731 l 1,29,-1
 589 667 l 1,30,-1
 460 613 l 1,0,1
368.5 161.5 m 128,-1,32
 406 197 406 197 406 249 c 0,33,34
 406 289 406 289 377.5 313.5 c 128,-1,35
 349 338 349 338 299 338 c 0,36,37
 242 338 242 338 204.5 302.5 c 128,-1,38
 167 267 167 267 167 214 c 0,39,40
 167 173 167 173 195 149.5 c 128,-1,41
 223 126 223 126 271 126 c 0,42,31
 331 126 331 126 368.5 161.5 c 128,-1,32
EndSplineSet
Substitution2: "<3,3> Small Caps in Latin lookup 11 subtable" eth.sc
EndChar

StartChar: divide
Encoding: 247 247 186
Width: 506
Flags: W
LayerCount: 2
Fore
SplineSet
351.5 568 m 128,-1,1
 368 551 368 551 368 524 c 0,2,3
 368 486 368 486 342 460.5 c 128,-1,4
 316 435 316 435 280 435 c 0,5,6
 253 435 253 435 236.5 452.5 c 128,-1,7
 220 470 220 470 220 497 c 0,8,9
 220 534 220 534 245.5 559.5 c 128,-1,10
 271 585 271 585 307 585 c 0,11,0
 335 585 335 585 351.5 568 c 128,-1,1
494 377 m 1,12,-1
 474 275 l 1,13,-1
 35 275 l 1,14,-1
 54 377 l 1,15,-1
 494 377 l 1,12,-1
281.5 211 m 128,-1,17
 298 194 298 194 298 167 c 0,18,19
 298 129 298 129 272 103.5 c 128,-1,20
 246 78 246 78 210 78 c 0,21,22
 183 78 183 78 166.5 95.5 c 128,-1,23
 150 113 150 113 150 140 c 0,24,25
 150 177 150 177 175.5 202.5 c 128,-1,26
 201 228 201 228 237 228 c 0,27,16
 265 228 265 228 281.5 211 c 128,-1,17
EndSplineSet
EndChar

StartChar: oslash
Encoding: 248 248 187
Width: 639
Flags: W
LayerCount: 2
Fore
SplineSet
586.5 409.5 m 128,-1,1
 610 359 610 359 610 296 c 0,2,3
 610 208 610 208 569 139 c 128,-1,4
 528 70 528 70 456 32 c 128,-1,5
 384 -6 384 -6 292 -6 c 0,6,7
 230 -6 230 -6 182 12 c 1,8,-1
 111 -89 l 1,9,-1
 27 -89 l 1,10,-1
 121 45 l 1,11,12
 76 78 76 78 52.5 128.5 c 128,-1,13
 29 179 29 179 29 242 c 0,14,15
 29 330 29 330 70 398.5 c 128,-1,16
 111 467 111 467 183 505 c 128,-1,17
 255 543 255 543 347 543 c 0,18,19
 408 543 408 543 457 525 c 1,20,-1
 528 627 l 1,21,-1
 612 627 l 1,22,-1
 518 493 l 1,23,0
 563 460 563 460 586.5 409.5 c 128,-1,1
200 158 m 1,25,-1
 383 419 l 1,26,27
 359 427 359 427 336 427 c 0,28,29
 290 427 290 427 253.5 404 c 128,-1,30
 217 381 217 381 196 340.5 c 128,-1,31
 175 300 175 300 175 249 c 0,32,24
 175 196 175 196 200 158 c 1,25,-1
385.5 130 m 128,-1,34
 422 153 422 153 443 193.5 c 128,-1,35
 464 234 464 234 464 286 c 0,36,37
 464 340 464 340 437 377 c 1,38,-1
 254 116 l 1,39,40
 277 107 277 107 303 107 c 0,41,33
 349 107 349 107 385.5 130 c 128,-1,34
EndSplineSet
Substitution2: "<3,3> Small Caps in Latin lookup 11 subtable" oslash.sc
EndChar

StartChar: thorn
Encoding: 254 254 193
Width: 689
Flags: W
LayerCount: 2
Fore
SplineSet
558.5 514 m 128,-1,1
 607 484 607 484 634 430 c 128,-1,2
 661 376 661 376 661 306 c 0,3,4
 661 219 661 219 623 147.5 c 128,-1,5
 585 76 585 76 519.5 35 c 128,-1,6
 454 -6 454 -6 374 -6 c 0,7,8
 310 -6 310 -6 265.5 20.5 c 128,-1,9
 221 47 221 47 199 97 c 1,10,-1
 140 -194 l 1,11,-1
 -13 -194 l 1,12,-1
 174 742 l 1,13,-1
 327 742 l 1,14,-1
 272 469 l 1,15,16
 307 505 307 505 352 524.5 c 128,-1,17
 397 544 397 544 447 544 c 0,18,0
 510 544 510 544 558.5 514 c 128,-1,1
310.5 399 m 128,-1,20
 275 376 275 376 254 337 c 128,-1,21
 233 298 233 298 233 251 c 0,22,23
 233 194 233 194 265 159.5 c 128,-1,24
 297 125 297 125 350 125 c 0,25,26
 392 125 392 125 428 148 c 128,-1,27
 464 171 464 171 485 210.5 c 128,-1,28
 506 250 506 250 506 297 c 0,29,30
 506 354 506 354 474 388 c 128,-1,31
 442 422 442 422 389 422 c 0,32,19
 346 422 346 422 310.5 399 c 128,-1,20
EndSplineSet
Substitution2: "<3,3> Small Caps in Latin lookup 11 subtable" thorn.sc
EndChar

StartChar: Aogonek
Encoding: 260 260 199
Width: 759
Flags: W
LayerCount: 2
Fore
SplineSet
601 -58.5 m 128,-1,1
 577 -83 577 -83 577 -107 c 0,2,3
 577 -127 577 -127 597 -127 c 0,4,5
 614 -127 614 -127 629 -119 c 1,6,-1
 640 -207 l 1,7,8
 587 -228 587 -228 543 -228 c 256,9,10
 499 -228 499 -228 475 -206.5 c 128,-1,11
 451 -185 451 -185 451 -147 c 0,12,13
 451 -70 451 -70 539 0 c 1,14,-1
 507 136 l 1,15,-1
 183 136 l 1,16,-1
 106 0 l 1,17,-1
 -57 0 l 1,18,-1
 363 700 l 1,19,-1
 525 700 l 1,20,-1
 709 0 l 1,21,-1
 679 0 l 1,22,0
 625 -34 625 -34 601 -58.5 c 128,-1,1
256 263 m 1,23,-1
 478 263 l 1,24,-1
 413 540 l 1,25,-1
 256 263 l 1,23,-1
EndSplineSet
EndChar

StartChar: aogonek
Encoding: 261 261 200
Width: 684
Flags: W
LayerCount: 2
Fore
SplineSet
662 538 m 1,0,-1
 555 0 l 1,1,-1
 535 0 l 1,2,3
 481 -34 481 -34 457 -58.5 c 128,-1,4
 433 -83 433 -83 433 -107 c 0,5,6
 433 -127 433 -127 453 -127 c 0,7,8
 470 -127 470 -127 485 -119 c 1,9,-1
 496 -207 l 1,10,11
 443 -228 443 -228 399 -228 c 256,12,13
 355 -228 355 -228 331 -206.5 c 128,-1,14
 307 -185 307 -185 307 -147 c 256,15,16
 307 -109 307 -109 330.5 -69.5 c 128,-1,17
 354 -30 354 -30 404 7 c 1,18,-1
 417 68 l 1,19,20
 343 -6 343 -6 242 -6 c 0,21,22
 179 -6 179 -6 130.5 24 c 128,-1,23
 82 54 82 54 55 108 c 128,-1,24
 28 162 28 162 28 232 c 0,25,26
 28 319 28 319 65.5 390.5 c 128,-1,27
 103 462 103 462 169 503 c 128,-1,28
 235 544 235 544 315 544 c 0,29,30
 379 544 379 544 423 517.5 c 128,-1,31
 467 491 467 491 490 440 c 1,32,-1
 509 538 l 1,33,-1
 662 538 l 1,0,-1
378 138 m 128,-1,35
 414 161 414 161 435 200.5 c 128,-1,36
 456 240 456 240 456 287 c 0,37,38
 456 344 456 344 424 378 c 128,-1,39
 392 412 392 412 339 412 c 0,40,41
 297 412 297 412 261 389 c 128,-1,42
 225 366 225 366 204 326.5 c 128,-1,43
 183 287 183 287 183 241 c 0,44,45
 183 183 183 183 215 149 c 128,-1,46
 247 115 247 115 300 115 c 0,47,34
 342 115 342 115 378 138 c 128,-1,35
EndSplineSet
Substitution2: "<3,3> Small Caps in Latin lookup 11 subtable" aogonek.sc
EndChar

StartChar: Dcroat
Encoding: 272 272 211
Width: 771
Flags: W
LayerCount: 2
Fore
SplineSet
618 660 m 128,-1,1
 692 620 692 620 730 548.5 c 128,-1,2
 768 477 768 477 763 384 c 0,3,4
 757 273 757 273 699 185.5 c 128,-1,5
 641 98 641 98 544.5 49 c 128,-1,6
 448 0 448 0 332 0 c 2,7,-1
 24 0 l 1,8,-1
 86 311 l 1,9,-1
 15 311 l 1,10,-1
 30 390 l 1,11,-1
 101 390 l 1,12,-1
 163 700 l 1,13,-1
 444 700 l 2,14,0
 544 700 544 700 618 660 c 128,-1,1
551.5 516.5 m 128,-1,16
 502 567 502 567 421 567 c 2,17,-1
 296 567 l 1,18,-1
 260 390 l 1,19,-1
 415 390 l 1,20,-1
 400 311 l 1,21,-1
 245 311 l 1,22,-1
 209 133 l 1,23,-1
 361 133 l 2,24,25
 426 133 426 133 481 165.5 c 128,-1,26
 536 198 536 198 568.5 255.5 c 128,-1,27
 601 313 601 313 601 384 c 0,28,15
 601 466 601 466 551.5 516.5 c 128,-1,16
EndSplineSet
EndChar

StartChar: dcroat
Encoding: 273 273 212
Width: 678
Flags: W
LayerCount: 2
Fore
SplineSet
739 581 m 1,0,-1
 672 581 l 1,1,-1
 557 0 l 1,2,-1
 404 0 l 1,3,-1
 417 63 l 1,4,5
 343 -6 343 -6 244 -6 c 0,6,7
 180 -6 180 -6 131 22.5 c 128,-1,8
 82 51 82 51 54.5 103 c 128,-1,9
 27 155 27 155 27 222 c 0,10,11
 27 303 27 303 64 370.5 c 128,-1,12
 101 438 101 438 166 476.5 c 128,-1,13
 231 515 231 515 311 515 c 0,14,15
 374 515 374 515 418.5 491 c 128,-1,16
 463 467 463 467 486 421 c 1,17,-1
 518 581 l 1,18,-1
 334 581 l 1,19,-1
 349 661 l 1,20,-1
 535 661 l 1,21,-1
 551 742 l 1,22,-1
 704 742 l 1,23,-1
 688 661 l 1,24,-1
 754 661 l 1,25,-1
 739 581 l 1,0,-1
377.5 136 m 128,-1,27
 413 157 413 157 433.5 192.5 c 128,-1,28
 454 228 454 228 454 269 c 0,29,30
 454 321 454 321 422 352 c 128,-1,31
 390 383 390 383 337 383 c 0,32,33
 295 383 295 383 259.5 362.5 c 128,-1,34
 224 342 224 342 203 306.5 c 128,-1,35
 182 271 182 271 182 229 c 0,36,37
 182 177 182 177 214.5 146 c 128,-1,38
 247 115 247 115 300 115 c 0,39,26
 342 115 342 115 377.5 136 c 128,-1,27
EndSplineSet
Substitution2: "<3,3> Small Caps in Latin lookup 11 subtable" dcroat.sc
EndChar

StartChar: Eogonek
Encoding: 280 280 219
Width: 668
Flags: W
LayerCount: 2
Fore
SplineSet
295 569 m 1,0,-1
 264 417 l 1,1,-1
 602 417 l 1,2,-1
 576 286 l 1,3,-1
 238 286 l 1,4,-1
 207 132 l 1,5,-1
 592 132 l 1,6,-1
 567 0 l 1,7,8
 513 -34 513 -34 489 -58.5 c 128,-1,9
 465 -83 465 -83 465 -107 c 0,10,11
 465 -127 465 -127 485 -127 c 0,12,13
 502 -127 502 -127 517 -119 c 1,14,-1
 528 -207 l 1,15,16
 475 -228 475 -228 431 -228 c 256,17,18
 387 -228 387 -228 363 -206.5 c 128,-1,19
 339 -185 339 -185 339 -147 c 0,20,21
 339 -69 339 -69 426 0 c 1,22,-1
 23 0 l 1,23,-1
 163 700 l 1,24,-1
 696 700 l 1,25,-1
 670 569 l 1,26,-1
 295 569 l 1,0,-1
EndSplineSet
EndChar

StartChar: eogonek
Encoding: 281 281 220
Width: 611
Flags: W
LayerCount: 2
Fore
SplineSet
467.5 513.5 m 128,-1,1
 524 484 524 484 554.5 430.5 c 128,-1,2
 585 377 585 377 585 306 c 0,3,4
 585 265 585 265 575 222 c 1,5,-1
 180 222 l 1,6,7
 185 170 185 170 219 141.5 c 128,-1,8
 253 113 253 113 311 113 c 0,9,10
 346 113 346 113 380.5 125 c 128,-1,11
 415 137 415 137 443 159 c 1,12,-1
 518 71 l 1,13,14
 503 57 503 57 488 47 c 0,15,16
 442 10 442 10 411.5 -33 c 128,-1,17
 381 -76 381 -76 381 -105 c 0,18,19
 381 -127 381 -127 401 -127 c 0,20,21
 416 -127 416 -127 432 -119 c 1,22,-1
 443 -207 l 1,23,24
 390 -228 390 -228 347 -228 c 256,25,26
 304 -228 304 -228 279.5 -206.5 c 128,-1,27
 255 -185 255 -185 255 -144 c 0,28,29
 255 -108 255 -108 272 -74.5 c 128,-1,30
 289 -41 289 -41 327 -5 c 1,31,32
 320 -6 320 -6 306 -6 c 0,33,34
 222 -6 222 -6 159.5 24 c 128,-1,35
 97 54 97 54 63 109.5 c 128,-1,36
 29 165 29 165 29 238 c 0,37,38
 29 324 29 324 68.5 394 c 128,-1,39
 108 464 108 464 177.5 503.5 c 128,-1,40
 247 543 247 543 334 543 c 0,41,0
 411 543 411 543 467.5 513.5 c 128,-1,1
419 397 m 128,-1,43
 392 428 392 428 340 428 c 0,44,45
 290 428 290 428 250 396.5 c 128,-1,46
 210 365 210 365 192 313 c 1,47,-1
 442 313 l 1,48,42
 446 366 446 366 419 397 c 128,-1,43
EndSplineSet
Substitution2: "<3,3> Small Caps in Latin lookup 11 subtable" eogonek.sc
EndChar

StartChar: Hbar
Encoding: 294 294 233
Width: 862
Flags: W
LayerCount: 2
Fore
SplineSet
899 598 m 1,0,-1
 884 519 l 1,1,-1
 798 519 l 1,2,-1
 694 0 l 1,3,-1
 535 0 l 1,4,-1
 590 277 l 1,5,-1
 274 277 l 1,6,-1
 219 0 l 1,7,-1
 61 0 l 1,8,-1
 165 519 l 1,9,-1
 78 519 l 1,10,-1
 93 599 l 1,11,-1
 181 599 l 1,12,-1
 201 700 l 1,13,-1
 359 700 l 1,14,-1
 339 599 l 1,15,-1
 655 598 l 1,16,-1
 675 700 l 1,17,-1
 834 700 l 1,18,-1
 814 598 l 1,19,-1
 899 598 l 1,0,-1
617 408 m 1,20,-1
 639 519 l 1,21,-1
 323 519 l 1,22,-1
 301 408 l 1,23,-1
 617 408 l 1,20,-1
EndSplineSet
EndChar

StartChar: hbar
Encoding: 295 295 234
Width: 675
Flags: W
LayerCount: 2
Fore
SplineSet
578.5 469 m 128,-1,1
 630 423 630 423 630 347 c 0,2,3
 630 327 630 327 625 300 c 2,4,-1
 565 0 l 1,5,-1
 411 0 l 1,6,-1
 467 278 l 2,7,8
 470 292 470 292 470 302 c 0,9,10
 470 339 470 339 445 360 c 128,-1,11
 420 381 420 381 375 381 c 0,12,13
 324 381 324 381 285 348 c 128,-1,14
 246 315 246 315 235 261 c 2,15,-1
 181 0 l 1,16,-1
 28 0 l 1,17,-1
 142 581 l 1,18,-1
 75 581 l 1,19,-1
 91 661 l 1,20,-1
 158 661 l 1,21,-1
 174 742 l 1,22,-1
 328 742 l 1,23,-1
 312 661 l 1,24,-1
 496 661 l 1,25,-1
 480 581 l 1,26,-1
 296 581 l 1,27,-1
 268 440 l 1,28,29
 331 515 331 515 438 515 c 0,30,0
 527 515 527 515 578.5 469 c 128,-1,1
EndSplineSet
Substitution2: "<3,3> Small Caps in Latin lookup 11 subtable" hbar.sc
EndChar

StartChar: Iogonek
Encoding: 302 302 241
Width: 313
Flags: W
LayerCount: 2
Fore
SplineSet
322 700 m 1,0,-1
 182 0 l 1,1,-1
 159 0 l 1,2,3
 105 -34 105 -34 81 -58.5 c 128,-1,4
 57 -83 57 -83 57 -107 c 0,5,6
 57 -127 57 -127 77 -127 c 0,7,8
 94 -127 94 -127 109 -119 c 1,9,-1
 120 -207 l 1,10,11
 67 -228 67 -228 23 -228 c 256,12,13
 -21 -228 -21 -228 -45 -206.5 c 128,-1,14
 -69 -185 -69 -185 -69 -147 c 0,15,16
 -69 -110 -69 -110 -46.5 -71.5 c 128,-1,17
 -24 -33 -24 -33 24 4 c 1,18,-1
 163 700 l 1,19,-1
 322 700 l 1,0,-1
EndSplineSet
EndChar

StartChar: iogonek
Encoding: 303 303 242
Width: 302
Flags: W
LayerCount: 2
Fore
SplineSet
302 757.5 m 128,-1,1
 321 738 321 738 321 707 c 0,2,3
 321 664 321 664 291 634.5 c 128,-1,4
 261 605 261 605 219 605 c 0,5,6
 188 605 188 605 169 625 c 128,-1,7
 150 645 150 645 150 676 c 0,8,9
 150 719 150 719 179.5 748 c 128,-1,10
 209 777 209 777 251 777 c 0,11,0
 283 777 283 777 302 757.5 c 128,-1,1
128 538 m 1,12,-1
 281 538 l 1,13,-1
 174 0 l 1,14,-1
 153 0 l 1,15,16
 99 -34 99 -34 75 -58.5 c 128,-1,17
 51 -83 51 -83 51 -107 c 0,18,19
 51 -127 51 -127 71 -127 c 0,20,21
 88 -127 88 -127 103 -119 c 1,22,-1
 114 -207 l 1,23,24
 61 -228 61 -228 17 -228 c 256,25,26
 -27 -228 -27 -228 -51 -206.5 c 128,-1,27
 -75 -185 -75 -185 -75 -147 c 0,28,29
 -75 -65 -75 -65 23 8 c 1,30,-1
 128 538 l 1,12,-1
EndSplineSet
Substitution2: "<3,3> Small Caps in Latin lookup 11 subtable" iogonek.sc
EndChar

StartChar: dotlessi
Encoding: 305 305 244
Width: 302
Flags: W
LayerCount: 2
Fore
SplineSet
281 538 m 1,0,-1
 174 0 l 1,1,-1
 21 0 l 1,2,-1
 128 538 l 1,3,-1
 281 538 l 1,0,-1
EndSplineSet
Substitution2: "<3,3> Small Caps in Latin lookup 11 subtable" dotlessi.sc
EndChar

StartChar: kgreenlandic
Encoding: 312 312 251
Width: 633
Flags: W
LayerCount: 2
Fore
SplineSet
673 538 m 1,0,-1
 419 319 l 1,1,-1
 564 0 l 1,2,-1
 382 0 l 1,3,-1
 298 214 l 1,4,-1
 201 130 l 1,5,-1
 175 0 l 1,6,-1
 21 0 l 1,7,-1
 128 538 l 1,8,-1
 282 538 l 1,9,-1
 242 338 l 1,10,-1
 477 538 l 1,11,-1
 673 538 l 1,0,-1
EndSplineSet
Substitution2: "<3,3> Small Caps in Latin lookup 11 subtable" kgreenlandic.sc
EndChar

StartChar: Lslash
Encoding: 321 321 260
Width: 583
Flags: W
LayerCount: 2
Fore
SplineSet
240 139 m 1,0,-1
 539 139 l 1,1,-1
 512 0 l 1,2,-1
 55 0 l 1,3,-1
 111 281 l 1,4,-1
 18 236 l 1,5,-1
 36 330 l 1,6,-1
 130 376 l 1,7,-1
 195 700 l 1,8,-1
 353 700 l 1,9,-1
 305 460 l 1,10,-1
 435 523 l 1,11,-1
 417 429 l 1,12,-1
 286 366 l 1,13,-1
 240 139 l 1,0,-1
EndSplineSet
EndChar

StartChar: lslash
Encoding: 322 322 261
Width: 402
Flags: W
LayerCount: 2
Fore
SplineSet
433 523 m 1,0,-1
 415 429 l 1,1,-1
 300 373 l 1,2,-1
 226 0 l 1,3,-1
 72 0 l 1,4,-1
 130 291 l 1,5,-1
 17 236 l 1,6,-1
 35 330 l 1,7,-1
 149 385 l 1,8,-1
 220 742 l 1,9,-1
 374 742 l 1,10,-1
 319 468 l 1,11,-1
 433 523 l 1,0,-1
EndSplineSet
Substitution2: "<3,3> Small Caps in Latin lookup 11 subtable" lslash.sc
EndChar

StartChar: Eng
Encoding: 330 330 269
Width: 788
Flags: W
LayerCount: 2
Fore
SplineSet
657 0 m 2,0,1
 634 -98 634 -98 559.5 -155 c 128,-1,2
 485 -212 485 -212 380 -212 c 0,3,4
 271 -212 271 -212 207 -148 c 1,5,-1
 293 -26 l 1,6,7
 319 -47 319 -47 349 -58 c 128,-1,8
 379 -69 379 -69 407 -69 c 0,9,10
 443 -69 443 -69 469.5 -49 c 128,-1,11
 496 -29 496 -29 508 9 c 1,12,-1
 266 449 l 1,13,-1
 174 0 l 1,14,-1
 23 0 l 1,15,-1
 163 700 l 1,16,-1
 307 700 l 1,17,-1
 555 250 l 1,18,-1
 647 700 l 1,19,-1
 797 700 l 1,20,-1
 657 0 l 2,0,1
EndSplineSet
EndChar

StartChar: eng
Encoding: 331 331 270
Width: 670
Flags: W
LayerCount: 2
Fore
SplineSet
588.5 503.5 m 128,-1,1
 631 463 631 463 631 392 c 0,2,3
 631 367 631 367 625 338 c 2,4,-1
 554 -18 l 2,5,6
 542 -76 542 -76 508.5 -117.5 c 128,-1,7
 475 -159 475 -159 428 -180 c 128,-1,8
 381 -201 381 -201 329 -201 c 0,9,10
 258 -201 258 -201 208 -165 c 1,11,-1
 273 -52 l 1,12,13
 300 -73 300 -73 332 -73 c 0,14,15
 357 -73 357 -73 376 -57.5 c 128,-1,16
 395 -42 395 -42 401 -10 c 2,17,-1
 463 293 l 2,18,19
 466 310 466 310 466 323 c 0,20,21
 466 361 466 361 443.5 382 c 128,-1,22
 421 403 421 403 380 403 c 0,23,24
 325 403 325 403 283.5 368 c 128,-1,25
 242 333 242 333 231 278 c 2,26,-1
 175 0 l 1,27,-1
 21 0 l 1,28,-1
 128 538 l 1,29,-1
 282 538 l 1,30,-1
 264 446 l 1,31,32
 340 544 340 544 469 544 c 0,33,0
 546 544 546 544 588.5 503.5 c 128,-1,1
EndSplineSet
Substitution2: "<3,3> Small Caps in Latin lookup 11 subtable" eng.sc
EndChar

StartChar: OE
Encoding: 338 338 277
Width: 1113
Flags: W
LayerCount: 2
Fore
SplineSet
741 569 m 1,0,-1
 710 417 l 1,1,-1
 1046 417 l 1,2,-1
 1021 286 l 1,3,-1
 684 286 l 1,4,-1
 653 132 l 1,5,-1
 1038 132 l 1,6,-1
 1012 0 l 1,7,-1
 389 0 l 2,8,9
 292 0 292 0 213.5 42.5 c 128,-1,10
 135 85 135 85 90.5 159.5 c 128,-1,11
 46 234 46 234 46 328 c 0,12,13
 46 431 46 431 101.5 516 c 128,-1,14
 157 601 157 601 252 650.5 c 128,-1,15
 347 700 347 700 459 700 c 2,16,-1
 1142 700 l 1,17,-1
 1116 569 l 1,18,-1
 741 569 l 1,0,-1
495 134 m 1,19,-1
 582 564 l 1,20,-1
 447 564 l 2,21,22
 383 564 383 564 328 533.5 c 128,-1,23
 273 503 273 503 241 450 c 128,-1,24
 209 397 209 397 209 334 c 0,25,26
 209 277 209 277 234 231.5 c 128,-1,27
 259 186 259 186 303 160 c 128,-1,28
 347 134 347 134 403 134 c 2,29,-1
 495 134 l 1,19,-1
EndSplineSet
EndChar

StartChar: oe
Encoding: 339 339 278
Width: 1032
Flags: W
LayerCount: 2
Fore
SplineSet
936 475.5 m 128,-1,1
 1002 408 1002 408 1002 293 c 0,2,3
 1002 261 1002 261 998 234 c 1,4,-1
 597 234 l 1,5,6
 603 178 603 178 637.5 146 c 128,-1,7
 672 114 672 114 727 114 c 0,8,9
 807 114 807 114 871 172 c 1,10,-1
 944 88 l 1,11,12
 897 43 897 43 836 18.5 c 128,-1,13
 775 -6 775 -6 703 -6 c 0,14,15
 636 -6 636 -6 588 19.5 c 128,-1,16
 540 45 540 45 512 92 c 1,17,18
 474 45 474 45 418.5 19.5 c 128,-1,19
 363 -6 363 -6 293 -6 c 0,20,21
 213 -6 213 -6 153.5 25 c 128,-1,22
 94 56 94 56 61.5 112 c 128,-1,23
 29 168 29 168 29 242 c 0,24,25
 29 330 29 330 70 398.5 c 128,-1,26
 111 467 111 467 183 505 c 128,-1,27
 255 543 255 543 347 543 c 0,28,29
 414 543 414 543 463.5 517 c 128,-1,30
 513 491 513 491 542 444 c 1,31,32
 579 491 579 491 633 517 c 128,-1,33
 687 543 687 543 754 543 c 0,34,0
 870 543 870 543 936 475.5 c 128,-1,1
827 400.5 m 128,-1,36
 797 435 797 435 745 435 c 256,37,38
 693 435 693 435 655 401 c 128,-1,39
 617 367 617 367 603 312 c 1,40,-1
 852 312 l 1,41,35
 857 366 857 366 827 400.5 c 128,-1,36
381.5 140 m 128,-1,43
 416 161 416 161 435.5 198.5 c 128,-1,44
 455 236 455 236 455 284 c 0,45,46
 455 343 455 343 422 379 c 128,-1,47
 389 415 389 415 335 415 c 0,48,49
 292 415 292 415 258 394 c 128,-1,50
 224 373 224 373 204.5 335.5 c 128,-1,51
 185 298 185 298 185 250 c 0,52,53
 185 191 185 191 217.5 155 c 128,-1,54
 250 119 250 119 305 119 c 0,55,42
 347 119 347 119 381.5 140 c 128,-1,43
EndSplineSet
Substitution2: "<3,3> Small Caps in Latin lookup 11 subtable" oe.sc
EndChar

StartChar: Scedilla
Encoding: 350 350 289
Width: 627
Flags: W
LayerCount: 2
Fore
SplineSet
277.5 460.5 m 128,-1,1
 309 442 309 442 376 421 c 0,2,3
 440 401 440 401 481.5 382 c 128,-1,4
 523 363 523 363 552.5 325.5 c 128,-1,5
 582 288 582 288 582 229 c 0,6,7
 582 159 582 159 547.5 107 c 128,-1,8
 513 55 513 55 453.5 25.5 c 128,-1,9
 394 -4 394 -4 318 -9 c 1,10,-1
 294 -52 l 1,11,12
 329 -60 329 -60 345.5 -78.5 c 128,-1,13
 362 -97 362 -97 362 -122 c 0,14,15
 362 -174 362 -174 320 -201.5 c 128,-1,16
 278 -229 278 -229 217 -229 c 0,17,18
 162 -229 162 -229 114 -208 c 1,19,-1
 156 -128 l 1,20,21
 180 -139 180 -139 208 -139 c 0,22,23
 227 -139 227 -139 240 -131.5 c 128,-1,24
 253 -124 253 -124 253 -113 c 0,25,26
 253 -103 253 -103 240 -97 c 128,-1,27
 227 -91 227 -91 205 -91 c 2,28,-1
 179 -91 l 1,29,-1
 223 -6 l 1,30,31
 155 4 155 4 93.5 32.5 c 128,-1,32
 32 61 32 61 -13 103 c 1,33,-1
 63 232 l 1,34,35
 111 184 111 184 177 155 c 128,-1,36
 243 126 243 126 300 126 c 0,37,38
 352 126 352 126 381.5 146 c 128,-1,39
 411 166 411 166 411 202 c 0,40,41
 411 226 411 226 394 242.5 c 128,-1,42
 377 259 377 259 351 269 c 128,-1,43
 325 279 325 279 279 293 c 0,44,45
 212 313 212 313 169.5 332.5 c 128,-1,46
 127 352 127 352 98.5 392 c 128,-1,47
 70 432 70 432 75 496 c 0,48,49
 78 561 78 561 116 610 c 128,-1,50
 154 659 154 659 219 686 c 128,-1,51
 284 713 284 713 367 713 c 0,52,53
 439 713 439 713 507 692 c 128,-1,54
 575 671 575 671 625 636 c 1,55,-1
 551 505 l 1,56,57
 500 538 500 538 442 557.5 c 128,-1,58
 384 577 384 577 341 577 c 256,59,60
 298 577 298 577 272 560 c 128,-1,61
 246 543 246 543 246 513 c 0,62,0
 246 479 246 479 277.5 460.5 c 128,-1,1
EndSplineSet
EndChar

StartChar: scedilla
Encoding: 351 351 290
Width: 507
Flags: W
LayerCount: 2
Fore
SplineSet
235 354 m 128,-1,1
 256 341 256 341 299 324 c 0,2,3
 347 304 347 304 378 287 c 128,-1,4
 409 270 409 270 432 239.5 c 128,-1,5
 455 209 455 209 455 165 c 0,6,7
 455 116 455 116 428.5 77 c 128,-1,8
 402 38 402 38 355 16 c 128,-1,9
 308 -6 308 -6 247 -7 c 1,10,-1
 222 -52 l 1,11,12
 257 -60 257 -60 273.5 -78.5 c 128,-1,13
 290 -97 290 -97 290 -122 c 0,14,15
 290 -174 290 -174 248 -201.5 c 128,-1,16
 206 -229 206 -229 145 -229 c 0,17,18
 90 -229 90 -229 42 -208 c 1,19,-1
 84 -128 l 1,20,21
 108 -139 108 -139 136 -139 c 0,22,23
 155 -139 155 -139 168 -131.5 c 128,-1,24
 181 -124 181 -124 181 -113 c 0,25,26
 181 -103 181 -103 168 -97 c 128,-1,27
 155 -91 155 -91 133 -91 c 2,28,-1
 107 -91 l 1,29,-1
 155 3 l 1,30,31
 104 15 104 15 59 39 c 128,-1,32
 14 63 14 63 -17 96 c 1,33,-1
 48 191 l 1,34,35
 86 154 86 154 138 130.5 c 128,-1,36
 190 107 190 107 234 107 c 0,37,38
 266 107 266 107 285 120 c 128,-1,39
 304 133 304 133 304 155 c 0,40,41
 304 175 304 175 283 188 c 128,-1,42
 262 201 262 201 219 218 c 0,43,44
 172 237 172 237 141.5 253.5 c 128,-1,45
 111 270 111 270 89 299.5 c 128,-1,46
 67 329 67 329 67 373 c 0,47,48
 67 423 67 423 93 462 c 128,-1,49
 119 501 119 501 166 522.5 c 128,-1,50
 213 544 213 544 274 544 c 0,51,52
 337 544 337 544 401 521.5 c 128,-1,53
 465 499 465 499 511 460 c 1,54,-1
 441 364 l 1,55,56
 399 395 399 395 354.5 413 c 128,-1,57
 310 431 310 431 276 431 c 0,58,59
 250 431 250 431 232 418 c 128,-1,60
 214 405 214 405 214 386 c 256,61,0
 214 367 214 367 235 354 c 128,-1,1
EndSplineSet
Substitution2: "<3,3> Small Caps in Latin lookup 11 subtable" scedilla.sc
EndChar

StartChar: uni0162
Encoding: 354 354 293
Width: 601
Flags: W
LayerCount: 2
Fore
SplineSet
296 0 m 1,0,-1
 267 -52 l 1,1,2
 302 -60 302 -60 318.5 -78.5 c 128,-1,3
 335 -97 335 -97 335 -122 c 0,4,5
 335 -174 335 -174 293 -201.5 c 128,-1,6
 251 -229 251 -229 190 -229 c 0,7,8
 135 -229 135 -229 87 -208 c 1,9,-1
 129 -128 l 1,10,11
 153 -139 153 -139 181 -139 c 0,12,13
 200 -139 200 -139 213 -131.5 c 128,-1,14
 226 -124 226 -124 226 -113 c 0,15,16
 226 -103 226 -103 213 -97 c 128,-1,17
 200 -91 200 -91 178 -91 c 2,18,-1
 152 -91 l 1,19,-1
 198 0 l 1,20,-1
 167 0 l 1,21,-1
 281 566 l 1,22,-1
 68 566 l 1,23,-1
 94 700 l 1,24,-1
 680 700 l 1,25,-1
 654 566 l 1,26,-1
 440 566 l 1,27,-1
 325 0 l 1,28,-1
 296 0 l 1,0,-1
EndSplineSet
EndChar

StartChar: uni0163
Encoding: 355 355 294
Width: 429
Flags: W
LayerCount: 2
Fore
SplineSet
232 179 m 2,0,1
 229 164 229 164 229 154 c 0,2,3
 229 137 229 137 237 130 c 128,-1,4
 245 123 245 123 261 123 c 0,5,6
 297 123 297 123 344 145 c 1,7,-1
 363 28 l 1,8,9
 311 1 311 1 250 -6 c 1,10,-1
 224 -52 l 1,11,12
 259 -60 259 -60 275.5 -78.5 c 128,-1,13
 292 -97 292 -97 292 -122 c 0,14,15
 292 -174 292 -174 250 -201.5 c 128,-1,16
 208 -229 208 -229 147 -229 c 0,17,18
 92 -229 92 -229 44 -208 c 1,19,-1
 86 -128 l 1,20,21
 110 -139 110 -139 138 -139 c 0,22,23
 157 -139 157 -139 170 -131.5 c 128,-1,24
 183 -124 183 -124 183 -113 c 0,25,26
 183 -103 183 -103 170 -97 c 128,-1,27
 157 -91 157 -91 135 -91 c 2,28,-1
 109 -91 l 1,29,-1
 157 3 l 1,30,31
 118 17 118 17 95.5 48.5 c 128,-1,32
 73 80 73 80 73 125 c 0,33,34
 73 147 73 147 77 166 c 2,35,-1
 126 407 l 1,36,-1
 52 407 l 1,37,-1
 72 514 l 1,38,-1
 147 514 l 1,39,-1
 177 662 l 1,40,-1
 329 662 l 1,41,-1
 299 514 l 1,42,-1
 446 514 l 1,43,-1
 426 407 l 1,44,-1
 278 407 l 1,45,-1
 232 179 l 2,0,1
EndSplineSet
Substitution2: "<3,3> Small Caps in Latin lookup 11 subtable" uni0163.sc
EndChar

StartChar: Tbar
Encoding: 358 358 297
Width: 601
Flags: W
LayerCount: 2
Fore
SplineSet
654 566 m 1,0,-1
 440 566 l 1,1,-1
 398 361 l 1,2,-1
 532 361 l 1,3,-1
 516 274 l 1,4,-1
 381 274 l 1,5,-1
 325 0 l 1,6,-1
 167 0 l 1,7,-1
 222 274 l 1,8,-1
 86 274 l 1,9,-1
 102 361 l 1,10,-1
 240 361 l 1,11,-1
 281 566 l 1,12,-1
 68 566 l 1,13,-1
 94 700 l 1,14,-1
 680 700 l 1,15,-1
 654 566 l 1,0,-1
EndSplineSet
EndChar

StartChar: tbar
Encoding: 359 359 298
Width: 426
Flags: W
LayerCount: 2
Fore
SplineSet
280 418 m 1,0,-1
 264 339 l 1,1,-1
 411 339 l 1,2,-1
 393 243 l 1,3,-1
 245 243 l 1,4,-1
 233 185 l 2,5,6
 231 177 231 177 231 163 c 0,7,8
 231 123 231 123 270 123 c 0,9,10
 304 123 304 123 348 143 c 1,11,-1
 359 30 l 1,12,13
 287 -7 287 -7 212 -7 c 0,14,15
 148 -7 148 -7 109.5 24.5 c 128,-1,16
 71 56 71 56 71 116 c 0,17,18
 71 132 71 132 76 159 c 2,19,-1
 93 243 l 1,20,-1
 18 243 l 1,21,-1
 37 339 l 1,22,-1
 112 339 l 1,23,-1
 128 418 l 1,24,-1
 53 418 l 1,25,-1
 72 514 l 1,26,-1
 147 514 l 1,27,-1
 177 662 l 1,28,-1
 329 662 l 1,29,-1
 299 514 l 1,30,-1
 446 514 l 1,31,-1
 428 418 l 1,32,-1
 280 418 l 1,0,-1
EndSplineSet
Substitution2: "<3,3> Small Caps in Latin lookup 11 subtable" tbar.sc
EndChar

StartChar: Uogonek
Encoding: 370 370 309
Width: 760
Flags: W
LayerCount: 2
Fore
SplineSet
783 700 m 1,0,-1
 701 293 l 2,1,2
 685 211 685 211 643.5 148 c 128,-1,3
 602 85 602 85 540 47 c 1,4,5
 495 9 495 9 464.5 -33.5 c 128,-1,6
 434 -76 434 -76 434 -105 c 0,7,8
 434 -127 434 -127 454 -127 c 0,9,10
 469 -127 469 -127 485 -119 c 1,11,-1
 496 -207 l 1,12,13
 443 -228 443 -228 400 -228 c 256,14,15
 357 -228 357 -228 332.5 -206.5 c 128,-1,16
 308 -185 308 -185 308 -144 c 0,17,18
 308 -108 308 -108 325.5 -74 c 128,-1,19
 343 -40 343 -40 381 -5 c 1,20,21
 353 -7 353 -7 337 -7 c 0,22,23
 210 -7 210 -7 136.5 55 c 128,-1,24
 63 117 63 117 63 225 c 0,25,26
 63 259 63 259 70 293 c 2,27,-1
 151 700 l 1,28,-1
 309 700 l 1,29,-1
 228 293 l 2,30,31
 223 268 223 268 223 251 c 0,32,33
 223 195 223 195 258 163 c 128,-1,34
 293 131 293 131 354 131 c 0,35,36
 425 131 425 131 476 174.5 c 128,-1,37
 527 218 527 218 543 293 c 2,38,-1
 625 700 l 1,39,-1
 783 700 l 1,0,-1
EndSplineSet
EndChar

StartChar: uogonek
Encoding: 371 371 310
Width: 672
Flags: W
LayerCount: 2
Fore
SplineSet
650 538 m 1,0,-1
 544 0 l 1,1,-1
 523 0 l 1,2,3
 469 -34 469 -34 445 -58.5 c 128,-1,4
 421 -83 421 -83 421 -107 c 0,5,6
 421 -127 421 -127 441 -127 c 0,7,8
 458 -127 458 -127 473 -119 c 1,9,-1
 484 -207 l 1,10,11
 431 -228 431 -228 387 -228 c 256,12,13
 343 -228 343 -228 319 -206.5 c 128,-1,14
 295 -185 295 -185 295 -147 c 0,15,16
 295 -67 295 -67 390 6 c 1,17,-1
 404 74 l 1,18,19
 338 -7 338 -7 233 -7 c 0,20,21
 145 -7 145 -7 94 40.5 c 128,-1,22
 43 88 43 88 43 168 c 0,23,24
 43 193 43 193 49 221 c 2,25,-1
 113 538 l 1,26,-1
 266 538 l 1,27,-1
 208 243 l 2,28,29
 205 228 205 228 205 214 c 0,30,31
 205 174 205 174 229.5 150.5 c 128,-1,32
 254 127 254 127 298 127 c 0,33,34
 349 127 349 127 388.5 163.5 c 128,-1,35
 428 200 428 200 440 259 c 2,36,-1
 496 538 l 1,37,-1
 650 538 l 1,0,-1
EndSplineSet
Substitution2: "<3,3> Small Caps in Latin lookup 11 subtable" uogonek.sc
EndChar

StartChar: uni018F
Encoding: 399 399 322
Width: 789
Flags: W
LayerCount: 2
Fore
SplineSet
618 669 m 128,-1,1
 693 627 693 627 735.5 552.5 c 128,-1,2
 778 478 778 478 778 385 c 0,3,4
 778 277 778 277 724.5 186 c 128,-1,5
 671 95 671 95 580.5 42 c 128,-1,6
 490 -11 490 -11 383 -11 c 0,7,8
 282 -11 282 -11 207 32.5 c 128,-1,9
 132 76 132 76 91 155.5 c 128,-1,10
 50 235 50 235 50 340 c 0,11,12
 50 355 50 355 52 387 c 1,13,-1
 619 387 l 1,14,15
 617 439 617 439 592.5 481.5 c 128,-1,16
 568 524 568 524 527.5 548.5 c 128,-1,17
 487 573 487 573 437 573 c 0,18,19
 383 573 383 573 334 547.5 c 128,-1,20
 285 522 285 522 251 478 c 1,21,-1
 150 590 l 1,22,23
 273 711 273 711 447 711 c 0,24,0
 543 711 543 711 618 669 c 128,-1,1
520 167 m 128,-1,26
 576 207 576 207 601 276 c 1,27,-1
 214 276 l 1,28,29
 227 208 227 208 275.5 167.5 c 128,-1,30
 324 127 324 127 396 127 c 0,31,25
 464 127 464 127 520 167 c 128,-1,26
EndSplineSet
EndChar

StartChar: florin
Encoding: 402 402 323
Width: 448
Flags: W
LayerCount: 2
Fore
SplineSet
351.5 606 m 128,-1,1
 328 585 328 585 321 551 c 2,2,-1
 305 465 l 1,3,-1
 431 465 l 1,4,-1
 412 360 l 1,5,-1
 284 360 l 1,6,-1
 210 -28 l 2,7,8
 193 -109 193 -109 138.5 -155 c 128,-1,9
 84 -201 84 -201 2 -201 c 0,10,11
 -30 -201 -30 -201 -63 -189.5 c 128,-1,12
 -96 -178 -96 -178 -116 -161 c 1,13,-1
 -72 -54 l 1,14,15
 -60 -65 -60 -65 -43.5 -70.5 c 128,-1,16
 -27 -76 -27 -76 -13 -76 c 0,17,18
 16 -76 16 -76 35 -55.5 c 128,-1,19
 54 -35 54 -35 61 0 c 2,20,-1
 131 360 l 1,21,-1
 60 360 l 1,22,-1
 79 465 l 1,23,-1
 151 465 l 1,24,-1
 173 579 l 2,25,26
 189 659 189 659 246.5 705.5 c 128,-1,27
 304 752 304 752 387 752 c 0,28,29
 426 752 426 752 464 741 c 128,-1,30
 502 730 502 730 529 712 c 1,31,-1
 471 605 l 1,32,33
 458 616 458 616 440.5 621.5 c 128,-1,34
 423 627 423 627 408 627 c 0,35,0
 375 627 375 627 351.5 606 c 128,-1,1
EndSplineSet
EndChar

StartChar: Ohorn
Encoding: 416 416 324
Width: 851
Flags: W
LayerCount: 2
Fore
SplineSet
857 771 m 0,1,2
 857 709 857 709 822 662.5 c 128,-1,3
 787 616 787 616 727 595 c 1,4,5
 763 553 763 553 782.5 498.5 c 128,-1,6
 802 444 802 444 802 382 c 0,7,8
 802 274 802 274 746 183.5 c 128,-1,9
 690 93 690 93 595 41 c 128,-1,10
 500 -11 500 -11 388 -11 c 0,11,12
 289 -11 289 -11 211 32 c 128,-1,13
 133 75 133 75 89.5 150.5 c 128,-1,14
 46 226 46 226 46 320 c 0,15,16
 46 429 46 429 102 518.5 c 128,-1,17
 158 608 158 608 253 659.5 c 128,-1,18
 348 711 348 711 460 711 c 0,19,20
 552 711 552 711 626 674 c 0,21,22
 639 669 639 669 654 669 c 0,23,24
 687 669 687 669 708 695 c 128,-1,25
 729 721 729 721 729 756 c 0,26,27
 729 782 729 782 718 803 c 1,28,-1
 844 846 l 1,29,0
 857 808 857 808 857 771 c 0,1,2
519.5 159.5 m 128,-1,31
 574 192 574 192 606.5 248.5 c 128,-1,32
 639 305 639 305 639 371 c 0,33,34
 639 428 639 428 614 474 c 128,-1,35
 589 520 589 520 545.5 546.5 c 128,-1,36
 502 573 502 573 448 573 c 0,37,38
 386 573 386 573 330.5 540.5 c 128,-1,39
 275 508 275 508 241.5 452.5 c 128,-1,40
 208 397 208 397 208 331 c 0,41,42
 208 274 208 274 234 227.5 c 128,-1,43
 260 181 260 181 304.5 154 c 128,-1,44
 349 127 349 127 403 127 c 0,45,30
 465 127 465 127 519.5 159.5 c 128,-1,31
EndSplineSet
EndChar

StartChar: ohorn
Encoding: 417 417 325
Width: 658
Flags: W
LayerCount: 2
Fore
SplineSet
718 607 m 0,1,2
 718 542 718 542 679.5 494 c 128,-1,3
 641 446 641 446 576 428 c 1,4,5
 610 371 610 371 610 296 c 0,6,7
 610 208 610 208 569 139 c 128,-1,8
 528 70 528 70 456 32 c 128,-1,9
 384 -6 384 -6 292 -6 c 0,10,11
 213 -6 213 -6 153 25 c 128,-1,12
 93 56 93 56 61 112 c 128,-1,13
 29 168 29 168 29 242 c 0,14,15
 29 330 29 330 70 398.5 c 128,-1,16
 111 467 111 467 183 505 c 128,-1,17
 255 543 255 543 347 543 c 0,18,19
 431 543 431 543 491 509 c 0,20,21
 503 506 503 506 515 506 c 0,22,23
 548 506 548 506 569 532 c 128,-1,24
 590 558 590 558 590 593 c 0,25,26
 590 619 590 619 579 640 c 1,27,-1
 705 683 l 1,28,0
 718 645 718 645 718 607 c 0,1,2
381 140 m 128,-1,30
 415 161 415 161 434.5 198.5 c 128,-1,31
 454 236 454 236 454 284 c 0,32,33
 454 343 454 343 421.5 379 c 128,-1,34
 389 415 389 415 335 415 c 0,35,36
 292 415 292 415 258 394 c 128,-1,37
 224 373 224 373 204.5 335.5 c 128,-1,38
 185 298 185 298 185 250 c 0,39,40
 185 191 185 191 217 155 c 128,-1,41
 249 119 249 119 304 119 c 0,42,29
 347 119 347 119 381 140 c 128,-1,30
EndSplineSet
Substitution2: "<3,3> Small Caps in Latin lookup 11 subtable" ohorn.sc
EndChar

StartChar: Uhorn
Encoding: 431 431 326
Width: 826
Flags: W
LayerCount: 2
Fore
SplineSet
917 789 m 0,1,2
 917 722 917 722 877.5 678 c 128,-1,3
 838 634 838 634 767 621 c 1,4,-1
 701 293 l 2,5,6
 673 154 673 154 577 73.5 c 128,-1,7
 481 -7 481 -7 337 -7 c 0,8,9
 210 -7 210 -7 136.5 55 c 128,-1,10
 63 117 63 117 63 225 c 0,11,12
 63 259 63 259 70 293 c 2,13,-1
 151 700 l 1,14,-1
 309 700 l 1,15,-1
 228 293 l 2,16,17
 223 268 223 268 223 251 c 0,18,19
 223 195 223 195 258 163 c 128,-1,20
 293 131 293 131 354 131 c 0,21,22
 425 131 425 131 476 174.5 c 128,-1,23
 527 218 527 218 543 293 c 2,24,-1
 625 700 l 1,25,-1
 726 700 l 1,26,-1
 726 701 l 1,27,28
 762 701 762 701 780.5 720 c 128,-1,29
 799 739 799 739 799 768 c 0,30,31
 799 783 799 783 792 804 c 1,32,-1
 910 846 l 1,33,0
 917 818 917 818 917 789 c 0,1,2
EndSplineSet
EndChar

StartChar: uhorn
Encoding: 432 432 327
Width: 696
Flags: W
LayerCount: 2
Fore
SplineSet
784 626 m 0,1,2
 784 559 784 559 744.5 515 c 128,-1,3
 705 471 705 471 634 458 c 1,4,-1
 544 0 l 1,5,-1
 389 0 l 1,6,-1
 404 74 l 1,7,8
 338 -7 338 -7 233 -7 c 0,9,10
 145 -7 145 -7 94 40.5 c 128,-1,11
 43 88 43 88 43 168 c 0,12,13
 43 193 43 193 49 221 c 2,14,-1
 113 538 l 1,15,-1
 266 538 l 1,16,-1
 208 243 l 2,17,18
 205 228 205 228 205 214 c 0,19,20
 205 174 205 174 229.5 150.5 c 128,-1,21
 254 127 254 127 298 127 c 0,22,23
 349 127 349 127 388.5 163.5 c 128,-1,24
 428 200 428 200 440 259 c 2,25,-1
 496 538 l 1,26,-1
 593 538 l 2,27,28
 629 538 629 538 647.5 557 c 128,-1,29
 666 576 666 576 666 605 c 0,30,31
 666 620 666 620 659 641 c 1,32,-1
 777 683 l 1,33,0
 784 655 784 655 784 626 c 0,1,2
EndSplineSet
Substitution2: "<3,3> Small Caps in Latin lookup 11 subtable" uhorn.sc
EndChar

StartChar: uni01EA
Encoding: 490 490 339
Width: 813
Flags: W
LayerCount: 2
Fore
SplineSet
748.5 187.5 m 128,-1,1
 695 99 695 99 605 47 c 1,2,3
 560 9 560 9 529.5 -33.5 c 128,-1,4
 499 -76 499 -76 499 -105 c 0,5,6
 499 -127 499 -127 519 -127 c 0,7,8
 534 -127 534 -127 550 -119 c 1,9,-1
 561 -207 l 1,10,11
 508 -228 508 -228 465 -228 c 256,12,13
 422 -228 422 -228 397.5 -206.5 c 128,-1,14
 373 -185 373 -185 373 -144 c 0,15,16
 373 -108 373 -108 390 -75 c 128,-1,17
 407 -42 407 -42 443 -8 c 1,18,19
 416 -11 416 -11 388 -11 c 0,20,21
 289 -11 289 -11 211 32 c 128,-1,22
 133 75 133 75 89.5 150.5 c 128,-1,23
 46 226 46 226 46 320 c 0,24,25
 46 429 46 429 102 518.5 c 128,-1,26
 158 608 158 608 253 659.5 c 128,-1,27
 348 711 348 711 460 711 c 0,28,29
 558 711 558 711 636 668.5 c 128,-1,30
 714 626 714 626 758 551 c 128,-1,31
 802 476 802 476 802 382 c 0,32,0
 802 276 802 276 748.5 187.5 c 128,-1,1
519.5 159.5 m 128,-1,34
 574 192 574 192 606.5 248.5 c 128,-1,35
 639 305 639 305 639 371 c 0,36,37
 639 428 639 428 614 474 c 128,-1,38
 589 520 589 520 545.5 546.5 c 128,-1,39
 502 573 502 573 448 573 c 0,40,41
 386 573 386 573 330.5 540.5 c 128,-1,42
 275 508 275 508 241.5 452.5 c 128,-1,43
 208 397 208 397 208 331 c 0,44,45
 208 274 208 274 234 227.5 c 128,-1,46
 260 181 260 181 304.5 154 c 128,-1,47
 349 127 349 127 403 127 c 0,48,33
 465 127 465 127 519.5 159.5 c 128,-1,34
EndSplineSet
EndChar

StartChar: uni01EB
Encoding: 491 491 340
Width: 639
Flags: W
LayerCount: 2
Fore
SplineSet
574 147.5 m 128,-1,1
 538 82 538 82 474 42 c 1,2,3
 430 5 430 5 401.5 -36 c 128,-1,4
 373 -77 373 -77 373 -105 c 0,5,6
 373 -127 373 -127 393 -127 c 0,7,8
 408 -127 408 -127 424 -119 c 1,9,-1
 435 -207 l 1,10,11
 382 -228 382 -228 339 -228 c 256,12,13
 296 -228 296 -228 271.5 -206.5 c 128,-1,14
 247 -185 247 -185 247 -144 c 0,15,16
 247 -108 247 -108 264.5 -74 c 128,-1,17
 282 -40 282 -40 320 -5 c 1,18,19
 311 -6 311 -6 292 -6 c 0,20,21
 213 -6 213 -6 153 25 c 128,-1,22
 93 56 93 56 61 112 c 128,-1,23
 29 168 29 168 29 242 c 0,24,25
 29 330 29 330 70 398.5 c 128,-1,26
 111 467 111 467 183 505 c 128,-1,27
 255 543 255 543 347 543 c 0,28,29
 427 543 427 543 486.5 512 c 128,-1,30
 546 481 546 481 578 425.5 c 128,-1,31
 610 370 610 370 610 296 c 0,32,0
 610 213 610 213 574 147.5 c 128,-1,1
217 155 m 128,-1,34
 249 119 249 119 304 119 c 0,35,36
 347 119 347 119 381 140 c 128,-1,37
 415 161 415 161 434.5 198.5 c 128,-1,38
 454 236 454 236 454 284 c 0,39,40
 454 343 454 343 421.5 379 c 128,-1,41
 389 415 389 415 335 415 c 0,42,43
 292 415 292 415 258 394 c 128,-1,44
 224 373 224 373 204.5 335.5 c 128,-1,45
 185 298 185 298 185 250 c 0,46,33
 185 191 185 191 217 155 c 128,-1,34
EndSplineSet
Substitution2: "<3,3> Small Caps in Latin lookup 11 subtable" uni01EB.sc
EndChar

StartChar: uni0237
Encoding: 567 567 383
Width: 301
Flags: W
LayerCount: 2
Fore
SplineSet
-81.5 -74 m 128,-1,1
 -71 -75 -71 -75 -68 -75 c 0,2,3
 -35 -76 -35 -76 -11.5 -53.5 c 128,-1,4
 12 -31 12 -31 20 8 c 2,5,-1
 126 538 l 1,6,-1
 280 538 l 1,7,-1
 167 -28 l 2,8,9
 151 -111 151 -111 97 -155.5 c 128,-1,10
 43 -200 43 -200 -37 -200 c 0,11,12
 -93 -200 -93 -200 -145 -179 c 1,13,-1
 -101 -70 l 1,14,0
 -92 -73 -92 -73 -81.5 -74 c 128,-1,1
EndSplineSet
EndChar

StartChar: uni0259
Encoding: 601 601 384
Width: 612
Flags: W
LayerCount: 2
Fore
SplineSet
452.5 513 m 128,-1,1
 515 483 515 483 549 427.5 c 128,-1,2
 583 372 583 372 583 298 c 0,3,4
 583 212 583 212 543.5 142.5 c 128,-1,5
 504 73 504 73 434.5 33.5 c 128,-1,6
 365 -6 365 -6 278 -6 c 0,7,8
 201 -6 201 -6 144.5 23 c 128,-1,9
 88 52 88 52 57.5 105.5 c 128,-1,10
 27 159 27 159 27 230 c 0,11,12
 27 271 27 271 37 314 c 1,13,-1
 432 314 l 1,14,15
 428 366 428 366 393.5 395 c 128,-1,16
 359 424 359 424 301 424 c 0,17,18
 266 424 266 424 232 412 c 128,-1,19
 198 400 198 400 169 377 c 1,20,-1
 94 465 l 1,21,22
 180 543 180 543 306 543 c 0,23,0
 390 543 390 543 452.5 513 c 128,-1,1
362 139.5 m 128,-1,25
 402 171 402 171 420 223 c 1,26,-1
 170 223 l 1,27,28
 166 170 166 170 193.5 139 c 128,-1,29
 221 108 221 108 272 108 c 0,30,24
 322 108 322 108 362 139.5 c 128,-1,25
EndSplineSet
Substitution2: "<3,3> Small Caps in Latin lookup 11 subtable" uni0259.sc
EndChar

StartChar: uni02BB
Encoding: 699 699 385
Width: 320
Flags: W
LayerCount: 2
Fore
SplineSet
259 491 m 1,0,-1
 138 519 l 1,1,-1
 203 700 l 1,2,-1
 299 700 l 1,3,-1
 259 491 l 1,0,-1
EndSplineSet
EndChar

StartChar: uni02BC
Encoding: 700 700 386
Width: 161
Flags: W
LayerCount: 2
Fore
SplineSet
113 700 m 1,0,-1
 221 700 l 1,1,-1
 150 439 l 1,2,-1
 62 439 l 1,3,-1
 113 700 l 1,0,-1
EndSplineSet
EndChar

StartChar: uni02BE
Encoding: 702 702 387
Width: 286
Flags: W
LayerCount: 2
Fore
SplineSet
163 637 m 1,0,1
 189 637 189 637 208.5 655.5 c 128,-1,2
 228 674 228 674 228 699 c 0,3,4
 228 719 228 719 213.5 733 c 128,-1,5
 199 747 199 747 177 747 c 1,6,-1
 185 811 l 1,7,8
 230 811 230 811 260.5 780.5 c 128,-1,9
 291 750 291 750 291 706 c 0,10,11
 291 671 291 671 272.5 640 c 128,-1,12
 254 609 254 609 222.5 591 c 128,-1,13
 191 573 191 573 156 573 c 1,14,-1
 163 637 l 1,0,1
EndSplineSet
EndChar

StartChar: uni02BF
Encoding: 703 703 388
Width: 283
Flags: W
LayerCount: 2
Fore
SplineSet
260 637 m 1,0,1
 239 637 239 637 225.5 650 c 128,-1,2
 212 663 212 663 212 683 c 0,3,4
 212 709 212 709 233.5 728 c 128,-1,5
 255 747 255 747 282 747 c 1,6,-1
 294 811 l 1,7,8
 257 811 257 811 223 792 c 128,-1,9
 189 773 189 773 168.5 741 c 128,-1,10
 148 709 148 709 148 673 c 0,11,12
 148 630 148 630 176 601.5 c 128,-1,13
 204 573 204 573 248 573 c 1,14,-1
 260 637 l 1,0,1
EndSplineSet
EndChar

StartChar: caron
Encoding: 711 711 390
Width: 434
Flags: W
LayerCount: 2
Fore
SplineSet
361 759 m 1,0,-1
 482 759 l 1,1,-1
 346 611 l 1,2,-1
 204 611 l 1,3,-1
 124 759 l 1,4,-1
 246 759 l 1,5,-1
 291 694 l 1,6,-1
 361 759 l 1,0,-1
EndSplineSet
EndChar

StartChar: uni02C8
Encoding: 712 712 391
Width: 315
Flags: W
LayerCount: 2
Fore
SplineSet
155 514 m 1,0,-1
 191 700 l 1,1,-1
 296 700 l 1,2,-1
 260 514 l 1,3,-1
 155 514 l 1,0,-1
EndSplineSet
EndChar

StartChar: uni02C9
Encoding: 713 713 392
Width: 464
Flags: W
LayerCount: 2
Fore
SplineSet
189 735 m 1,0,-1
 460 735 l 1,1,-1
 442 641 l 1,2,-1
 171 641 l 1,3,-1
 189 735 l 1,0,-1
EndSplineSet
EndChar

StartChar: uni02CA
Encoding: 714 714 393
Width: 343
Flags: W
LayerCount: 2
Fore
SplineSet
259 765 m 1,0,-1
 385 712 l 1,1,-1
 228 602 l 1,2,-1
 119 612 l 1,3,-1
 259 765 l 1,0,-1
EndSplineSet
EndChar

StartChar: uni02CB
Encoding: 715 715 394
Width: 307
Flags: W
LayerCount: 2
Fore
SplineSet
272 765 m 1,0,-1
 345 612 l 1,1,-1
 231 602 l 1,2,-1
 125 712 l 1,3,-1
 272 765 l 1,0,-1
EndSplineSet
EndChar

StartChar: uni02CC
Encoding: 716 716 395
Width: 316
Flags: W
LayerCount: 2
Fore
SplineSet
9 -217 m 1,0,-1
 45 -31 l 1,1,-1
 151 -31 l 1,2,-1
 114 -217 l 1,3,-1
 9 -217 l 1,0,-1
EndSplineSet
EndChar

StartChar: gravecomb
Encoding: 768 768 402
Width: 0
Flags: W
LayerCount: 2
Fore
SplineSet
-46 765 m 1,0,-1
 57 612 l 1,1,-1
 -55 602 l 1,2,-1
 -182 712 l 1,3,-1
 -46 765 l 1,0,-1
EndSplineSet
Substitution2: "<3,3> Small Caps in Latin lookup 11 subtable" gravecomb.sc
EndChar

StartChar: acutecomb
Encoding: 769 769 403
Width: 0
Flags: W
LayerCount: 2
Fore
SplineSet
-113 765 m 1,0,-1
 23 712 l 1,1,-1
 -113 602 l 1,2,-1
 -224 612 l 1,3,-1
 -113 765 l 1,0,-1
EndSplineSet
Substitution2: "<3,3> Small Caps in Latin lookup 11 subtable" acutecomb.sc
EndChar

StartChar: uni0302
Encoding: 770 770 404
Width: 0
Flags: W
LayerCount: 2
Fore
SplineSet
43 612 m 1,0,-1
 -79 612 l 1,1,-1
 -124 677 l 1,2,-1
 -194 612 l 1,3,-1
 -315 612 l 1,4,-1
 -179 760 l 1,5,-1
 -37 760 l 1,6,-1
 43 612 l 1,0,-1
EndSplineSet
Substitution2: "<3,3> Small Caps in Latin lookup 11 subtable" uni0302.sc
EndChar

StartChar: tildecomb
Encoding: 771 771 405
Width: 0
Flags: W
LayerCount: 2
Fore
SplineSet
-34.5 638.5 m 128,-1,1
 -63 600 -63 600 -112 600 c 0,2,3
 -134 600 -134 600 -153 607.5 c 128,-1,4
 -172 615 -172 615 -195 629 c 0,5,6
 -206 636 -206 636 -217 641 c 128,-1,7
 -228 646 -228 646 -236 646 c 0,8,9
 -264 646 -264 646 -272 603 c 1,10,-1
 -364 603 l 1,11,12
 -336 753 -336 753 -243 753 c 0,13,14
 -220 753 -220 753 -201 745 c 128,-1,15
 -182 737 -182 737 -159 723 c 0,16,17
 -131 706 -131 706 -119 706 c 0,18,19
 -104 706 -104 706 -95.5 717 c 128,-1,20
 -87 728 -87 728 -83 749 c 1,21,-1
 8 749 l 1,22,0
 -6 677 -6 677 -34.5 638.5 c 128,-1,1
EndSplineSet
Substitution2: "<3,3> Small Caps in Latin lookup 11 subtable" tildecomb.sc
EndChar

StartChar: uni0304
Encoding: 772 772 406
Width: 0
Flags: W
LayerCount: 2
Fore
SplineSet
-291 735 m 1,0,-1
 13 735 l 1,1,-1
 -5 641 l 1,2,-1
 -309 641 l 1,3,-1
 -291 735 l 1,0,-1
EndSplineSet
Substitution2: "<3,3> Small Caps in Latin lookup 11 subtable" uni0304.sc
EndChar

StartChar: uni0306
Encoding: 774 774 407
Width: 0
Flags: W
LayerCount: 2
Fore
SplineSet
-191 746 m 0,1,2
 -191 723 -191 723 -178.5 710 c 128,-1,3
 -166 697 -166 697 -144 697 c 0,4,5
 -120 697 -120 697 -101 713.5 c 128,-1,6
 -82 730 -82 730 -74 757 c 1,7,-1
 24 757 l 1,8,9
 8 688 8 688 -43 645.5 c 128,-1,10
 -94 603 -94 603 -161 603 c 0,11,12
 -221 603 -221 603 -255.5 636.5 c 128,-1,13
 -290 670 -290 670 -290 727 c 0,14,15
 -290 747 -290 747 -288 757 c 1,16,-1
 -190 757 l 1,17,0
 -191 753 -191 753 -191 746 c 0,1,2
EndSplineSet
Substitution2: "<3,3> Small Caps in Latin lookup 11 subtable" uni0306.sc
EndChar

StartChar: uni0307
Encoding: 775 775 408
Width: 0
Flags: W
LayerCount: 2
Fore
SplineSet
-7 757.5 m 128,-1,1
 12 738 12 738 12 707 c 0,2,3
 12 664 12 664 -18 634.5 c 128,-1,4
 -48 605 -48 605 -90 605 c 0,5,6
 -121 605 -121 605 -140 625 c 128,-1,7
 -159 645 -159 645 -159 676 c 0,8,9
 -159 719 -159 719 -129.5 748 c 128,-1,10
 -100 777 -100 777 -58 777 c 0,11,0
 -26 777 -26 777 -7 757.5 c 128,-1,1
EndSplineSet
Substitution2: "<3,3> Small Caps in Latin lookup 11 subtable" uni0307.sc
EndChar

StartChar: uni0308
Encoding: 776 776 409
Width: 0
Flags: W
LayerCount: 2
Fore
SplineSet
-193.5 742 m 128,-1,1
 -178 726 -178 726 -178 699 c 0,2,3
 -178 665 -178 665 -203.5 639.5 c 128,-1,4
 -229 614 -229 614 -263 614 c 0,5,6
 -289 614 -289 614 -305 631 c 128,-1,7
 -321 648 -321 648 -321 674 c 0,8,9
 -321 710 -321 710 -296 734 c 128,-1,10
 -271 758 -271 758 -236 758 c 0,11,0
 -209 758 -209 758 -193.5 742 c 128,-1,1
-7.5 741.5 m 128,-1,13
 8 725 8 725 8 699 c 0,14,15
 8 665 8 665 -17.5 639.5 c 128,-1,16
 -43 614 -43 614 -77 614 c 0,17,18
 -103 614 -103 614 -119 631 c 128,-1,19
 -135 648 -135 648 -135 674 c 0,20,21
 -135 710 -135 710 -110 734 c 128,-1,22
 -85 758 -85 758 -49 758 c 0,23,12
 -23 758 -23 758 -7.5 741.5 c 128,-1,13
EndSplineSet
Substitution2: "<3,3> Small Caps in Latin lookup 11 subtable" uni0308.sc
EndChar

StartChar: hookabovecomb
Encoding: 777 777 410
Width: 0
Flags: W
LayerCount: 2
Fore
SplineSet
-5 786 m 128,-1,1
 20 766 20 766 20 732 c 0,2,3
 20 695 20 695 -10 656 c 128,-1,4
 -40 617 -40 617 -90 581 c 1,5,-1
 -157 612 l 1,6,7
 -130 633 -130 633 -114 656 c 128,-1,8
 -98 679 -98 679 -98 694 c 0,9,10
 -98 704 -98 704 -104.5 710 c 128,-1,11
 -111 716 -111 716 -122 716 c 0,12,13
 -140 716 -140 716 -160 703 c 1,14,-1
 -190 771 l 1,15,16
 -131 806 -131 806 -72 806 c 0,17,0
 -30 806 -30 806 -5 786 c 128,-1,1
EndSplineSet
Substitution2: "<3,3> Small Caps in Latin lookup 11 subtable" hookabovecomb.sc
EndChar

StartChar: uni030A
Encoding: 778 778 411
Width: 0
Flags: W
LayerCount: 2
Fore
SplineSet
-9 779.5 m 128,-1,1
 20 750 20 750 20 707 c 0,2,3
 20 673 20 673 2 643 c 128,-1,4
 -16 613 -16 613 -45.5 595.5 c 128,-1,5
 -75 578 -75 578 -109 578 c 0,6,7
 -154 578 -154 578 -182.5 607 c 128,-1,8
 -211 636 -211 636 -211 679 c 0,9,10
 -211 713 -211 713 -193 743 c 128,-1,11
 -175 773 -175 773 -145 791 c 128,-1,12
 -115 809 -115 809 -82 809 c 0,13,0
 -38 809 -38 809 -9 779.5 c 128,-1,1
-126.5 723 m 128,-1,15
 -142 708 -142 708 -142 687 c 0,16,17
 -142 670 -142 670 -130.5 659 c 128,-1,18
 -119 648 -119 648 -101 648 c 0,19,20
 -81 648 -81 648 -65 663.5 c 128,-1,21
 -49 679 -49 679 -49 699 c 0,22,23
 -49 716 -49 716 -60.5 727 c 128,-1,24
 -72 738 -72 738 -90 738 c 0,25,14
 -111 738 -111 738 -126.5 723 c 128,-1,15
EndSplineSet
EndChar

StartChar: uni030B
Encoding: 779 779 412
Width: 0
Flags: W
LayerCount: 2
Fore
SplineSet
-284 769 m 1,0,-1
 -173 722 l 1,1,-1
 -266 602 l 1,2,-1
 -374 612 l 1,3,-1
 -284 769 l 1,0,-1
-99 769 m 1,4,-1
 12 722 l 1,5,-1
 -81 602 l 1,6,-1
 -189 612 l 1,7,-1
 -99 769 l 1,4,-1
EndSplineSet
Substitution2: "<3,3> Small Caps in Latin lookup 11 subtable" uni030B.sc
EndChar

StartChar: uni030C
Encoding: 780 780 413
Width: 0
Flags: W
LayerCount: 2
Fore
SplineSet
-73 759 m 1,0,-1
 48 759 l 1,1,-1
 -88 611 l 1,2,-1
 -230 611 l 1,3,-1
 -310 759 l 1,4,-1
 -188 759 l 1,5,-1
 -143 694 l 1,6,-1
 -73 759 l 1,0,-1
EndSplineSet
Substitution2: "<3,3> Small Caps in Latin lookup 11 subtable" uni030C.sc
EndChar

StartChar: uni030F
Encoding: 783 783 414
Width: 0
Flags: W
LayerCount: 2
Fore
SplineSet
-203 769 m 1,0,-1
 -154 612 l 1,1,-1
 -265 602 l 1,2,-1
 -333 722 l 1,3,-1
 -203 769 l 1,0,-1
-19 769 m 1,4,-1
 31 612 l 1,5,-1
 -80 602 l 1,6,-1
 -149 722 l 1,7,-1
 -19 769 l 1,4,-1
EndSplineSet
Substitution2: "<3,3> Small Caps in Latin lookup 11 subtable" uni030F.sc
EndChar

StartChar: uni0311
Encoding: 785 785 415
Width: 0
Flags: W
LayerCount: 2
Fore
SplineSet
-79 613 m 0,1,2
 -79 636 -79 636 -91.5 649 c 128,-1,3
 -104 662 -104 662 -126 662 c 0,4,5
 -150 662 -150 662 -169 645.5 c 128,-1,6
 -188 629 -188 629 -196 602 c 1,7,-1
 -294 602 l 1,8,9
 -278 671 -278 671 -227 713.5 c 128,-1,10
 -176 756 -176 756 -109 756 c 0,11,12
 -49 756 -49 756 -14.5 722.5 c 128,-1,13
 20 689 20 689 20 632 c 0,14,15
 20 612 20 612 18 602 c 1,16,-1
 -80 602 l 1,17,0
 -79 606 -79 606 -79 613 c 0,1,2
EndSplineSet
Substitution2: "<3,3> Small Caps in Latin lookup 11 subtable" uni0311.sc
EndChar

StartChar: uni0312
Encoding: 786 786 416
Width: 0
Flags: W
LayerCount: 2
Fore
SplineSet
-49 611 m 1,0,-1
 -180 611 l 1,1,-1
 -83 781 l 1,2,-1
 12 781 l 1,3,-1
 -49 611 l 1,0,-1
EndSplineSet
EndChar

StartChar: uni031B
Encoding: 795 795 417
Width: 0
Flags: W
LayerCount: 2
Fore
SplineSet
-25 625 m 0,1,2
 -25 544 -25 544 -82 498 c 128,-1,3
 -139 452 -139 452 -239 452 c 1,4,-1
 -216 538 l 1,5,6
 -180 538 -180 538 -161.5 557 c 128,-1,7
 -143 576 -143 576 -143 605 c 0,8,9
 -143 620 -143 620 -150 641 c 1,10,-1
 -32 683 l 1,11,0
 -25 655 -25 655 -25 625 c 0,1,2
EndSplineSet
EndChar

StartChar: dotbelowcomb
Encoding: 803 803 418
Width: 0
Flags: W
LayerCount: 2
Fore
SplineSet
-176 -89.5 m 128,-1,1
 -157 -109 -157 -109 -157 -140 c 0,2,3
 -157 -183 -157 -183 -187 -212.5 c 128,-1,4
 -217 -242 -217 -242 -259 -242 c 0,5,6
 -290 -242 -290 -242 -309 -222 c 128,-1,7
 -328 -202 -328 -202 -328 -171 c 0,8,9
 -328 -128 -328 -128 -298.5 -99 c 128,-1,10
 -269 -70 -269 -70 -227 -70 c 0,11,0
 -195 -70 -195 -70 -176 -89.5 c 128,-1,1
EndSplineSet
Substitution2: "<3,3> Small Caps in Latin lookup 11 subtable" dotbelowcomb.sc
EndChar

StartChar: uni0324
Encoding: 804 804 419
Width: 0
Flags: W
LayerCount: 2
Fore
SplineSet
-357.5 -84 m 128,-1,1
 -342 -100 -342 -100 -342 -127 c 0,2,3
 -342 -162 -342 -162 -367.5 -187 c 128,-1,4
 -393 -212 -393 -212 -427 -212 c 0,5,6
 -453 -212 -453 -212 -469 -195 c 128,-1,7
 -485 -178 -485 -178 -485 -152 c 0,8,9
 -485 -116 -485 -116 -460 -92 c 128,-1,10
 -435 -68 -435 -68 -400 -68 c 0,11,0
 -373 -68 -373 -68 -357.5 -84 c 128,-1,1
-171.5 -84.5 m 128,-1,13
 -156 -101 -156 -101 -156 -127 c 0,14,15
 -156 -162 -156 -162 -181.5 -187 c 128,-1,16
 -207 -212 -207 -212 -241 -212 c 0,17,18
 -267 -212 -267 -212 -283 -195 c 128,-1,19
 -299 -178 -299 -178 -299 -152 c 0,20,21
 -299 -116 -299 -116 -274 -92 c 128,-1,22
 -249 -68 -249 -68 -213 -68 c 0,23,12
 -187 -68 -187 -68 -171.5 -84.5 c 128,-1,13
EndSplineSet
Substitution2: "<3,3> Small Caps in Latin lookup 11 subtable" uni0324.sc
EndChar

StartChar: uni0326
Encoding: 806 806 420
Width: 0
Flags: W
LayerCount: 2
Fore
SplineSet
-265 -59 m 1,0,-1
 -134 -59 l 1,1,-1
 -231 -229 l 1,2,-1
 -326 -229 l 1,3,-1
 -265 -59 l 1,0,-1
EndSplineSet
EndChar

StartChar: uni0327
Encoding: 807 807 421
Width: 0
Flags: W
LayerCount: 2
Fore
SplineSet
-180 0 m 1,0,-1
 -209 -52 l 1,1,2
 -174 -60 -174 -60 -157.5 -78.5 c 128,-1,3
 -141 -97 -141 -97 -141 -122 c 0,4,5
 -141 -174 -141 -174 -183 -201.5 c 128,-1,6
 -225 -229 -225 -229 -286 -229 c 0,7,8
 -341 -229 -341 -229 -389 -208 c 1,9,-1
 -347 -128 l 1,10,11
 -323 -139 -323 -139 -295 -139 c 0,12,13
 -276 -139 -276 -139 -263 -131.5 c 128,-1,14
 -250 -124 -250 -124 -250 -113 c 0,15,16
 -250 -103 -250 -103 -263 -97 c 128,-1,17
 -276 -91 -276 -91 -298 -91 c 2,18,-1
 -324 -91 l 1,19,-1
 -273 9 l 1,20,-1
 -180 0 l 1,0,-1
EndSplineSet
Substitution2: "<3,3> Small Caps in Latin lookup 11 subtable" uni0327.sc
EndChar

StartChar: uni0328
Encoding: 808 808 422
Width: 0
Flags: W
LayerCount: 2
Fore
SplineSet
-131 0 m 1,0,1
 -185 -34 -185 -34 -209 -58.5 c 128,-1,2
 -233 -83 -233 -83 -233 -107 c 0,3,4
 -233 -127 -233 -127 -213 -127 c 0,5,6
 -196 -127 -196 -127 -181 -119 c 1,7,-1
 -170 -207 l 1,8,9
 -223 -228 -223 -228 -267 -228 c 256,10,11
 -311 -228 -311 -228 -335 -206.5 c 128,-1,12
 -359 -185 -359 -185 -359 -147 c 0,13,14
 -359 -100 -359 -100 -324 -52.5 c 128,-1,15
 -289 -5 -289 -5 -214 39 c 1,16,-1
 -131 0 l 1,0,1
EndSplineSet
EndChar

StartChar: uni032E
Encoding: 814 814 423
Width: 0
Flags: W
LayerCount: 2
Fore
SplineSet
-352 -67 m 0,1,2
 -352 -90 -352 -90 -339.5 -103 c 128,-1,3
 -327 -116 -327 -116 -305 -116 c 0,4,5
 -281 -116 -281 -116 -262 -99.5 c 128,-1,6
 -243 -83 -243 -83 -235 -56 c 1,7,-1
 -137 -56 l 1,8,9
 -153 -125 -153 -125 -204 -167.5 c 128,-1,10
 -255 -210 -255 -210 -322 -210 c 0,11,12
 -382 -210 -382 -210 -416.5 -176.5 c 128,-1,13
 -451 -143 -451 -143 -451 -86 c 0,14,15
 -451 -66 -451 -66 -449 -56 c 1,16,-1
 -351 -56 l 1,17,0
 -352 -60 -352 -60 -352 -67 c 0,1,2
EndSplineSet
EndChar

StartChar: uni0331
Encoding: 817 817 424
Width: 0
Flags: W
LayerCount: 2
Fore
SplineSet
-437 -79 m 1,0,-1
 -166 -79 l 1,1,-1
 -184 -172 l 1,2,-1
 -455 -172 l 1,3,-1
 -437 -79 l 1,0,-1
EndSplineSet
EndChar

StartChar: uni0335
Encoding: 821 821 425
Width: 0
Flags: W
LayerCount: 2
Fore
SplineSet
-429 481 m 1,0,-1
 -54 481 l 1,1,-1
 -71 394 l 1,2,-1
 -445 394 l 1,3,-1
 -429 481 l 1,0,-1
EndSplineSet
EndChar

StartChar: uni0336
Encoding: 822 822 426
Width: 0
Flags: W
LayerCount: 2
Fore
SplineSet
-484 481 m 1,0,-1
 -54 481 l 1,1,-1
 -70 394 l 1,2,-1
 -500 394 l 1,3,-1
 -484 481 l 1,0,-1
EndSplineSet
EndChar

StartChar: uni0337
Encoding: 823 823 427
Width: 0
Flags: W
LayerCount: 2
Fore
SplineSet
5 563 m 1,0,-1
 -251 90 l 1,1,-1
 -380 90 l 1,2,-1
 -125 563 l 1,3,-1
 5 563 l 1,0,-1
EndSplineSet
EndChar

StartChar: uni0338
Encoding: 824 824 428
Width: 0
Flags: W
LayerCount: 2
Fore
SplineSet
-472 0 m 1,0,-1
 -70 742 l 1,1,-1
 60 742 l 1,2,-1
 -342 0 l 1,3,-1
 -472 0 l 1,0,-1
EndSplineSet
EndChar

StartChar: uni0394
Encoding: 916 916 429
Width: 759
Flags: W
LayerCount: 2
Fore
SplineSet
525 700 m 1,0,-1
 709 0 l 1,1,-1
 -57 0 l 1,2,-1
 363 700 l 1,3,-1
 525 700 l 1,0,-1
179 127 m 1,4,-1
 509 127 l 1,5,-1
 413 536 l 1,6,-1
 179 127 l 1,4,-1
EndSplineSet
EndChar

StartChar: uni03A9
Encoding: 937 937 430
Width: 865
Flags: W
LayerCount: 2
Fore
SplineSet
623 668.5 m 128,-1,1
 699 630 699 630 742 562 c 128,-1,2
 785 494 785 494 785 410 c 0,3,4
 785 332 785 332 742 256 c 128,-1,5
 699 180 699 180 629 129 c 1,6,-1
 828 129 l 1,7,-1
 803 0 l 1,8,-1
 464 0 l 1,9,-1
 478 143 l 1,10,11
 557 184 557 184 599.5 248 c 128,-1,12
 642 312 642 312 642 382 c 0,13,14
 642 435 642 435 618.5 478.5 c 128,-1,15
 595 522 595 522 549.5 547.5 c 128,-1,16
 504 573 504 573 442 573 c 0,17,18
 371 573 371 573 316 541.5 c 128,-1,19
 261 510 261 510 230.5 458 c 128,-1,20
 200 406 200 406 200 345 c 0,21,22
 200 285 200 285 231 230.5 c 128,-1,23
 262 176 262 176 320 143 c 1,24,-1
 306 0 l 1,25,-1
 -46 0 l 1,26,-1
 -21 129 l 1,27,-1
 167 129 l 1,28,29
 118 171 118 171 90 233.5 c 128,-1,30
 62 296 62 296 62 361 c 0,31,32
 62 457 62 457 114 536 c 128,-1,33
 166 615 166 615 255 661 c 128,-1,34
 344 707 344 707 451 707 c 0,35,0
 547 707 547 707 623 668.5 c 128,-1,1
EndSplineSet
EndChar

StartChar: uni03BC
Encoding: 956 956 431
Width: 672
Flags: W
LayerCount: 2
Fore
SplineSet
650 538 m 1,0,-1
 544 0 l 1,1,-1
 389 0 l 1,2,-1
 404 74 l 1,3,4
 338 -7 338 -7 233 -7 c 0,5,6
 191 -7 191 -7 161 3 c 1,7,-1
 122 -194 l 1,8,-1
 -32 -194 l 1,9,-1
 45 194 l 2,10,11
 47 212 47 212 49 221 c 2,12,-1
 113 538 l 1,13,-1
 267 538 l 1,14,-1
 206 229 l 2,15,16
 205 224 205 224 205 214 c 0,17,18
 205 174 205 174 229.5 150.5 c 128,-1,19
 254 127 254 127 298 127 c 0,20,21
 349 127 349 127 388.5 163.5 c 128,-1,22
 428 200 428 200 440 259 c 2,23,-1
 496 538 l 1,24,-1
 650 538 l 1,0,-1
EndSplineSet
EndChar

StartChar: pi
Encoding: 960 960 432
Width: 728
Flags: W
LayerCount: 2
Fore
SplineSet
749 425 m 1,0,-1
 616 425 l 1,1,-1
 531 0 l 1,2,-1
 403 0 l 1,3,-1
 489 425 l 1,4,-1
 381 425 l 1,5,-1
 249 0 l 1,6,-1
 121 0 l 1,7,-1
 252 425 l 1,8,-1
 223 425 l 2,9,10
 178 425 178 425 149 395.5 c 128,-1,11
 120 366 120 366 120 324 c 0,12,13
 120 303 120 303 129 280 c 1,14,-1
 23 252 l 1,15,16
 6 300 6 300 6 347 c 0,17,18
 6 403 6 403 31 446.5 c 128,-1,19
 56 490 56 490 103 514 c 128,-1,20
 150 538 150 538 212 538 c 2,21,-1
 770 538 l 1,22,-1
 749 425 l 1,0,-1
EndSplineSet
EndChar

StartChar: uni1E08
Encoding: 7688 7688 433
Width: 720
Flags: W
LayerCount: 2
Fore
SplineSet
661 863 m 1,0,-1
 525 753 l 1,1,-1
 414 763 l 1,2,-1
 525 916 l 1,3,-1
 661 863 l 1,0,-1
547.5 29 m 128,-1,5
 477 -4 477 -4 407 -10 c 1,6,-1
 383 -52 l 1,7,8
 418 -60 418 -60 434.5 -78.5 c 128,-1,9
 451 -97 451 -97 451 -122 c 0,10,11
 451 -174 451 -174 409 -201.5 c 128,-1,12
 367 -229 367 -229 306 -229 c 0,13,14
 251 -229 251 -229 203 -208 c 1,15,-1
 245 -128 l 1,16,17
 269 -139 269 -139 297 -139 c 0,18,19
 316 -139 316 -139 329 -131.5 c 128,-1,20
 342 -124 342 -124 342 -113 c 0,21,22
 342 -103 342 -103 329 -97 c 128,-1,23
 316 -91 316 -91 294 -91 c 2,24,-1
 268 -91 l 1,25,-1
 312 -5 l 1,26,27
 233 9 233 9 173 54 c 128,-1,28
 113 99 113 99 79.5 168 c 128,-1,29
 46 237 46 237 46 320 c 0,30,31
 46 428 46 428 101.5 518 c 128,-1,32
 157 608 157 608 251 659.5 c 128,-1,33
 345 711 345 711 457 711 c 0,34,35
 533 711 533 711 603.5 679.5 c 128,-1,36
 674 648 674 648 721 594 c 1,37,-1
 618 481 l 1,38,39
 586 524 586 524 540 548.5 c 128,-1,40
 494 573 494 573 445 573 c 0,41,42
 382 573 382 573 327.5 541 c 128,-1,43
 273 509 273 509 241 454 c 128,-1,44
 209 399 209 399 209 333 c 0,45,46
 209 277 209 277 233.5 231.5 c 128,-1,47
 258 186 258 186 301.5 159.5 c 128,-1,48
 345 133 345 133 400 133 c 0,49,50
 447 133 447 133 498 155.5 c 128,-1,51
 549 178 549 178 591 216 c 1,52,-1
 674 115 l 1,53,4
 618 62 618 62 547.5 29 c 128,-1,5
EndSplineSet
EndChar

StartChar: uni1E09
Encoding: 7689 7689 434
Width: 582
Flags: W
LayerCount: 2
Fore
SplineSet
529 712 m 1,0,-1
 393 602 l 1,1,-1
 282 612 l 1,2,-1
 393 765 l 1,3,-1
 529 712 l 1,0,-1
429 185 m 1,5,-1
 528 113 l 1,6,7
 491 60 491 60 432 29.5 c 128,-1,8
 373 -1 373 -1 299 -5 c 1,9,-1
 273 -52 l 1,10,11
 308 -60 308 -60 324.5 -78.5 c 128,-1,12
 341 -97 341 -97 341 -122 c 0,13,14
 341 -174 341 -174 299 -201.5 c 128,-1,15
 257 -229 257 -229 196 -229 c 0,16,17
 141 -229 141 -229 93 -208 c 1,18,-1
 135 -128 l 1,19,20
 159 -139 159 -139 187 -139 c 0,21,22
 206 -139 206 -139 219 -131.5 c 128,-1,23
 232 -124 232 -124 232 -113 c 0,24,25
 232 -103 232 -103 219 -97 c 128,-1,26
 206 -91 206 -91 184 -91 c 2,27,-1
 158 -91 l 1,28,-1
 206 2 l 1,29,30
 123 22 123 22 76 85 c 128,-1,31
 29 148 29 148 29 240 c 0,32,33
 29 328 29 328 68 397 c 128,-1,34
 107 466 107 466 176.5 504.5 c 128,-1,35
 246 543 246 543 334 543 c 0,36,37
 411 543 411 543 468 513.5 c 128,-1,38
 525 484 525 484 556 430 c 1,39,-1
 445 355 l 1,40,41
 426 383 426 383 396 398 c 128,-1,42
 366 413 366 413 328 413 c 0,43,44
 287 413 287 413 254.5 392.5 c 128,-1,45
 222 372 222 372 203 335 c 128,-1,46
 184 298 184 298 184 251 c 0,47,48
 184 193 184 193 215 157.5 c 128,-1,49
 246 122 246 122 298 122 c 0,50,4
 382 122 382 122 429 185 c 1,5,-1
EndSplineSet
Substitution2: "<3,3> Small Caps in Latin lookup 11 subtable" uni1E09.sc
EndChar

StartChar: uni1E1C
Encoding: 7708 7708 443
Width: 668
Flags: W
LayerCount: 2
Fore
SplineSet
348.5 787.5 m 128,-1,1
 314 821 314 821 314 878 c 0,2,3
 314 898 314 898 316 908 c 1,4,-1
 414 908 l 1,5,6
 413 904 413 904 413 897 c 0,7,8
 413 874 413 874 425.5 861 c 128,-1,9
 438 848 438 848 460 848 c 0,10,11
 484 848 484 848 503.5 864.5 c 128,-1,12
 523 881 523 881 530 908 c 1,13,-1
 628 908 l 1,14,15
 612 839 612 839 561 796.5 c 128,-1,16
 510 754 510 754 443 754 c 0,17,0
 383 754 383 754 348.5 787.5 c 128,-1,1
295 569 m 1,18,-1
 264 417 l 1,19,-1
 602 417 l 1,20,-1
 576 286 l 1,21,-1
 238 286 l 1,22,-1
 207 132 l 1,23,-1
 592 132 l 1,24,-1
 567 0 l 1,25,-1
 363 0 l 1,26,-1
 334 -52 l 1,27,28
 369 -60 369 -60 385.5 -78.5 c 128,-1,29
 402 -97 402 -97 402 -122 c 0,30,31
 402 -174 402 -174 360 -201.5 c 128,-1,32
 318 -229 318 -229 257 -229 c 0,33,34
 202 -229 202 -229 154 -208 c 1,35,-1
 196 -128 l 1,36,37
 220 -139 220 -139 248 -139 c 0,38,39
 267 -139 267 -139 280 -131.5 c 128,-1,40
 293 -124 293 -124 293 -113 c 0,41,42
 293 -103 293 -103 280 -97 c 128,-1,43
 267 -91 267 -91 245 -91 c 2,44,-1
 219 -91 l 1,45,-1
 265 0 l 1,46,-1
 23 0 l 1,47,-1
 163 700 l 1,48,-1
 696 700 l 1,49,-1
 670 569 l 1,50,-1
 295 569 l 1,18,-1
EndSplineSet
EndChar

StartChar: uni1E1D
Encoding: 7709 7709 444
Width: 611
Flags: W
LayerCount: 2
Fore
SplineSet
292.5 636.5 m 128,-1,1
 258 670 258 670 258 727 c 0,2,3
 258 747 258 747 260 757 c 1,4,-1
 358 757 l 1,5,6
 357 753 357 753 357 746 c 0,7,8
 357 723 357 723 369.5 710 c 128,-1,9
 382 697 382 697 404 697 c 0,10,11
 428 697 428 697 447.5 713.5 c 128,-1,12
 467 730 467 730 474 757 c 1,13,-1
 572 757 l 1,14,15
 556 688 556 688 505 645.5 c 128,-1,16
 454 603 454 603 387 603 c 0,17,0
 327 603 327 603 292.5 636.5 c 128,-1,1
467.5 513.5 m 128,-1,19
 524 484 524 484 554.5 430.5 c 128,-1,20
 585 377 585 377 585 306 c 0,21,22
 585 265 585 265 575 222 c 1,23,-1
 180 222 l 1,24,25
 185 170 185 170 219 141.5 c 128,-1,26
 253 113 253 113 311 113 c 0,27,28
 346 113 346 113 380.5 125 c 128,-1,29
 415 137 415 137 443 159 c 1,30,-1
 518 71 l 1,31,32
 439 1 439 1 328 -5 c 1,33,-1
 302 -52 l 1,34,35
 337 -60 337 -60 353.5 -78.5 c 128,-1,36
 370 -97 370 -97 370 -122 c 0,37,38
 370 -174 370 -174 328 -201.5 c 128,-1,39
 286 -229 286 -229 225 -229 c 0,40,41
 170 -229 170 -229 122 -208 c 1,42,-1
 164 -128 l 1,43,44
 188 -139 188 -139 216 -139 c 0,45,46
 235 -139 235 -139 248 -131.5 c 128,-1,47
 261 -124 261 -124 261 -113 c 0,48,49
 261 -103 261 -103 248 -97 c 128,-1,50
 235 -91 235 -91 213 -91 c 2,51,-1
 187 -91 l 1,52,-1
 234 0 l 1,53,54
 138 18 138 18 83.5 81 c 128,-1,55
 29 144 29 144 29 238 c 0,56,57
 29 324 29 324 68.5 394 c 128,-1,58
 108 464 108 464 177.5 503.5 c 128,-1,59
 247 543 247 543 334 543 c 0,60,18
 411 543 411 543 467.5 513.5 c 128,-1,19
419 397 m 128,-1,62
 392 428 392 428 340 428 c 0,63,64
 290 428 290 428 250 396.5 c 128,-1,65
 210 365 210 365 192 313 c 1,66,-1
 442 313 l 1,67,61
 446 366 446 366 419 397 c 128,-1,62
EndSplineSet
Substitution2: "<3,3> Small Caps in Latin lookup 11 subtable" uni1E1D.sc
EndChar

StartChar: uni1E9E
Encoding: 7838 7838 506
Width: 714
Flags: W
LayerCount: 2
Fore
SplineSet
669 513 m 1,0,-1
 550 398 l 1,1,2
 606 381 606 381 636.5 343 c 128,-1,3
 667 305 667 305 667 250 c 0,4,5
 667 176 667 176 629 119 c 128,-1,6
 591 62 591 62 523 31 c 128,-1,7
 455 0 455 0 366 0 c 2,8,-1
 284 0 l 1,9,-1
 308 129 l 1,10,-1
 375 129 l 2,11,12
 433 129 433 129 468.5 158 c 128,-1,13
 504 187 504 187 504 234 c 0,14,15
 504 266 504 266 479.5 284 c 128,-1,16
 455 302 455 302 410 302 c 2,17,-1
 375 302 l 1,18,-1
 396 410 l 1,19,-1
 546 554 l 1,20,21
 506 574 506 574 450 574 c 0,22,23
 371 574 371 574 318.5 529 c 128,-1,24
 266 484 266 484 250 404 c 2,25,-1
 171 0 l 1,26,-1
 14 0 l 1,27,-1
 91 396 l 2,28,29
 119 544 119 544 218 626.5 c 128,-1,30
 317 709 317 709 465 709 c 0,31,32
 602 709 602 709 692 634 c 1,33,-1
 669 513 l 1,0,-1
EndSplineSet
EndChar

StartChar: figuredash
Encoding: 8210 8210 603
Width: 618
Flags: W
LayerCount: 2
Fore
SplineSet
17 356 m 1,0,-1
 634 356 l 1,1,-1
 616 255 l 1,2,-1
 -1 255 l 1,3,-1
 17 356 l 1,0,-1
EndSplineSet
EndChar

StartChar: endash
Encoding: 8211 8211 604
Width: 407
Flags: W
LayerCount: 2
Fore
SplineSet
424 357 m 1,0,-1
 405 255 l 1,1,-1
 -2 255 l 1,2,-1
 17 357 l 1,3,-1
 424 357 l 1,0,-1
EndSplineSet
EndChar

StartChar: emdash
Encoding: 8212 8212 605
Width: 663
Flags: W
LayerCount: 2
Fore
SplineSet
680 357 m 1,0,-1
 661 255 l 1,1,-1
 -2 255 l 1,2,-1
 17 357 l 1,3,-1
 680 357 l 1,0,-1
EndSplineSet
EndChar

StartChar: quoteleft
Encoding: 8216 8216 607
Width: 223
Flags: W
LayerCount: 2
Fore
SplineSet
241 561 m 0,1,2
 241 523 241 523 217.5 499 c 128,-1,3
 194 475 194 475 158 475 c 0,4,5
 129 475 129 475 109 494 c 128,-1,6
 89 513 89 513 89 545 c 0,7,8
 89 564 89 564 96 579.5 c 128,-1,9
 103 595 103 595 116 615 c 2,10,-1
 197 742 l 1,11,-1
 272 742 l 1,12,-1
 214 616 l 1,13,0
 241 598 241 598 241 561 c 0,1,2
EndSplineSet
Substitution2: "<3,3> Small Caps in Latin lookup 11 subtable" quoteleft.sc
EndChar

StartChar: quoteright
Encoding: 8217 8217 608
Width: 224
Flags: W
LayerCount: 2
Fore
SplineSet
244 723 m 128,-1,1
 264 704 264 704 264 672 c 0,2,3
 264 653 264 653 257 637.5 c 128,-1,4
 250 622 250 622 237 602 c 2,5,-1
 156 475 l 1,6,-1
 81 475 l 1,7,-1
 139 601 l 1,8,9
 112 619 112 619 112 656 c 0,10,11
 112 694 112 694 135.5 718 c 128,-1,12
 159 742 159 742 195 742 c 0,13,0
 224 742 224 742 244 723 c 128,-1,1
EndSplineSet
Substitution2: "<3,3> Small Caps in Latin lookup 11 subtable" quoteright.sc
EndChar

StartChar: quotesinglbase
Encoding: 8218 8218 609
Width: 223
Flags: W
LayerCount: 2
Fore
SplineSet
124 130 m 128,-1,1
 144 111 144 111 144 79 c 0,2,3
 144 60 144 60 137 44.5 c 128,-1,4
 130 29 130 29 117 9 c 2,5,-1
 36 -118 l 1,6,-1
 -39 -118 l 1,7,-1
 19 8 l 1,8,9
 -8 26 -8 26 -8 63 c 0,10,11
 -8 101 -8 101 15.5 125 c 128,-1,12
 39 149 39 149 75 149 c 0,13,0
 104 149 104 149 124 130 c 128,-1,1
EndSplineSet
EndChar

StartChar: dagger
Encoding: 8224 8224 613
Width: 562
Flags: W
LayerCount: 2
Fore
SplineSet
440 699 m 1,0,-1
 398 492 l 1,1,-1
 590 492 l 1,2,-1
 564 361 l 1,3,-1
 373 361 l 1,4,-1
 262 -188 l 1,5,-1
 113 -188 l 1,6,-1
 223 361 l 1,7,-1
 36 361 l 1,8,-1
 62 492 l 1,9,-1
 249 492 l 1,10,-1
 290 699 l 1,11,-1
 440 699 l 1,0,-1
EndSplineSet
EndChar

StartChar: daggerdbl
Encoding: 8225 8225 614
Width: 562
Flags: W
LayerCount: 2
Fore
SplineSet
564 361 m 1,0,-1
 373 361 l 1,1,-1
 333 165 l 1,2,-1
 524 165 l 1,3,-1
 498 34 l 1,4,-1
 307 34 l 1,5,-1
 262 -188 l 1,6,-1
 113 -188 l 1,7,-1
 157 34 l 1,8,-1
 -30 34 l 1,9,-1
 -4 165 l 1,10,-1
 184 165 l 1,11,-1
 223 361 l 1,12,-1
 36 361 l 1,13,-1
 62 492 l 1,14,-1
 249 492 l 1,15,-1
 290 699 l 1,16,-1
 440 699 l 1,17,-1
 398 492 l 1,18,-1
 590 492 l 1,19,-1
 564 361 l 1,0,-1
EndSplineSet
EndChar

StartChar: bullet
Encoding: 8226 8226 615
Width: 320
Flags: W
LayerCount: 2
Fore
SplineSet
243.5 359 m 128,-1,1
 276 326 276 326 276 274 c 0,2,3
 276 221 276 221 243.5 187.5 c 128,-1,4
 211 154 211 154 160 154 c 0,5,6
 110 154 110 154 77.5 188 c 128,-1,7
 45 222 45 222 45 274 c 256,8,9
 45 326 45 326 77.5 359 c 128,-1,10
 110 392 110 392 160 392 c 0,11,0
 211 392 211 392 243.5 359 c 128,-1,1
EndSplineSet
EndChar

StartChar: ellipsis
Encoding: 8230 8230 616
Width: 661
Flags: W
LayerCount: 2
Fore
SplineSet
132.5 127 m 128,-1,1
 151 108 151 108 151 77 c 0,2,3
 151 40 151 40 128 15.5 c 128,-1,4
 105 -9 105 -9 70 -9 c 0,5,6
 39 -9 39 -9 20.5 10.5 c 128,-1,7
 2 30 2 30 2 61 c 0,8,9
 2 99 2 99 25.5 122.5 c 128,-1,10
 49 146 49 146 83 146 c 0,11,0
 114 146 114 146 132.5 127 c 128,-1,1
345.5 127 m 128,-1,13
 364 108 364 108 364 77 c 0,14,15
 364 40 364 40 341 15.5 c 128,-1,16
 318 -9 318 -9 283 -9 c 0,17,18
 252 -9 252 -9 233.5 10.5 c 128,-1,19
 215 30 215 30 215 61 c 0,20,21
 215 99 215 99 238.5 122.5 c 128,-1,22
 262 146 262 146 296 146 c 0,23,12
 327 146 327 146 345.5 127 c 128,-1,13
558.5 127 m 128,-1,25
 577 108 577 108 577 77 c 0,26,27
 577 40 577 40 554 15.5 c 128,-1,28
 531 -9 531 -9 496 -9 c 0,29,30
 465 -9 465 -9 446.5 10.5 c 128,-1,31
 428 30 428 30 428 61 c 0,32,33
 428 99 428 99 451.5 122.5 c 128,-1,34
 475 146 475 146 509 146 c 0,35,24
 540 146 540 146 558.5 127 c 128,-1,25
EndSplineSet
EndChar

StartChar: minute
Encoding: 8242 8242 618
Width: 213
Flags: W
LayerCount: 2
Fore
SplineSet
139 700 m 1,0,-1
 263 700 l 1,1,-1
 169 458 l 1,2,-1
 74 458 l 1,3,-1
 139 700 l 1,0,-1
EndSplineSet
EndChar

StartChar: guilsinglleft
Encoding: 8249 8249 620
Width: 280
Flags: W
LayerCount: 2
Fore
SplineSet
288 446 m 1,0,-1
 139 260 l 1,1,-1
 217 83 l 1,2,-1
 91 83 l 1,3,-1
 8 265 l 1,4,-1
 163 446 l 1,5,-1
 288 446 l 1,0,-1
EndSplineSet
Substitution2: "<3,3> Small Caps in Latin lookup 11 subtable" guilsinglleft.sc
Substitution2: "'rtla' Right to Left Alternates lookup 0 subtable" guilsinglright
EndChar

StartChar: guilsinglright
Encoding: 8250 8250 621
Width: 287
Flags: W
LayerCount: 2
Fore
SplineSet
13 83 m 1,0,-1
 162 269 l 1,1,-1
 84 446 l 1,2,-1
 210 446 l 1,3,-1
 293 264 l 1,4,-1
 138 83 l 1,5,-1
 13 83 l 1,0,-1
EndSplineSet
Substitution2: "<3,3> Small Caps in Latin lookup 11 subtable" guilsinglright.sc
Substitution2: "'rtla' Right to Left Alternates lookup 0 subtable" guilsinglleft
EndChar

StartChar: fraction
Encoding: 8260 8260 622
Width: 207
Flags: W
LayerCount: 2
Fore
SplineSet
-79 0 m 1,0,-1
 -188 0 l 1,1,-1
 317 700 l 1,2,-1
 425 700 l 1,3,-1
 -79 0 l 1,0,-1
EndSplineSet
EndChar

StartChar: colonmonetary
Encoding: 8353 8353 640
Width: 720
Flags: W
LayerCount: 2
Fore
SplineSet
673 118 m 1,0,1
 626 74 626 74 568 43.5 c 128,-1,2
 510 13 510 13 450 1 c 1,3,-1
 397 -150 l 1,4,-1
 296 -150 l 1,5,-1
 347 -6 l 1,6,7
 318 -3 318 -3 289 3 c 1,8,-1
 235 -150 l 1,9,-1
 133 -150 l 1,10,-1
 200 39 l 1,11,12
 127 81 127 81 86 155 c 128,-1,13
 45 229 45 229 45 320 c 0,14,15
 45 407 45 407 82 483 c 128,-1,16
 119 559 119 559 185 612.5 c 128,-1,17
 251 666 251 666 334 689 c 1,18,-1
 390 845 l 1,19,-1
 491 845 l 1,20,-1
 441 705 l 1,21,-1
 454 705 l 2,22,23
 477 705 477 705 501 702 c 1,24,-1
 552 845 l 1,25,-1
 654 845 l 1,26,-1
 594 677 l 1,27,28
 667 647 667 647 719 589 c 1,29,-1
 617 477 l 1,30,31
 584 519 584 519 537.5 543.5 c 128,-1,32
 491 568 491 568 443 568 c 0,33,34
 380 568 380 568 326 536.5 c 128,-1,35
 272 505 272 505 240 451.5 c 128,-1,36
 208 398 208 398 208 333 c 0,37,38
 208 278 208 278 232.5 233.5 c 128,-1,39
 257 189 257 189 301 163 c 128,-1,40
 345 137 345 137 400 137 c 0,41,42
 447 137 447 137 497 159 c 128,-1,43
 547 181 547 181 590 219 c 1,44,-1
 673 118 l 1,0,1
EndSplineSet
EndChar

StartChar: franc
Encoding: 8355 8355 641
Width: 588
Flags: W
LayerCount: 2
Fore
SplineSet
634 569 m 1,0,-1
 289 569 l 1,1,-1
 255 396 l 1,2,-1
 570 396 l 1,3,-1
 546 269 l 1,4,-1
 230 269 l 1,5,-1
 210 172 l 1,6,-1
 441 172 l 1,7,-1
 428 107 l 1,8,-1
 197 107 l 1,9,-1
 176 0 l 1,10,-1
 18 0 l 1,11,-1
 39 107 l 1,12,-1
 -37 107 l 1,13,-1
 -25 172 l 1,14,-1
 52 172 l 1,15,-1
 158 700 l 1,16,-1
 660 700 l 1,17,-1
 634 569 l 1,0,-1
EndSplineSet
EndChar

StartChar: lira
Encoding: 8356 8356 642
Width: 554
Flags: W
LayerCount: 2
Fore
SplineSet
535.5 684.5 m 128,-1,1
 585 662 585 662 617 620 c 1,2,-1
 534 500 l 1,3,4
 482 569 482 569 417 569 c 0,5,6
 374 569 374 569 346.5 545 c 128,-1,7
 319 521 319 521 309 473 c 2,8,-1
 299 426 l 1,9,-1
 469 426 l 1,10,-1
 456 362 l 1,11,-1
 286 362 l 1,12,-1
 275 308 l 1,13,-1
 446 308 l 1,14,-1
 433 244 l 1,15,-1
 262 244 l 1,16,-1
 238 125 l 1,17,-1
 503 125 l 1,18,-1
 479 0 l 1,19,-1
 -23 0 l 1,20,-1
 1 125 l 1,21,-1
 81 125 l 1,22,-1
 105 244 l 1,23,-1
 26 244 l 1,24,-1
 39 308 l 1,25,-1
 117 308 l 1,26,-1
 128 362 l 1,27,-1
 49 362 l 1,28,-1
 62 426 l 1,29,-1
 141 426 l 1,30,-1
 151 476 l 2,31,32
 173 586 173 586 245 646.5 c 128,-1,33
 317 707 317 707 427 707 c 0,34,0
 486 707 486 707 535.5 684.5 c 128,-1,1
EndSplineSet
EndChar

StartChar: uni20A6
Encoding: 8358 8358 643
Width: 847
Flags: W
LayerCount: 2
Fore
SplineSet
847 374 m 1,0,-1
 762 374 l 1,1,-1
 751 320 l 1,2,-1
 836 320 l 1,3,-1
 824 256 l 1,4,-1
 738 256 l 1,5,-1
 687 0 l 1,6,-1
 543 0 l 1,7,-1
 296 451 l 1,8,-1
 205 0 l 1,9,-1
 54 0 l 1,10,-1
 105 256 l 1,11,-1
 19 256 l 1,12,-1
 31 320 l 1,13,-1
 118 320 l 1,14,-1
 129 374 l 1,15,-1
 42 374 l 1,16,-1
 55 438 l 1,17,-1
 142 438 l 1,18,-1
 194 700 l 1,19,-1
 337 700 l 1,20,-1
 586 247 l 1,21,-1
 678 700 l 1,22,-1
 827 700 l 1,23,-1
 775 438 l 1,24,-1
 860 438 l 1,25,-1
 847 374 l 1,0,-1
EndSplineSet
EndChar

StartChar: uni20A9
Encoding: 8361 8361 645
Width: 1010
Flags: W
LayerCount: 2
Fore
SplineSet
1081 700 m 1,0,-1
 961 438 l 1,1,-1
 1047 438 l 1,2,-1
 1034 374 l 1,3,-1
 932 374 l 1,4,-1
 907 320 l 1,5,-1
 993 320 l 1,6,-1
 980 256 l 1,7,-1
 877 256 l 1,8,-1
 760 0 l 1,9,-1
 606 0 l 1,10,-1
 555 499 l 1,11,-1
 347 0 l 1,12,-1
 194 0 l 1,13,-1
 155 256 l 1,14,-1
 46 256 l 1,15,-1
 59 320 l 1,16,-1
 145 320 l 1,17,-1
 137 374 l 1,18,-1
 28 374 l 1,19,-1
 40 438 l 1,20,-1
 127 438 l 1,21,-1
 87 700 l 1,22,-1
 250 700 l 1,23,-1
 308 198 l 1,24,-1
 511 699 l 1,25,-1
 665 700 l 1,26,-1
 715 195 l 1,27,-1
 920 700 l 1,28,-1
 1081 700 l 1,0,-1
EndSplineSet
EndChar

StartChar: dong
Encoding: 8363 8363 646
Width: 692
Flags: W
LayerCount: 2
Fore
SplineSet
734 586 m 1,0,-1
 672 586 l 1,1,-1
 555 0 l 1,2,-1
 402 0 l 1,3,-1
 417 68 l 1,4,5
 343 -6 343 -6 242 -6 c 0,6,7
 179 -6 179 -6 130.5 24 c 128,-1,8
 82 54 82 54 55 108 c 128,-1,9
 28 162 28 162 28 232 c 0,10,11
 28 319 28 319 65.5 390.5 c 128,-1,12
 103 462 103 462 169 503 c 128,-1,13
 235 544 235 544 315 544 c 0,14,15
 379 544 379 544 423 517.5 c 128,-1,16
 467 491 467 491 490 440 c 1,17,-1
 519 586 l 1,18,-1
 386 586 l 1,19,-1
 399 655 l 1,20,-1
 533 655 l 1,21,-1
 550 742 l 1,22,-1
 703 742 l 1,23,-1
 686 655 l 1,24,-1
 747 655 l 1,25,-1
 734 586 l 1,0,-1
378 138 m 128,-1,27
 414 161 414 161 435 200.5 c 128,-1,28
 456 240 456 240 456 287 c 0,29,30
 456 344 456 344 424 378 c 128,-1,31
 392 412 392 412 339 412 c 0,32,33
 297 412 297 412 261 389 c 128,-1,34
 225 366 225 366 204 326.5 c 128,-1,35
 183 287 183 287 183 241 c 0,36,37
 183 183 183 183 215 149 c 128,-1,38
 247 115 247 115 300 115 c 0,39,26
 342 115 342 115 378 138 c 128,-1,27
42 -130 m 1,40,-1
 55 -62 l 1,41,-1
 521 -62 l 1,42,-1
 507 -130 l 1,43,-1
 42 -130 l 1,40,-1
EndSplineSet
EndChar

StartChar: Euro
Encoding: 8364 8364 647
Width: 792
Flags: W
LayerCount: 2
Fore
SplineSet
568.5 159 m 128,-1,1
 619 181 619 181 661 219 c 1,2,-1
 745 118 l 1,3,4
 684 60 684 60 605 26.5 c 128,-1,5
 526 -7 526 -7 449 -7 c 0,6,7
 364 -7 364 -7 294.5 26.5 c 128,-1,8
 225 60 225 60 180 119.5 c 128,-1,9
 135 179 135 179 122 256 c 1,10,-1
 20 256 l 1,11,-1
 33 320 l 1,12,-1
 116 320 l 1,13,14
 116 350 116 350 120 374 c 1,15,-1
 43 374 l 1,16,-1
 56 438 l 1,17,-1
 135 438 l 1,18,19
 161 516 161 516 219 576.5 c 128,-1,20
 277 637 277 637 356.5 671 c 128,-1,21
 436 705 436 705 526 705 c 0,22,23
 601 705 601 705 672.5 673.5 c 128,-1,24
 744 642 744 642 791 589 c 1,25,-1
 688 477 l 1,26,27
 655 519 655 519 609 543.5 c 128,-1,28
 563 568 563 568 515 568 c 0,29,30
 447 568 447 568 390.5 532.5 c 128,-1,31
 334 497 334 497 304 438 c 1,32,-1
 559 438 l 1,33,-1
 546 374 l 1,34,-1
 283 374 l 1,35,36
 279 357 279 357 279 333 c 2,37,-1
 279 320 l 1,38,-1
 536 320 l 1,39,-1
 523 256 l 1,40,-1
 293 256 l 1,41,42
 314 202 314 202 361.5 169.5 c 128,-1,43
 409 137 409 137 471 137 c 0,44,0
 518 137 518 137 568.5 159 c 128,-1,1
EndSplineSet
EndChar

StartChar: uni20AD
Encoding: 8365 8365 648
Width: 701
Flags: W
LayerCount: 2
Fore
SplineSet
639 390 m 1,0,-1
 626 326 l 1,1,-1
 412 326 l 1,2,-1
 636 0 l 1,3,-1
 449 0 l 1,4,-1
 239 313 l 1,5,-1
 178 0 l 1,6,-1
 19 0 l 1,7,-1
 82 326 l 1,8,-1
 6 326 l 1,9,-1
 18 390 l 1,10,-1
 95 390 l 1,11,-1
 155 700 l 1,12,-1
 314 700 l 1,13,-1
 257 405 l 1,14,-1
 543 700 l 1,15,-1
 725 700 l 1,16,-1
 418 390 l 1,17,-1
 639 390 l 1,0,-1
EndSplineSet
EndChar

StartChar: uni20B1
Encoding: 8369 8369 649
Width: 772
Flags: W
LayerCount: 2
Fore
SplineSet
727 477 m 1,0,1
 726 451 726 451 719 423 c 1,2,-1
 802 423 l 1,3,-1
 790 359 l 1,4,-1
 695 359 l 1,5,6
 656 284 656 284 578 242 c 128,-1,7
 500 200 500 200 391 200 c 2,8,-1
 252 200 l 1,9,-1
 212 0 l 1,10,-1
 53 0 l 1,11,-1
 125 359 l 1,12,-1
 39 359 l 1,13,-1
 52 423 l 1,14,-1
 138 423 l 1,15,-1
 148 477 l 1,16,-1
 62 477 l 1,17,-1
 75 541 l 1,18,-1
 161 541 l 1,19,-1
 193 700 l 1,20,-1
 490 700 l 2,21,22
 593 700 593 700 653.5 659 c 128,-1,23
 714 618 714 618 725 541 c 1,24,-1
 825 541 l 1,25,-1
 812 477 l 1,26,-1
 727 477 l 1,0,1
530.5 370 m 128,-1,28
 574 408 574 408 574 477 c 0,29,30
 574 522 574 522 543.5 545.5 c 128,-1,31
 513 569 513 569 457 569 c 2,32,-1
 325 569 l 1,33,-1
 278 332 l 1,34,-1
 409 332 l 2,35,27
 487 332 487 332 530.5 370 c 128,-1,28
EndSplineSet
EndChar

StartChar: uni20B2
Encoding: 8370 8370 650
Width: 756
Flags: W
LayerCount: 2
Fore
SplineSet
580 353 m 1,0,-1
 717 353 l 1,1,-1
 664 84 l 1,2,3
 605 43 605 43 533 18.5 c 128,-1,4
 461 -6 461 -6 392 -7 c 1,5,-1
 365 -150 l 1,6,-1
 254 -150 l 1,7,-1
 283 6 l 1,8,9
 175 35 175 35 110 120.5 c 128,-1,10
 45 206 45 206 45 320 c 0,11,12
 45 420 45 420 95 504 c 128,-1,13
 145 588 145 588 231 641 c 128,-1,14
 317 694 317 694 422 703 c 1,15,-1
 448 844 l 1,16,-1
 560 844 l 1,17,-1
 534 699 l 1,18,19
 592 689 592 689 644.5 664 c 128,-1,20
 697 639 697 639 735 603 c 1,21,-1
 635 490 l 1,22,23
 600 526 600 526 550.5 547 c 128,-1,24
 501 568 501 568 450 568 c 0,25,26
 385 568 385 568 329 536 c 128,-1,27
 273 504 273 504 240 449.5 c 128,-1,28
 207 395 207 395 207 330 c 0,29,30
 207 274 207 274 233 228.5 c 128,-1,31
 259 183 259 183 304.5 157 c 128,-1,32
 350 131 350 131 408 131 c 0,33,34
 438 131 438 131 473.5 141 c 128,-1,35
 509 151 509 151 544 168 c 1,36,-1
 580 353 l 1,0,-1
EndSplineSet
EndChar

StartChar: uni20B5
Encoding: 8373 8373 651
Width: 720
Flags: W
LayerCount: 2
Fore
SplineSet
673 118 m 1,0,1
 615 63 615 63 540 29.5 c 128,-1,2
 465 -4 465 -4 392 -7 c 1,3,-1
 365 -150 l 1,4,-1
 254 -150 l 1,5,-1
 283 5 l 1,6,7
 212 23 212 23 158 68 c 128,-1,8
 104 113 104 113 74.5 178 c 128,-1,9
 45 243 45 243 45 320 c 0,10,11
 45 422 45 422 95 507 c 128,-1,12
 145 592 145 592 231.5 644.5 c 128,-1,13
 318 697 318 697 422 704 c 1,14,-1
 448 844 l 1,15,-1
 560 844 l 1,16,-1
 533 696 l 1,17,18
 588 684 588 684 636 656 c 128,-1,19
 684 628 684 628 719 589 c 1,20,-1
 617 477 l 1,21,22
 584 519 584 519 537.5 543.5 c 128,-1,23
 491 568 491 568 443 568 c 0,24,25
 380 568 380 568 326 536.5 c 128,-1,26
 272 505 272 505 240 451.5 c 128,-1,27
 208 398 208 398 208 333 c 0,28,29
 208 278 208 278 232.5 233.5 c 128,-1,30
 257 189 257 189 301 163 c 128,-1,31
 345 137 345 137 400 137 c 0,32,33
 447 137 447 137 497 159 c 128,-1,34
 547 181 547 181 590 219 c 1,35,-1
 673 118 l 1,0,1
EndSplineSet
EndChar

StartChar: uni20B9
Encoding: 8377 8377 652
Width: 632
Flags: W
LayerCount: 2
Fore
SplineSet
642 578 m 1,0,-1
 537 578 l 1,1,2
 549 545 549 545 549 504 c 0,3,4
 549 490 549 490 548 483 c 1,5,-1
 623 483 l 1,6,-1
 611 419 l 1,7,-1
 539 419 l 1,8,9
 523 360 523 360 486.5 315 c 128,-1,10
 450 270 450 270 394 241 c 1,11,-1
 531 0 l 1,12,-1
 352 0 l 1,13,-1
 248 202 l 1,14,15
 220 200 220 200 204 200 c 2,16,-1
 20 200 l 1,17,-1
 44 324 l 1,18,-1
 226 324 l 2,19,20
 286 324 286 324 327.5 349 c 128,-1,21
 369 374 369 374 385 419 c 1,22,-1
 63 419 l 1,23,-1
 75 483 l 1,24,-1
 395 483 l 1,25,26
 393 527 393 527 362.5 552 c 128,-1,27
 332 577 332 577 278 577 c 2,28,-1
 94 577 l 1,29,-1
 117 700 l 1,30,-1
 666 700 l 1,31,-1
 642 578 l 1,0,-1
EndSplineSet
EndChar

StartChar: uni20BA
Encoding: 8378 8378 653
Width: 732
Flags: W
LayerCount: 2
Fore
SplineSet
712 357 m 1,0,1
 690 248 690 248 628.5 167.5 c 128,-1,2
 567 87 567 87 473.5 43.5 c 128,-1,3
 380 0 380 0 264 0 c 2,4,-1
 58 0 l 1,5,-1
 121 314 l 1,6,-1
 36 291 l 1,7,-1
 51 372 l 1,8,-1
 137 395 l 1,9,-1
 150 462 l 1,10,-1
 65 439 l 1,11,-1
 81 520 l 1,12,-1
 167 543 l 1,13,-1
 198 700 l 1,14,-1
 356 700 l 1,15,-1
 334 589 l 1,16,-1
 572 654 l 1,17,-1
 556 573 l 1,18,-1
 317 508 l 1,19,-1
 304 441 l 1,20,-1
 543 506 l 1,21,-1
 527 425 l 1,22,-1
 288 360 l 1,23,-1
 241 129 l 1,24,-1
 297 129 l 2,25,26
 397 129 397 129 466.5 189.5 c 128,-1,27
 536 250 536 250 557 356 c 1,28,-1
 712 357 l 1,0,1
EndSplineSet
EndChar

StartChar: uni20BC
Encoding: 8380 8380 654
Width: 839
Flags: W
LayerCount: 2
Fore
SplineSet
727 534 m 128,-1,1
 790 474 790 474 790 377 c 0,2,3
 790 342 790 342 783 310 c 2,4,-1
 722 0 l 1,5,-1
 563 0 l 1,6,-1
 625 310 l 2,7,8
 629 329 629 329 629 348 c 0,9,10
 629 396 629 396 601 426.5 c 128,-1,11
 573 457 573 457 519 467 c 1,12,-1
 426 0 l 1,13,-1
 315 0 l 1,14,-1
 408 468 l 1,15,16
 339 456 339 456 291.5 414.5 c 128,-1,17
 244 373 244 373 231 310 c 2,18,-1
 170 0 l 1,19,-1
 12 0 l 1,20,-1
 73 310 l 2,21,22
 98 436 98 436 195.5 515.5 c 128,-1,23
 293 595 293 595 436 608 c 1,24,-1
 454 700 l 1,25,-1
 566 700 l 1,26,-1
 547 607 l 1,27,0
 664 594 664 594 727 534 c 128,-1,1
EndSplineSet
EndChar

StartChar: uni20BD
Encoding: 8381 8381 655
Width: 683
Flags: W
LayerCount: 2
Fore
SplineSet
220 222 m 1,0,-1
 207 158 l 1,1,-1
 438 158 l 1,2,-1
 425 94 l 1,3,-1
 195 94 l 1,4,-1
 176 0 l 1,5,-1
 18 0 l 1,6,-1
 37 94 l 1,7,-1
 -40 94 l 1,8,-1
 -28 158 l 1,9,-1
 50 158 l 1,10,-1
 158 700 l 1,11,-1
 454 700 l 2,12,13
 568 700 568 700 630 650.5 c 128,-1,14
 692 601 692 601 692 513 c 0,15,16
 692 423 692 423 651.5 357.5 c 128,-1,17
 611 292 611 292 535 257 c 128,-1,18
 459 222 459 222 355 222 c 2,19,-1
 220 222 l 1,0,-1
508 546.5 m 128,-1,21
 478 569 478 569 422 569 c 2,22,-1
 289 569 l 1,23,-1
 245 347 l 1,24,-1
 373 347 l 2,25,26
 452 347 452 347 495 381.5 c 128,-1,27
 538 416 538 416 538 485 c 0,28,20
 538 524 538 524 508 546.5 c 128,-1,21
EndSplineSet
EndChar

StartChar: uni2113
Encoding: 8467 8467 656
Width: 470
Flags: W
LayerCount: 2
Fore
SplineSet
422.5 677.5 m 128,-1,1
 451 647 451 647 451 591 c 0,2,3
 451 489 451 489 377 399 c 128,-1,4
 303 309 303 309 188 219 c 1,5,6
 180 184 180 184 180 162 c 0,7,8
 180 102 180 102 235 102 c 0,9,10
 270 102 270 102 301 123.5 c 128,-1,11
 332 145 332 145 366 183 c 1,12,-1
 410 125 l 1,13,14
 318 -5 318 -5 194 -5 c 0,15,16
 64 -5 64 -5 67 149 c 1,17,-1
 16 118 l 1,18,-1
 -2 185 l 1,19,-1
 84 244 l 1,20,-1
 142 489 l 2,21,22
 169 599 169 599 222 653.5 c 128,-1,23
 275 708 275 708 343 708 c 0,24,0
 394 708 394 708 422.5 677.5 c 128,-1,1
290 594.5 m 128,-1,26
 270 566 270 566 254 503 c 2,27,-1
 214 337 l 1,28,29
 274 389 274 389 317 453 c 128,-1,30
 360 517 360 517 364 573 c 0,31,32
 365 596 365 596 357 609.5 c 128,-1,33
 349 623 349 623 333 623 c 0,34,25
 310 623 310 623 290 594.5 c 128,-1,26
EndSplineSet
EndChar

StartChar: uni2116
Encoding: 8470 8470 657
Width: 1260
Flags: W
LayerCount: 2
Fore
SplineSet
1200 668.5 m 128,-1,1
 1245 628 1245 628 1245 560 c 0,2,3
 1245 508 1245 508 1219.5 467 c 128,-1,4
 1194 426 1194 426 1149 403.5 c 128,-1,5
 1104 381 1104 381 1046 381 c 0,6,7
 970 381 970 381 924.5 422 c 128,-1,8
 879 463 879 463 879 529 c 0,9,10
 879 582 879 582 904.5 623 c 128,-1,11
 930 664 930 664 975 686.5 c 128,-1,12
 1020 709 1020 709 1078 709 c 0,13,0
 1155 709 1155 709 1200 668.5 c 128,-1,1
605 247 m 1,14,-1
 696 700 l 1,15,-1
 846 700 l 1,16,-1
 706 0 l 1,17,-1
 562 0 l 1,18,-1
 314 453 l 1,19,-1
 223 0 l 1,20,-1
 72 0 l 1,21,-1
 212 700 l 1,22,-1
 356 700 l 1,23,-1
 605 247 l 1,14,-1
1113.5 488 m 128,-1,25
 1137 513 1137 513 1137 553 c 0,26,27
 1137 585 1137 585 1119 605 c 128,-1,28
 1101 625 1101 625 1070 625 c 0,29,30
 1034 625 1034 625 1010 599.5 c 128,-1,31
 986 574 986 574 986 534 c 0,32,33
 986 502 986 502 1004.5 482.5 c 128,-1,34
 1023 463 1023 463 1054 463 c 0,35,24
 1090 463 1090 463 1113.5 488 c 128,-1,25
868 200 m 1,36,-1
 887 302 l 1,37,-1
 1158 302 l 1,38,-1
 1139 200 l 1,39,-1
 868 200 l 1,36,-1
EndSplineSet
EndChar

StartChar: trademark
Encoding: 8482 8482 658
Width: 923
Flags: W
LayerCount: 2
Fore
SplineSet
439 700 m 1,0,-1
 419 607 l 1,1,-1
 304 607 l 1,2,-1
 228 280 l 1,3,-1
 116 280 l 1,4,-1
 192 607 l 1,5,-1
 77 607 l 1,6,-1
 97 700 l 1,7,-1
 439 700 l 1,0,-1
958 700 m 1,8,-1
 863 280 l 1,9,-1
 762 280 l 1,10,-1
 823 538 l 1,11,-1
 675 322 l 1,12,-1
 599 322 l 1,13,-1
 553 538 l 1,14,-1
 493 280 l 1,15,-1
 391 280 l 1,16,-1
 487 700 l 1,17,-1
 610 700 l 1,18,-1
 665 461 l 1,19,-1
 832 700 l 1,20,-1
 958 700 l 1,8,-1
EndSplineSet
EndChar

StartChar: estimated
Encoding: 8494 8494 660
Width: 816
Flags: W
LayerCount: 2
Fore
SplineSet
208 308 m 2,1,-1
 208 144 l 2,2,3
 208 135 208 135 216 125 c 0,4,5
 255 83 255 83 308.5 59.5 c 128,-1,6
 362 36 362 36 422 36 c 0,7,8
 485 36 485 36 541.5 62.5 c 128,-1,9
 598 89 598 89 637 135 c 1,10,-1
 686 135 l 1,11,12
 640 81 640 81 570 49.5 c 128,-1,13
 500 18 500 18 421 18 c 0,14,15
 330 18 330 18 253 58.5 c 128,-1,16
 176 99 176 99 131 168 c 128,-1,17
 86 237 86 237 86 319 c 256,18,19
 86 401 86 401 131 470.5 c 128,-1,20
 176 540 176 540 253 580.5 c 128,-1,21
 330 621 330 621 421 621 c 256,22,23
 512 621 512 621 589 580.5 c 128,-1,24
 666 540 666 540 711 470.5 c 128,-1,25
 756 401 756 401 756 319 c 2,26,-1
 756 312 l 1,27,-1
 213 312 l 2,28,0
 208 312 208 312 208 308 c 2,1,-1
625 518 m 0,30,31
 585 558 585 558 532.5 580.5 c 128,-1,32
 480 603 480 603 422 603 c 0,33,34
 363 603 363 603 310 579.5 c 128,-1,35
 257 556 257 556 217 515 c 0,36,37
 208 506 208 506 208 495 c 2,38,-1
 208 333 l 2,39,40
 208 328 208 328 213 328 c 2,41,-1
 629 328 l 2,42,43
 634 328 634 328 634 333 c 2,44,-1
 634 498 l 2,45,29
 634 509 634 509 625 518 c 0,30,31
EndSplineSet
EndChar

StartChar: arrowleft
Encoding: 8592 8592 667
Width: 600
Flags: W
LayerCount: 2
Fore
SplineSet
551 331 m 1,0,-1
 530 222 l 1,1,-1
 252 222 l 1,2,-1
 321 54 l 1,3,-1
 188 54 l 1,4,-1
 85 277 l 1,5,-1
 273 500 l 1,6,-1
 407 500 l 1,7,-1
 273 331 l 1,8,-1
 551 331 l 1,0,-1
EndSplineSet
EndChar

StartChar: arrowup
Encoding: 8593 8593 668
Width: 600
Flags: W
LayerCount: 2
Fore
SplineSet
539 364 m 1,0,-1
 515 240 l 1,1,-1
 374 337 l 1,2,-1
 318 50 l 1,3,-1
 199 50 l 1,4,-1
 255 338 l 1,5,-1
 75 240 l 1,6,-1
 99 364 l 1,7,-1
 347 511 l 1,8,-1
 539 364 l 1,0,-1
EndSplineSet
EndChar

StartChar: arrowright
Encoding: 8594 8594 669
Width: 600
Flags: W
LayerCount: 2
Fore
SplineSet
418 500 m 1,0,-1
 521 277 l 1,1,-1
 333 54 l 1,2,-1
 199 54 l 1,3,-1
 333 223 l 1,4,-1
 55 223 l 1,5,-1
 76 332 l 1,6,-1
 354 332 l 1,7,-1
 285 500 l 1,8,-1
 418 500 l 1,0,-1
EndSplineSet
EndChar

StartChar: arrowdown
Encoding: 8595 8595 670
Width: 600
Flags: W
LayerCount: 2
Fore
SplineSet
349 215 m 1,0,-1
 529 313 l 1,1,-1
 505 189 l 1,2,-1
 257 42 l 1,3,-1
 65 189 l 1,4,-1
 89 313 l 1,5,-1
 230 216 l 1,6,-1
 286 503 l 1,7,-1
 405 503 l 1,8,-1
 349 215 l 1,0,-1
EndSplineSet
EndChar

StartChar: arrowboth
Encoding: 8596 8596 671
Width: 801
Flags: W
LayerCount: 2
Fore
SplineSet
648 500 m 1,0,-1
 751 277 l 1,1,-1
 562 54 l 1,2,-1
 429 54 l 1,3,-1
 562 222 l 1,4,-1
 217 222 l 1,5,-1
 286 54 l 1,6,-1
 153 54 l 1,7,-1
 50 277 l 1,8,-1
 239 500 l 1,9,-1
 372 500 l 1,10,-1
 238 331 l 1,11,-1
 584 331 l 1,12,-1
 515 500 l 1,13,-1
 648 500 l 1,0,-1
EndSplineSet
EndChar

StartChar: arrowupdn
Encoding: 8597 8597 672
Width: 668
Flags: W
LayerCount: 2
Fore
SplineSet
565 414 m 1,0,-1
 424 511 l 1,1,-1
 365 205 l 1,2,-1
 544 304 l 1,3,-1
 520 180 l 1,4,-1
 272 32 l 1,5,-1
 80 180 l 1,6,-1
 103 304 l 1,7,-1
 245 206 l 1,8,-1
 304 512 l 1,9,-1
 125 414 l 1,10,-1
 148 538 l 1,11,-1
 396 686 l 1,12,-1
 588 538 l 1,13,-1
 565 414 l 1,0,-1
EndSplineSet
EndChar

StartChar: uni2196
Encoding: 8598 8598 673
Width: 623
Flags: W
LayerCount: 2
Fore
SplineSet
536 413 m 1,0,-1
 346 368 l 1,1,-1
 509 165 l 1,2,-1
 408 77 l 1,3,-1
 244 282 l 1,4,-1
 164 98 l 1,5,-1
 96 186 l 1,6,-1
 197 447 l 1,7,-1
 467 501 l 1,8,-1
 536 413 l 1,0,-1
EndSplineSet
EndChar

StartChar: uni2197
Encoding: 8599 8599 674
Width: 604
Flags: W
LayerCount: 2
Fore
SplineSet
523 180 m 1,0,-1
 422 92 l 1,1,-1
 412 274 l 1,2,-1
 170 71 l 1,3,-1
 102 159 l 1,4,-1
 342 361 l 1,5,-1
 170 406 l 1,6,-1
 272 494 l 1,7,-1
 521 442 l 1,8,-1
 523 180 l 1,0,-1
EndSplineSet
EndChar

StartChar: uni2198
Encoding: 8600 8600 675
Width: 623
Flags: W
LayerCount: 2
Fore
SplineSet
473 466 m 1,0,-1
 542 378 l 1,1,-1
 440 117 l 1,2,-1
 170 63 l 1,3,-1
 101 151 l 1,4,-1
 291 197 l 1,5,-1
 129 399 l 1,6,-1
 230 487 l 1,7,-1
 394 282 l 1,8,-1
 473 466 l 1,0,-1
EndSplineSet
EndChar

StartChar: uni2199
Encoding: 8601 8601 676
Width: 604
Flags: W
LayerCount: 2
Fore
SplineSet
516 405 m 1,0,-1
 276 203 l 1,1,-1
 448 158 l 1,2,-1
 346 70 l 1,3,-1
 98 122 l 1,4,-1
 95 384 l 1,5,-1
 197 472 l 1,6,-1
 206 290 l 1,7,-1
 448 493 l 1,8,-1
 516 405 l 1,0,-1
EndSplineSet
EndChar

StartChar: partialdiff
Encoding: 8706 8706 677
Width: 645
Flags: W
LayerCount: 2
Fore
SplineSet
107.5 50.5 m 128,-1,1
 44 108 44 108 44 207 c 0,2,3
 44 281 44 281 76.5 338 c 128,-1,4
 109 395 109 395 167 427 c 128,-1,5
 225 459 225 459 300 459 c 0,6,7
 361 459 361 459 402.5 433.5 c 128,-1,8
 444 408 444 408 460 363 c 1,9,10
 465 396 465 396 465 423 c 0,11,12
 465 499 465 499 427 539.5 c 128,-1,13
 389 580 389 580 317 580 c 0,14,15
 274 580 274 580 232 566 c 128,-1,16
 190 552 190 552 154 525 c 1,17,-1
 105 641 l 1,18,19
 155 672 155 672 217.5 689.5 c 128,-1,20
 280 707 280 707 338 707 c 0,21,22
 422 707 422 707 484.5 668.5 c 128,-1,23
 547 630 547 630 580.5 559 c 128,-1,24
 614 488 614 488 614 393 c 0,25,26
 614 273 614 273 573 182.5 c 128,-1,27
 532 92 532 92 456.5 42.5 c 128,-1,28
 381 -7 381 -7 279 -7 c 0,29,0
 171 -7 171 -7 107.5 50.5 c 128,-1,1
392 158 m 128,-1,31
 428 191 428 191 428 243 c 0,32,33
 428 287 428 287 398 312.5 c 128,-1,34
 368 338 368 338 317 338 c 0,35,36
 259 338 259 338 225.5 306.5 c 128,-1,37
 192 275 192 275 192 220 c 0,38,39
 192 175 192 175 220 150 c 128,-1,40
 248 125 248 125 298 125 c 0,41,30
 356 125 356 125 392 158 c 128,-1,31
EndSplineSet
EndChar

StartChar: emptyset
Encoding: 8709 8709 678
Width: 550
Flags: W
LayerCount: 2
Fore
SplineSet
493 458 m 1,0,1
 519 409 519 409 519 356 c 0,2,3
 519 289 519 289 482 229.5 c 128,-1,4
 445 170 445 170 385 133.5 c 128,-1,5
 325 97 325 97 258 97 c 0,6,7
 218 97 218 97 183 111 c 128,-1,8
 148 125 148 125 122 150 c 1,9,-1
 37 79 l 1,10,-1
 0 127 l 1,11,-1
 86 198 l 1,12,13
 62 240 62 240 62 296 c 0,14,15
 62 363 62 363 98.5 422.5 c 128,-1,16
 135 482 135 482 195 518 c 128,-1,17
 255 554 255 554 322 554 c 0,18,19
 361 554 361 554 395.5 540.5 c 128,-1,20
 430 527 430 527 457 503 c 1,21,-1
 539 571 l 1,22,-1
 573 525 l 1,23,-1
 493 458 l 1,0,1
172 268 m 1,25,-1
 370 432 l 1,26,27
 344 449 344 449 308 449 c 0,28,29
 271 449 271 449 238 429.5 c 128,-1,30
 205 410 205 410 184.5 378 c 128,-1,31
 164 346 164 346 164 310 c 0,32,24
 164 289 164 289 172 268 c 1,25,-1
408 388 m 1,34,-1
 208 221 l 1,35,36
 236 202 236 202 272 202 c 0,37,38
 309 202 309 202 342.5 221.5 c 128,-1,39
 376 241 376 241 396.5 274 c 128,-1,40
 417 307 417 307 417 344 c 0,41,33
 417 367 417 367 408 388 c 1,34,-1
EndSplineSet
EndChar

StartChar: uni2206
Encoding: 8710 8710 679
Width: 701
Flags: W
LayerCount: 2
Fore
SplineSet
505 700 m 1,0,-1
 667 98 l 1,1,-1
 650 0 l 1,2,-1
 -54 0 l 1,3,-1
 -37 98 l 1,4,-1
 343 700 l 1,5,-1
 505 700 l 1,0,-1
392 541 m 1,6,-1
 139 129 l 1,7,-1
 497 129 l 1,8,-1
 392 541 l 1,6,-1
EndSplineSet
EndChar

StartChar: product
Encoding: 8719 8719 680
Width: 745
Flags: W
LayerCount: 2
Fore
SplineSet
763 742 m 1,0,-1
 575 -194 l 1,1,-1
 421 -194 l 1,2,-1
 584 616 l 1,3,-1
 302 616 l 1,4,-1
 139 -194 l 1,5,-1
 -15 -194 l 1,6,-1
 173 742 l 1,7,-1
 763 742 l 1,0,-1
EndSplineSet
EndChar

StartChar: summation
Encoding: 8721 8721 681
Width: 617
Flags: W
LayerCount: 2
Fore
SplineSet
696 744 m 1,0,-1
 670 606 l 1,1,-1
 289 606 l 1,2,-1
 480 304 l 1,3,-1
 169 0 l 1,4,-1
 557 0 l 1,5,-1
 530 -138 l 1,6,-1
 -51 -138 l 1,7,-1
 -30 -23 l 1,8,-1
 311 304 l 1,9,-1
 114 626 l 1,10,-1
 135 744 l 1,11,-1
 696 744 l 1,0,-1
EndSplineSet
EndChar

StartChar: minus
Encoding: 8722 8722 682
Width: 506
Flags: W
LayerCount: 2
Fore
SplineSet
494 377 m 1,0,-1
 475 275 l 1,1,-1
 35 275 l 1,2,-1
 55 377 l 1,3,-1
 494 377 l 1,0,-1
EndSplineSet
EndChar

StartChar: uni2219
Encoding: 8729 8729 684
Width: 312
Flags: W
LayerCount: 2
Fore
SplineSet
249 367 m 128,-1,1
 275 342 275 342 275 300 c 0,2,3
 275 261 275 261 256 227.5 c 128,-1,4
 237 194 237 194 204.5 174 c 128,-1,5
 172 154 172 154 134 154 c 0,6,7
 91 154 91 154 65 180 c 128,-1,8
 39 206 39 206 39 248 c 0,9,10
 39 286 39 286 57.5 319.5 c 128,-1,11
 76 353 76 353 108 372.5 c 128,-1,12
 140 392 140 392 178 392 c 0,13,0
 223 392 223 392 249 367 c 128,-1,1
EndSplineSet
EndChar

StartChar: radical
Encoding: 8730 8730 685
Width: 703
Flags: W
LayerCount: 2
Fore
SplineSet
32 406 m 1,0,-1
 262 406 l 1,1,-1
 298 4 l 1,2,-1
 657 747 l 1,3,-1
 806 747 l 1,4,-1
 352 -156 l 1,5,-1
 189 -156 l 1,6,-1
 135 280 l 1,7,-1
 8 280 l 1,8,-1
 32 406 l 1,0,-1
EndSplineSet
EndChar

StartChar: infinity
Encoding: 8734 8734 686
Width: 864
Flags: W
LayerCount: 2
Fore
SplineSet
754 487 m 128,-1,1
 796 463 796 463 819 419.5 c 128,-1,2
 842 376 842 376 842 320 c 0,3,4
 842 256 842 256 813 202.5 c 128,-1,5
 784 149 784 149 734 118.5 c 128,-1,6
 684 88 684 88 623 88 c 0,7,8
 552 88 552 88 509.5 121.5 c 128,-1,9
 467 155 467 155 434 215 c 1,10,11
 390 155 390 155 340.5 121.5 c 128,-1,12
 291 88 291 88 220 88 c 0,13,14
 166 88 166 88 124 112.5 c 128,-1,15
 82 137 82 137 58.5 180.5 c 128,-1,16
 35 224 35 224 35 280 c 0,17,18
 35 344 35 344 64.5 396.5 c 128,-1,19
 94 449 94 449 144.5 479.5 c 128,-1,20
 195 510 195 510 256 510 c 0,21,22
 326 510 326 510 368 477 c 128,-1,23
 410 444 410 444 442 385 c 1,24,25
 487 445 487 445 537 478 c 128,-1,26
 587 511 587 511 658 511 c 0,27,0
 712 511 712 511 754 487 c 128,-1,1
311 225 m 128,-1,29
 348 253 348 253 386 306 c 1,30,31
 360 352 360 352 329 377 c 128,-1,32
 298 402 298 402 250 402 c 0,33,34
 204 402 204 402 171.5 367 c 128,-1,35
 139 332 139 332 139 283 c 0,36,37
 139 244 139 244 162.5 220.5 c 128,-1,38
 186 197 186 197 224 197 c 0,39,28
 274 197 274 197 311 225 c 128,-1,29
705 231.5 m 128,-1,41
 738 266 738 266 738 316 c 0,42,43
 738 356 738 356 715 379 c 128,-1,44
 692 402 692 402 653 402 c 0,45,46
 602 402 602 402 565 374 c 128,-1,47
 528 346 528 346 490 293 c 1,48,49
 515 247 515 247 545.5 222 c 128,-1,50
 576 197 576 197 623 197 c 0,51,40
 672 197 672 197 705 231.5 c 128,-1,41
EndSplineSet
EndChar

StartChar: integral
Encoding: 8747 8747 687
Width: 283
Flags: W
LayerCount: 2
Fore
SplineSet
332 736 m 0,1,2
 287 736 287 736 264.5 709 c 128,-1,3
 242 682 242 682 235 619 c 0,4,5
 230 573 230 573 222 391 c 0,6,7
 212 168 212 168 204 97 c 0,8,9
 195 11 195 11 173 -39.5 c 128,-1,10
 151 -90 151 -90 111.5 -113 c 128,-1,11
 72 -136 72 -136 9 -136 c 0,12,13
 -23 -136 -23 -136 -46 -129.5 c 128,-1,14
 -69 -123 -69 -123 -91 -109 c 1,15,-1
 -66 -9 l 1,16,17
 -48 -19 -48 -19 -35.5 -22.5 c 128,-1,18
 -23 -26 -23 -26 -9 -26 c 0,19,20
 37 -26 37 -26 60.5 3.5 c 128,-1,21
 84 33 84 33 91 99 c 0,22,23
 96 142 96 142 100.5 235.5 c 128,-1,24
 105 329 105 329 106 358 c 0,25,26
 113 551 113 551 121 618 c 0,27,28
 130 703 130 703 151.5 753 c 128,-1,29
 173 803 173 803 212 826 c 128,-1,30
 251 849 251 849 314 849 c 0,31,32
 337 849 337 849 357 843.5 c 128,-1,33
 377 838 377 838 404 826 c 1,34,-1
 382 726 l 1,35,0
 360 736 360 736 332 736 c 0,1,2
EndSplineSet
EndChar

StartChar: approxequal
Encoding: 8776 8776 688
Width: 506
Flags: W
LayerCount: 2
Fore
SplineSet
258.5 515.5 m 128,-1,1
 278 507 278 507 300 492 c 0,2,3
 315 482 315 482 325 477 c 128,-1,4
 335 472 335 472 345 472 c 0,5,6
 363 472 363 472 376 484 c 128,-1,7
 389 496 389 496 393 519 c 1,8,-1
 497 519 l 1,9,10
 480 437 480 437 446 396.5 c 128,-1,11
 412 356 412 356 358 356 c 0,12,13
 332 356 332 356 313.5 364 c 128,-1,14
 295 372 295 372 270 388 c 0,15,16
 256 398 256 398 246.5 403 c 128,-1,17
 237 408 237 408 227 408 c 0,18,19
 192 408 192 408 183 362 c 1,20,-1
 78 362 l 1,21,22
 95 445 95 445 127.5 484.5 c 128,-1,23
 160 524 160 524 214 524 c 0,24,0
 239 524 239 524 258.5 515.5 c 128,-1,1
213 288.5 m 128,-1,26
 232 280 232 280 255 264 c 0,27,28
 270 254 270 254 280 249 c 128,-1,29
 290 244 290 244 300 244 c 0,30,31
 318 244 318 244 331 256 c 128,-1,32
 344 268 344 268 348 291 c 1,33,-1
 451 291 l 1,34,35
 420 129 420 129 312 129 c 0,36,37
 286 129 286 129 266.5 137.5 c 128,-1,38
 247 146 247 146 225 161 c 0,39,40
 198 181 198 181 181 181 c 0,41,42
 148 181 148 181 137 134 c 1,43,-1
 33 134 l 1,44,45
 49 217 49 217 82 257 c 128,-1,46
 115 297 115 297 169 297 c 0,47,25
 194 297 194 297 213 288.5 c 128,-1,26
EndSplineSet
EndChar

StartChar: notequal
Encoding: 8800 8800 689
Width: 507
Flags: W
LayerCount: 2
Fore
SplineSet
496 382 m 1,0,-1
 342 382 l 1,1,-1
 295 270 l 1,2,-1
 473 270 l 1,3,-1
 454 168 l 1,4,-1
 253 168 l 1,5,-1
 194 24 l 1,6,-1
 78 24 l 1,7,-1
 137 168 l 1,8,-1
 15 168 l 1,9,-1
 34 270 l 1,10,-1
 179 270 l 1,11,-1
 226 382 l 1,12,-1
 57 382 l 1,13,-1
 76 484 l 1,14,-1
 268 484 l 1,15,-1
 325 623 l 1,16,-1
 441 623 l 1,17,-1
 384 484 l 1,18,-1
 516 484 l 1,19,-1
 496 382 l 1,0,-1
EndSplineSet
EndChar

StartChar: lessequal
Encoding: 8804 8804 690
Width: 510
Flags: W
LayerCount: 2
Fore
SplineSet
550 639 m 1,0,-1
 528 522 l 1,1,-1
 162 393 l 1,2,-1
 472 258 l 1,3,-1
 452 155 l 1,4,-1
 51 335 l 1,5,-1
 74 460 l 1,6,-1
 550 639 l 1,0,-1
442 108 m 1,7,-1
 423 6 l 1,8,-1
 -17 6 l 1,9,-1
 3 108 l 1,10,-1
 442 108 l 1,7,-1
EndSplineSet
EndChar

StartChar: greaterequal
Encoding: 8805 8805 691
Width: 521
Flags: W
LayerCount: 2
Fore
SplineSet
17 161 m 1,0,-1
 39 278 l 1,1,-1
 405 408 l 1,2,-1
 95 543 l 1,3,-1
 115 646 l 1,4,-1
 516 466 l 1,5,-1
 493 340 l 1,6,-1
 17 161 l 1,0,-1
452 108 m 1,7,-1
 433 6 l 1,8,-1
 -7 6 l 1,9,-1
 13 108 l 1,10,-1
 452 108 l 1,7,-1
EndSplineSet
EndChar

StartChar: filledbox
Encoding: 9632 9632 692
Width: 600
Flags: W
LayerCount: 2
Fore
SplineSet
131 459 m 1,0,-1
 519 459 l 1,1,-1
 469 71 l 1,2,-1
 81 71 l 1,3,-1
 131 459 l 1,0,-1
EndSplineSet
EndChar

StartChar: uni25A1
Encoding: 9633 9633 693
Width: 600
Flags: W
LayerCount: 2
Fore
SplineSet
144 459 m 1,0,-1
 532 459 l 1,1,-1
 456 71 l 1,2,-1
 68 71 l 1,3,-1
 144 459 l 1,0,-1
214 369 m 1,4,-1
 173 161 l 1,5,-1
 386 161 l 1,6,-1
 427 369 l 1,7,-1
 214 369 l 1,4,-1
EndSplineSet
EndChar

StartChar: triagup
Encoding: 9650 9650 694
Width: 600
Flags: W
LayerCount: 2
Fore
SplineSet
341 478 m 1,0,-1
 472 52 l 1,1,-1
 46 52 l 1,2,-1
 341 478 l 1,0,-1
EndSplineSet
EndChar

StartChar: uni25B3
Encoding: 9651 9651 695
Width: 600
Flags: W
LayerCount: 2
Fore
SplineSet
341 478 m 1,0,-1
 472 52 l 1,1,-1
 46 52 l 1,2,-1
 341 478 l 1,0,-1
308 305 m 1,3,-1
 184 129 l 1,4,-1
 363 129 l 1,5,-1
 308 305 l 1,3,-1
EndSplineSet
EndChar

StartChar: uni25B6
Encoding: 9654 9654 696
Width: 600
Flags: W
LayerCount: 2
Fore
SplineSet
541 266 m 1,0,-1
 74 53 l 1,1,-1
 156 479 l 1,2,-1
 541 266 l 1,0,-1
EndSplineSet
EndChar

StartChar: uni25B7
Encoding: 9655 9655 697
Width: 600
Flags: W
LayerCount: 2
Fore
SplineSet
541 266 m 1,0,-1
 74 53 l 1,1,-1
 156 479 l 1,2,-1
 541 266 l 1,0,-1
370 266 m 1,3,-1
 209 354 l 1,4,-1
 174 178 l 1,5,-1
 370 266 l 1,3,-1
EndSplineSet
EndChar

StartChar: triagdn
Encoding: 9660 9660 698
Width: 600
Flags: W
LayerCount: 2
Fore
SplineSet
259 52 m 1,0,-1
 128 478 l 1,1,-1
 554 478 l 1,2,-1
 259 52 l 1,0,-1
EndSplineSet
EndChar

StartChar: uni25BD
Encoding: 9661 9661 699
Width: 600
Flags: W
LayerCount: 2
Fore
SplineSet
259 52 m 1,0,-1
 128 478 l 1,1,-1
 554 478 l 1,2,-1
 259 52 l 1,0,-1
292 225 m 1,3,-1
 416 401 l 1,4,-1
 237 401 l 1,5,-1
 292 225 l 1,3,-1
EndSplineSet
EndChar

StartChar: uni25C0
Encoding: 9664 9664 700
Width: 600
Flags: W
LayerCount: 2
Fore
SplineSet
58 265 m 1,0,-1
 525 478 l 1,1,-1
 443 52 l 1,2,-1
 58 265 l 1,0,-1
EndSplineSet
EndChar

StartChar: uni25C1
Encoding: 9665 9665 701
Width: 600
Flags: W
LayerCount: 2
Fore
SplineSet
58 265 m 1,0,-1
 525 478 l 1,1,-1
 443 52 l 1,2,-1
 58 265 l 1,0,-1
229 265 m 1,3,-1
 390 177 l 1,4,-1
 425 353 l 1,5,-1
 229 265 l 1,3,-1
EndSplineSet
EndChar

StartChar: uni25C6
Encoding: 9670 9670 702
Width: 600
Flags: W
LayerCount: 2
Fore
SplineSet
353 540 m 1,0,-1
 574 265 l 1,1,-1
 246 -9 l 1,2,-1
 25 265 l 1,3,-1
 353 540 l 1,0,-1
EndSplineSet
EndChar

StartChar: uni25C7
Encoding: 9671 9671 703
Width: 600
Flags: W
LayerCount: 2
Fore
SplineSet
353 540 m 1,0,-1
 574 265 l 1,1,-1
 246 -9 l 1,2,-1
 25 265 l 1,3,-1
 353 540 l 1,0,-1
328 413 m 1,4,-1
 149 265 l 1,5,-1
 270 118 l 1,6,-1
 450 265 l 1,7,-1
 328 413 l 1,4,-1
EndSplineSet
EndChar

StartChar: lozenge
Encoding: 9674 9674 704
Width: 517
Flags: W
LayerCount: 2
Fore
SplineSet
336 672 m 1,0,-1
 501 330 l 1,1,-1
 204 -15 l 1,2,-1
 40 330 l 1,3,-1
 336 672 l 1,0,-1
308 492 m 1,4,-1
 159 330 l 1,5,-1
 233 167 l 1,6,-1
 382 330 l 1,7,-1
 308 492 l 1,4,-1
EndSplineSet
EndChar

StartChar: uniA78B
Encoding: 42891 42891 705
Width: 292
Flags: W
LayerCount: 2
Fore
SplineSet
146 700 m 1,0,-1
 304 700 l 1,1,-1
 206 300 l 1,2,-1
 66 300 l 1,3,-1
 146 700 l 1,0,-1
EndSplineSet
EndChar

StartChar: uniA78C
Encoding: 42892 42892 706
Width: 287
Flags: W
LayerCount: 2
Fore
SplineSet
141 679 m 1,0,-1
 294 679 l 1,1,-1
 200 300 l 1,2,-1
 67 300 l 1,3,-1
 141 679 l 1,0,-1
EndSplineSet
Substitution2: "<3,3> Small Caps in Latin lookup 11 subtable" uniA78C.sc
EndChar

StartChar: fl
Encoding: 64258 64258 708
Width: 680
Flags: W
LayerCount: 2
Fore
SplineSet
284 407 m 1,0,-1
 202 0 l 1,1,-1
 49 0 l 1,2,-1
 131 407 l 1,3,-1
 60 407 l 1,4,-1
 80 514 l 1,5,-1
 153 514 l 1,6,-1
 164 571 l 2,7,8
 180 653 180 653 240.5 701 c 128,-1,9
 301 749 301 749 388 749 c 0,10,11
 443 749 443 749 482 731 c 1,12,-1
 457 606 l 1,13,14
 426 622 426 622 401 622 c 0,15,16
 369 622 369 622 344 603 c 128,-1,17
 319 584 319 584 313 553 c 2,18,-1
 305 514 l 1,19,-1
 432 514 l 1,20,-1
 412 407 l 1,21,-1
 284 407 l 1,0,-1
541 742 m 1,22,-1
 695 742 l 1,23,-1
 547 0 l 1,24,-1
 393 0 l 1,25,-1
 541 742 l 1,22,-1
EndSplineSet
Ligature2: "<1,2> Common Ligatures in Latin lookup 13 subtable" f l
EndChar

StartChar: Adieresis.alt
Encoding: 65540 -1 711
Width: 759
Flags: W
LayerCount: 2
Fore
SplineSet
167 593.5 m 128,-1,1
 153 608 153 608 153 631 c 0,2,3
 153 662 153 662 175.5 683.5 c 128,-1,4
 198 705 198 705 229 705 c 0,5,6
 253 705 253 705 266.5 690.5 c 128,-1,7
 280 676 280 676 280 653 c 0,8,9
 280 623 280 623 257.5 601 c 128,-1,10
 235 579 235 579 205 579 c 0,11,0
 181 579 181 579 167 593.5 c 128,-1,1
597.5 593.5 m 128,-1,13
 583 608 583 608 583 631 c 0,14,15
 583 662 583 662 605.5 683.5 c 128,-1,16
 628 705 628 705 660 705 c 0,17,18
 683 705 683 705 697 690.5 c 128,-1,19
 711 676 711 676 711 653 c 0,20,21
 711 622 711 622 688.5 600.5 c 128,-1,22
 666 579 666 579 635 579 c 0,23,12
 612 579 612 579 597.5 593.5 c 128,-1,13
363 700 m 1,24,-1
 525 700 l 1,25,-1
 709 0 l 1,26,-1
 539 0 l 1,27,-1
 507 136 l 1,28,-1
 183 136 l 1,29,-1
 106 0 l 1,30,-1
 -57 0 l 1,31,-1
 363 700 l 1,24,-1
256 263 m 1,32,-1
 478 263 l 1,33,-1
 413 540 l 1,34,-1
 256 263 l 1,32,-1
EndSplineSet
EndChar

StartChar: Udieresis.alt
Encoding: 65541 -1 712
Width: 760
Flags: W
LayerCount: 2
Fore
SplineSet
501.5 689.5 m 128,-1,1
 515 675 515 675 515 652 c 0,2,3
 515 622 515 622 492.5 600 c 128,-1,4
 470 578 470 578 440 578 c 0,5,6
 417 578 417 578 402.5 593 c 128,-1,7
 388 608 388 608 388 630 c 0,8,9
 388 661 388 661 410.5 682.5 c 128,-1,10
 433 704 433 704 464 704 c 0,11,0
 488 704 488 704 501.5 689.5 c 128,-1,1
701 293 m 2,12,13
 673 154 673 154 577 73.5 c 128,-1,14
 481 -7 481 -7 337 -7 c 0,15,16
 210 -7 210 -7 136.5 55 c 128,-1,17
 63 117 63 117 63 225 c 0,18,19
 63 259 63 259 70 293 c 2,20,-1
 151 700 l 1,21,-1
 309 700 l 1,22,-1
 228 293 l 2,23,24
 223 268 223 268 223 251 c 0,25,26
 223 195 223 195 258 163 c 128,-1,27
 293 131 293 131 354 131 c 0,28,29
 425 131 425 131 476 174.5 c 128,-1,30
 527 218 527 218 543 293 c 2,31,-1
 625 700 l 1,32,-1
 783 700 l 1,33,-1
 701 293 l 2,12,13
468 524.5 m 128,-1,35
 482 510 482 510 482 487 c 0,36,37
 482 457 482 457 459.5 435 c 128,-1,38
 437 413 437 413 406 413 c 0,39,40
 383 413 383 413 368.5 428 c 128,-1,41
 354 443 354 443 354 465 c 0,42,43
 354 496 354 496 376.5 517.5 c 128,-1,44
 399 539 399 539 431 539 c 0,45,34
 454 539 454 539 468 524.5 c 128,-1,35
EndSplineSet
EndChar

StartChar: Udieresis.ss01.alt
Encoding: 65542 -1 713
Width: 766
Flags: W
LayerCount: 2
Fore
SplineSet
501.5 689.5 m 128,-1,1
 515 675 515 675 515 652 c 0,2,3
 515 622 515 622 492.5 600 c 128,-1,4
 470 578 470 578 440 578 c 0,5,6
 417 578 417 578 402.5 593 c 128,-1,7
 388 608 388 608 388 630 c 0,8,9
 388 661 388 661 410.5 682.5 c 128,-1,10
 433 704 433 704 464 704 c 0,11,0
 488 704 488 704 501.5 689.5 c 128,-1,1
106.5 46 m 128,-1,13
 54 98 54 98 54 187 c 0,14,15
 54 219 54 219 61 251 c 2,16,-1
 151 700 l 1,17,-1
 310 700 l 1,18,-1
 228 289 l 2,19,20
 224 272 224 272 224 252 c 0,21,22
 224 202 224 202 254.5 172 c 128,-1,23
 285 142 285 142 338 142 c 0,24,25
 409 142 409 142 465.5 189.5 c 128,-1,26
 522 237 522 237 539 309 c 2,27,-1
 617 700 l 1,28,-1
 776 700 l 1,29,-1
 636 0 l 1,30,-1
 477 0 l 1,31,-1
 499 108 l 1,32,33
 452 54 452 54 387.5 24 c 128,-1,34
 323 -6 323 -6 250 -6 c 0,35,12
 159 -6 159 -6 106.5 46 c 128,-1,13
468 524.5 m 128,-1,37
 482 510 482 510 482 487 c 0,38,39
 482 457 482 457 459.5 435 c 128,-1,40
 437 413 437 413 406 413 c 0,41,42
 383 413 383 413 368.5 428 c 128,-1,43
 354 443 354 443 354 465 c 0,44,45
 354 496 354 496 376.5 517.5 c 128,-1,46
 399 539 399 539 431 539 c 0,47,36
 454 539 454 539 468 524.5 c 128,-1,37
EndSplineSet
EndChar

StartChar: A.ss01
Encoding: 65543 -1 714
Width: 759
Flags: W
LayerCount: 2
Fore
SplineSet
657.5 648 m 128,-1,1
 727 587 727 587 727 480 c 0,2,3
 727 444 727 444 720 409 c 2,4,-1
 642 0 l 1,5,-1
 484 0 l 1,6,-1
 517 173 l 1,7,-1
 205 173 l 1,8,-1
 172 0 l 1,9,-1
 14 0 l 1,10,-1
 93 409 l 2,11,12
 110 500 110 500 161.5 567.5 c 128,-1,13
 213 635 213 635 290.5 672 c 128,-1,14
 368 709 368 709 463 709 c 0,15,0
 588 709 588 709 657.5 648 c 128,-1,1
567 452 m 0,17,18
 567 508 567 508 533 539.5 c 128,-1,19
 499 571 499 571 439 571 c 0,20,21
 367 571 367 571 316.5 527.5 c 128,-1,22
 266 484 266 484 251 409 c 2,23,-1
 230 300 l 1,24,-1
 541 300 l 1,25,-1
 562 409 l 2,26,16
 567 434 567 434 567 452 c 0,17,18
EndSplineSet
EndChar

StartChar: Aogonek.ss01
Encoding: 65564 -1 735
Width: 759
Flags: W
LayerCount: 2
Fore
SplineSet
657.5 648 m 128,-1,1
 727 587 727 587 727 480 c 0,2,3
 727 444 727 444 720 409 c 2,4,-1
 642 0 l 1,5,-1
 619 0 l 1,6,7
 565 -34 565 -34 541 -58.5 c 128,-1,8
 517 -83 517 -83 517 -107 c 0,9,10
 517 -127 517 -127 537 -127 c 0,11,12
 554 -127 554 -127 569 -119 c 1,13,-1
 580 -207 l 1,14,15
 527 -228 527 -228 483 -228 c 256,16,17
 439 -228 439 -228 415 -206.5 c 128,-1,18
 391 -185 391 -185 391 -147 c 0,19,20
 391 -67 391 -67 485 5 c 1,21,-1
 517 173 l 1,22,-1
 205 173 l 1,23,-1
 172 0 l 1,24,-1
 14 0 l 1,25,-1
 93 409 l 2,26,27
 110 500 110 500 161.5 567.5 c 128,-1,28
 213 635 213 635 290.5 672 c 128,-1,29
 368 709 368 709 463 709 c 0,30,0
 588 709 588 709 657.5 648 c 128,-1,1
541 300 m 1,31,-1
 562 409 l 2,32,33
 567 434 567 434 567 452 c 0,34,35
 567 508 567 508 533 539.5 c 128,-1,36
 499 571 499 571 439 571 c 0,37,38
 367 571 367 571 316.5 527.5 c 128,-1,39
 266 484 266 484 251 409 c 2,40,-1
 230 300 l 1,41,-1
 541 300 l 1,31,-1
EndSplineSet
EndChar

StartChar: E.ss01
Encoding: 65570 -1 741
Width: 648
Flags: W
LayerCount: 2
Fore
SplineSet
566.5 699 m 128,-1,1
 630 685 630 685 667 664 c 1,2,-1
 594 543 l 1,3,4
 560 560 560 560 514 570 c 128,-1,5
 468 580 468 580 425 580 c 0,6,7
 357 580 357 580 313.5 553.5 c 128,-1,8
 270 527 270 527 270 487 c 0,9,10
 270 458 270 458 298.5 441.5 c 128,-1,11
 327 425 327 425 371 425 c 2,12,-1
 538 425 l 1,13,-1
 514 298 l 1,14,-1
 349 298 l 2,15,16
 279 298 279 298 234 271.5 c 128,-1,17
 189 245 189 245 189 202 c 0,18,19
 189 166 189 166 225.5 144 c 128,-1,20
 262 122 262 122 321 122 c 0,21,22
 373 122 373 122 434.5 138 c 128,-1,23
 496 154 496 154 540 177 c 1,24,-1
 577 57 l 1,25,26
 520 26 520 26 439.5 7.5 c 128,-1,27
 359 -11 359 -11 281 -11 c 0,28,29
 207 -11 207 -11 147.5 10.5 c 128,-1,30
 88 32 88 32 54 71.5 c 128,-1,31
 20 111 20 111 20 163 c 0,32,33
 20 236 20 236 75 293 c 128,-1,34
 130 350 130 350 217 371 c 1,35,36
 174 387 174 387 149.5 421.5 c 128,-1,37
 125 456 125 456 125 501 c 0,38,39
 125 514 125 514 126 521 c 0,40,41
 134 578 134 578 175 621.5 c 128,-1,42
 216 665 216 665 284 689 c 128,-1,43
 352 713 352 713 437 713 c 0,44,0
 503 713 503 713 566.5 699 c 128,-1,1
EndSplineSet
EndChar

StartChar: uni1E1C.ss01
Encoding: 65574 -1 745
Width: 648
Flags: W
LayerCount: 2
Fore
SplineSet
325.5 787.5 m 128,-1,1
 291 821 291 821 291 878 c 0,2,3
 291 898 291 898 293 908 c 1,4,-1
 391 908 l 1,5,6
 390 904 390 904 390 897 c 0,7,8
 390 874 390 874 402.5 861 c 128,-1,9
 415 848 415 848 437 848 c 0,10,11
 461 848 461 848 480.5 864.5 c 128,-1,12
 500 881 500 881 507 908 c 1,13,-1
 605 908 l 1,14,15
 589 839 589 839 538 796.5 c 128,-1,16
 487 754 487 754 420 754 c 0,17,0
 360 754 360 754 325.5 787.5 c 128,-1,1
313.5 553.5 m 128,-1,19
 270 527 270 527 270 487 c 0,20,21
 270 458 270 458 298.5 441.5 c 128,-1,22
 327 425 327 425 371 425 c 2,23,-1
 538 425 l 1,24,-1
 514 298 l 1,25,-1
 349 298 l 2,26,27
 279 298 279 298 234 271.5 c 128,-1,28
 189 245 189 245 189 202 c 0,29,30
 189 166 189 166 225.5 144 c 128,-1,31
 262 122 262 122 321 122 c 0,32,33
 373 122 373 122 434.5 138 c 128,-1,34
 496 154 496 154 540 177 c 1,35,-1
 577 57 l 1,36,37
 530 32 530 32 466 14.5 c 128,-1,38
 402 -3 402 -3 335 -9 c 1,39,-1
 311 -52 l 1,40,41
 346 -60 346 -60 362.5 -78.5 c 128,-1,42
 379 -97 379 -97 379 -122 c 0,43,44
 379 -174 379 -174 337 -201.5 c 128,-1,45
 295 -229 295 -229 234 -229 c 0,46,47
 179 -229 179 -229 131 -208 c 1,48,-1
 173 -128 l 1,49,50
 197 -139 197 -139 225 -139 c 0,51,52
 244 -139 244 -139 257 -131.5 c 128,-1,53
 270 -124 270 -124 270 -113 c 0,54,55
 270 -103 270 -103 257 -97 c 128,-1,56
 244 -91 244 -91 222 -91 c 2,57,-1
 196 -91 l 1,58,-1
 238 -9 l 1,59,60
 142 0 142 0 81 46.5 c 128,-1,61
 20 93 20 93 20 163 c 0,62,63
 20 236 20 236 75 293 c 128,-1,64
 130 350 130 350 217 371 c 1,65,66
 174 387 174 387 149.5 421.5 c 128,-1,67
 125 456 125 456 125 501 c 0,68,69
 125 514 125 514 126 521 c 0,70,71
 134 578 134 578 175 621.5 c 128,-1,72
 216 665 216 665 284 689 c 128,-1,73
 352 713 352 713 437 713 c 0,74,75
 503 713 503 713 566.5 699 c 128,-1,76
 630 685 630 685 667 664 c 1,77,-1
 594 543 l 1,78,79
 560 560 560 560 514 570 c 128,-1,80
 468 580 468 580 425 580 c 0,81,18
 357 580 357 580 313.5 553.5 c 128,-1,19
EndSplineSet
EndChar

StartChar: Eogonek.ss01
Encoding: 65591 -1 762
Width: 648
Flags: W
LayerCount: 2
Fore
SplineSet
313.5 553.5 m 128,-1,1
 270 527 270 527 270 487 c 0,2,3
 270 458 270 458 298.5 441.5 c 128,-1,4
 327 425 327 425 371 425 c 2,5,-1
 538 425 l 1,6,-1
 514 298 l 1,7,-1
 349 298 l 2,8,9
 279 298 279 298 234 271.5 c 128,-1,10
 189 245 189 245 189 202 c 0,11,12
 189 166 189 166 225.5 144 c 128,-1,13
 262 122 262 122 321 122 c 0,14,15
 373 122 373 122 434.5 138 c 128,-1,16
 496 154 496 154 540 177 c 1,17,-1
 577 57 l 1,18,19
 527 19 527 19 492.5 -27.5 c 128,-1,20
 458 -74 458 -74 458 -105 c 0,21,22
 458 -127 458 -127 478 -127 c 0,23,24
 493 -127 493 -127 509 -119 c 1,25,-1
 520 -207 l 1,26,27
 467 -228 467 -228 424 -228 c 256,28,29
 381 -228 381 -228 356.5 -206.5 c 128,-1,30
 332 -185 332 -185 332 -144 c 0,31,32
 332 -106 332 -106 351 -70.5 c 128,-1,33
 370 -35 370 -35 412 2 c 1,34,35
 342 -11 342 -11 281 -11 c 0,36,37
 207 -11 207 -11 147.5 10.5 c 128,-1,38
 88 32 88 32 54 71.5 c 128,-1,39
 20 111 20 111 20 163 c 0,40,41
 20 236 20 236 75 293 c 128,-1,42
 130 350 130 350 217 371 c 1,43,44
 174 387 174 387 149.5 421.5 c 128,-1,45
 125 456 125 456 125 501 c 0,46,47
 125 514 125 514 126 521 c 0,48,49
 134 578 134 578 175 621.5 c 128,-1,50
 216 665 216 665 284 689 c 128,-1,51
 352 713 352 713 437 713 c 0,52,53
 503 713 503 713 566.5 699 c 128,-1,54
 630 685 630 685 667 664 c 1,55,-1
 594 543 l 1,56,57
 560 560 560 560 514 570 c 128,-1,58
 468 580 468 580 425 580 c 0,59,0
 357 580 357 580 313.5 553.5 c 128,-1,1
EndSplineSet
EndChar

StartChar: F.ss01
Encoding: 65593 -1 764
Width: 545
Flags: W
LayerCount: 2
Fore
SplineSet
309.5 540 m 128,-1,1
 271 509 271 509 262 462 c 2,2,-1
 247 387 l 1,3,-1
 512 387 l 1,4,-1
 487 256 l 1,5,-1
 221 256 l 1,6,-1
 169 0 l 1,7,-1
 11 0 l 1,8,-1
 107 477 l 2,9,10
 128 585 128 585 205 647.5 c 128,-1,11
 282 710 282 710 393 710 c 0,12,13
 458 710 458 710 520 696 c 128,-1,14
 582 682 582 682 625 661 c 1,15,-1
 570 530 l 1,16,17
 532 548 532 548 484.5 559.5 c 128,-1,18
 437 571 437 571 399 571 c 0,19,0
 348 571 348 571 309.5 540 c 128,-1,1
EndSplineSet
EndChar

StartChar: G.ss01
Encoding: 65594 -1 765
Width: 759
Flags: W
LayerCount: 2
Fore
SplineSet
586 361 m 1,0,-1
 723 361 l 1,1,-1
 652 0 l 1,2,-1
 535 0 l 1,3,-1
 544 48 l 1,4,5
 503 20 503 20 457.5 4.5 c 128,-1,6
 412 -11 412 -11 367 -11 c 0,7,8
 274 -11 274 -11 201 32 c 128,-1,9
 128 75 128 75 87 150 c 128,-1,10
 46 225 46 225 46 318 c 0,11,12
 46 427 46 427 102.5 517 c 128,-1,13
 159 607 159 607 254.5 659 c 128,-1,14
 350 711 350 711 464 711 c 0,15,16
 541 711 541 711 614 683 c 128,-1,17
 687 655 687 655 737 607 c 1,18,-1
 636 494 l 1,19,20
 602 531 602 531 552.5 552 c 128,-1,21
 503 573 503 573 452 573 c 0,22,23
 387 573 387 573 331 540.5 c 128,-1,24
 275 508 275 508 241.5 452.5 c 128,-1,25
 208 397 208 397 208 330 c 0,26,27
 208 273 208 273 232.5 226.5 c 128,-1,28
 257 180 257 180 300.5 153.5 c 128,-1,29
 344 127 344 127 399 127 c 0,30,31
 440 127 440 127 480.5 144.5 c 128,-1,32
 521 162 521 162 552 192 c 1,33,-1
 586 361 l 1,0,-1
EndSplineSet
EndChar

StartChar: I.ss01
Encoding: 65601 -1 772
Width: 498
Flags: W
LayerCount: 2
Fore
SplineSet
512 569 m 1,0,-1
 389 569 l 1,1,-1
 301 132 l 1,2,-1
 423 132 l 1,3,-1
 398 0 l 1,4,-1
 -6 0 l 1,5,-1
 19 132 l 1,6,-1
 143 132 l 1,7,-1
 231 569 l 1,8,-1
 108 569 l 1,9,-1
 134 700 l 1,10,-1
 538 700 l 1,11,-1
 512 569 l 1,0,-1
EndSplineSet
EndChar

StartChar: Iogonek.ss01
Encoding: 65616 -1 787
Width: 498
Flags: W
LayerCount: 2
Fore
SplineSet
389 569 m 1,0,-1
 301 132 l 1,1,-1
 423 132 l 1,2,-1
 398 0 l 1,3,-1
 250 0 l 1,4,5
 196 -34 196 -34 172 -58.5 c 128,-1,6
 148 -83 148 -83 148 -107 c 0,7,8
 148 -127 148 -127 168 -127 c 0,9,10
 185 -127 185 -127 200 -119 c 1,11,-1
 211 -207 l 1,12,13
 158 -228 158 -228 114 -228 c 256,14,15
 70 -228 70 -228 46 -206.5 c 128,-1,16
 22 -185 22 -185 22 -147 c 0,17,18
 22 -69 22 -69 109 0 c 1,19,-1
 -6 0 l 1,20,-1
 19 132 l 1,21,-1
 143 132 l 1,22,-1
 231 569 l 1,23,-1
 108 569 l 1,24,-1
 134 700 l 1,25,-1
 538 700 l 1,26,-1
 512 569 l 1,27,-1
 389 569 l 1,0,-1
EndSplineSet
EndChar

StartChar: J.ss01
Encoding: 65618 -1 789
Width: 522
Flags: W
LayerCount: 2
Fore
SplineSet
545 700 m 1,0,-1
 428 117 l 2,1,2
 407 8 407 8 336 -49.5 c 128,-1,3
 265 -107 265 -107 158 -107 c 0,4,5
 19 -107 19 -107 -56 6 c 1,6,-1
 32 110 l 1,7,8
 60 73 60 73 94 54.5 c 128,-1,9
 128 36 128 36 160 36 c 0,10,11
 202 36 202 36 232.5 62.5 c 128,-1,12
 263 89 263 89 273 134 c 2,13,-1
 360 566 l 1,14,-1
 119 566 l 1,15,-1
 145 700 l 1,16,-1
 545 700 l 1,0,-1
EndSplineSet
EndChar

StartChar: M.ss01
Encoding: 65622 -1 793
Width: 1183
Flags: W
LayerCount: 2
Fore
SplineSet
1112.5 655.5 m 128,-1,1
 1162 604 1162 604 1162 517 c 0,2,3
 1162 484 1162 484 1155 450 c 2,4,-1
 1065 0 l 1,5,-1
 905 0 l 1,6,-1
 988 411 l 2,7,8
 992 430 992 430 992 451 c 0,9,10
 992 500 992 500 964.5 529 c 128,-1,11
 937 558 937 558 888 558 c 0,12,13
 844 558 844 558 804.5 535 c 128,-1,14
 765 512 765 512 737.5 472.5 c 128,-1,15
 710 433 710 433 700 384 c 2,16,-1
 623 0 l 1,17,-1
 463 0 l 1,18,-1
 546 411 l 2,19,20
 550 430 550 430 550 451 c 0,21,22
 550 500 550 500 522 529 c 128,-1,23
 494 558 494 558 445 558 c 0,24,25
 403 558 403 558 363.5 536.5 c 128,-1,26
 324 515 324 515 296.5 476.5 c 128,-1,27
 269 438 269 438 260 391 c 2,28,-1
 182 0 l 1,29,-1
 23 0 l 1,30,-1
 163 700 l 1,31,-1
 322 700 l 1,32,-1
 300 595 l 1,33,34
 346 648 346 648 406.5 677.5 c 128,-1,35
 467 707 467 707 536 707 c 0,36,37
 610 707 610 707 657 668 c 128,-1,38
 704 629 704 629 716 561 c 1,39,40
 762 630 762 630 830 668.5 c 128,-1,41
 898 707 898 707 978 707 c 0,42,0
 1063 707 1063 707 1112.5 655.5 c 128,-1,1
EndSplineSet
EndChar

StartChar: N.ss01
Encoding: 65624 -1 795
Width: 766
Flags: W
LayerCount: 2
Fore
SplineSet
692.5 654.5 m 128,-1,1
 745 602 745 602 745 513 c 0,2,3
 745 483 745 483 739 450 c 2,4,-1
 649 0 l 1,5,-1
 489 0 l 1,6,-1
 571 411 l 2,7,8
 575 428 575 428 575 448 c 0,9,10
 575 498 575 498 544.5 528 c 128,-1,11
 514 558 514 558 461 558 c 0,12,13
 390 558 390 558 333.5 510.5 c 128,-1,14
 277 463 277 463 260 391 c 2,15,-1
 182 0 l 1,16,-1
 23 0 l 1,17,-1
 163 700 l 1,18,-1
 322 700 l 1,19,-1
 300 592 l 1,20,21
 348 647 348 647 412 677 c 128,-1,22
 476 707 476 707 549 707 c 0,23,0
 640 707 640 707 692.5 654.5 c 128,-1,1
EndSplineSet
EndChar

StartChar: Eng.ss01
Encoding: 65631 -1 802
Width: 767
Flags: W
LayerCount: 2
Fore
SplineSet
691.5 648 m 128,-1,1
 744 596 744 596 744 507 c 0,2,3
 744 477 744 477 738 444 c 2,4,-1
 649 0 l 2,5,6
 627 -99 627 -99 552 -155.5 c 128,-1,7
 477 -212 477 -212 372 -212 c 0,8,9
 263 -212 263 -212 199 -148 c 1,10,-1
 284 -26 l 1,11,12
 309 -47 309 -47 337.5 -58 c 128,-1,13
 366 -69 366 -69 393 -69 c 0,14,15
 430 -69 430 -69 456 -47.5 c 128,-1,16
 482 -26 482 -26 491 14 c 2,17,-1
 570 405 l 2,18,19
 574 422 574 422 574 442 c 0,20,21
 574 492 574 492 543.5 522 c 128,-1,22
 513 552 513 552 460 552 c 0,23,24
 389 552 389 552 332.5 504.5 c 128,-1,25
 276 457 276 457 259 385 c 2,26,-1
 182 0 l 1,27,-1
 23 0 l 1,28,-1
 163 700 l 1,29,-1
 322 700 l 1,30,-1
 299 586 l 1,31,32
 347 641 347 641 411 670.5 c 128,-1,33
 475 700 475 700 548 700 c 0,34,0
 639 700 639 700 691.5 648 c 128,-1,1
EndSplineSet
EndChar

